<?xml version="1.0" encoding="UTF-8" standalone="no"?>
<svg
   xmlns:dc="http://purl.org/dc/elements/1.1/"
   xmlns:cc="http://creativecommons.org/ns#"
   xmlns:rdf="http://www.w3.org/1999/02/22-rdf-syntax-ns#"
   xmlns:svg="http://www.w3.org/2000/svg"
   xmlns="http://www.w3.org/2000/svg"
   xmlns:sodipodi="http://sodipodi.sourceforge.net/DTD/sodipodi-0.dtd"
   xmlns:inkscape="http://www.inkscape.org/namespaces/inkscape"
   width="385mm"
   height="100mm"
   viewBox="0 0 385 100"
   version="1.1"
   id="svg8"
   inkscape:version="1.0 (4035a4fb49, 2020-05-01)"
   sodipodi:docname="catchcopy.svg">
  <defs
     id="defs2" />
  <sodipodi:namedview
     id="base"
     pagecolor="#ffffff"
     bordercolor="#666666"
     borderopacity="1.0"
     inkscape:pageopacity="0.0"
     inkscape:pageshadow="2"
     inkscape:zoom="0.35"
     inkscape:cx="400"
     inkscape:cy="681.90476"
     inkscape:document-units="mm"
     inkscape:current-layer="layer1"
     inkscape:document-rotation="0"
     showgrid="false"
     width="400mm"
     inkscape:window-width="1366"
     inkscape:window-height="708"
     inkscape:window-x="-8"
     inkscape:window-y="-8"
     inkscape:window-maximized="1" />
  <metadata
     id="metadata5">
    <rdf:RDF>
      <cc:Work
         rdf:about="">
        <dc:format>image/svg+xml</dc:format>
        <dc:type
           rdf:resource="http://purl.org/dc/dcmitype/StillImage" />
        <dc:title></dc:title>
      </cc:Work>
    </rdf:RDF>
  </metadata>
  <g
     inkscape:label="レイヤー 1"
     inkscape:groupmode="layer"
     id="layer1">
    <g
       transform="translate(-3.0238095,-115.66071)"
       aria-label="ADVANCE, THE NEXT FUTURE+ "
       id="text14"
       style="font-style:normal;font-variant:normal;font-weight:normal;font-stretch:normal;font-size:25.4px;line-height:1.25;font-family:Roboto;-inkscape-font-specification:Roboto;stroke-width:0.264583">
      <path
         d="m 26.430576,151.01329 h -7.56543 l -1.699121,4.71289 h -2.455664 l 6.895703,-18.05781 h 2.083594 l 6.908105,18.05781 h -2.443262 z m -6.846094,-1.95957 h 6.13916 l -3.075781,-8.446 z"
         style="font-style:normal;font-variant:normal;font-weight:normal;font-stretch:normal;font-size:25.4px;font-family:Roboto;-inkscape-font-specification:Roboto;stroke-width:0.264583"
         id="path22" />
      <path
         d="m 33.028622,155.72618 v -18.05781 h 5.097363 q 2.356445,0 4.167187,1.0418 1.810743,1.04179 2.790528,2.96416 0.992187,1.92236 1.00459,4.41523 v 1.15342 q 0,2.55488 -0.992188,4.47724 -0.979785,1.92237 -2.815332,2.95176 -1.823144,1.0294 -4.254004,1.0542 z m 2.38125,-16.09824 v 14.15107 h 2.505273 q 2.75332,0 4.278809,-1.71152 1.53789,-1.71152 1.53789,-4.87412 v -1.0542 q 0,-3.07578 -1.451074,-4.7749 -1.438672,-1.71153 -4.092773,-1.73633 z"
         style="font-style:normal;font-variant:normal;font-weight:normal;font-stretch:normal;font-size:25.4px;font-family:Roboto;-inkscape-font-specification:Roboto;stroke-width:0.264583"
         id="path24" />
      <path
         d="m 55.427255,152.56358 5.159375,-14.89521 h 2.604492 l -6.697265,18.05781 h -2.108399 l -6.684863,-18.05781 h 2.59209 z"
         style="font-style:normal;font-variant:normal;font-weight:normal;font-stretch:normal;font-size:25.4px;font-family:Roboto;-inkscape-font-specification:Roboto;stroke-width:0.264583"
         id="path26" />
      <path
         d="m 74.650886,151.01329 h -7.56543 l -1.699121,4.71289 h -2.455664 l 6.895703,-18.05781 h 2.083594 l 6.908105,18.05781 h -2.443261 z m -6.846094,-1.95957 h 6.13916 l -3.075781,-8.446 z"
         style="font-style:normal;font-variant:normal;font-weight:normal;font-stretch:normal;font-size:25.4px;font-family:Roboto;-inkscape-font-specification:Roboto;stroke-width:0.264583"
         id="path28" />
      <path
         d="m 95.127154,155.72618 h -2.393652 l -9.090918,-13.91543 v 13.91543 h -2.393652 v -18.05781 h 2.393652 l 9.115723,13.97744 v -13.97744 h 2.368847 z"
         style="font-style:normal;font-variant:normal;font-weight:normal;font-stretch:normal;font-size:25.4px;font-family:Roboto;-inkscape-font-specification:Roboto;stroke-width:0.264583"
         id="path30" />
      <path
         d="m 112.63926,149.9963 q -0.33486,2.86494 -2.1208,4.42763 -1.77353,1.5503 -4.72529,1.5503 -3.1998,0 -5.13457,-2.29444 -1.922363,-2.29443 -1.922363,-6.13916 v -1.73632 q 0,-2.51768 0.892968,-4.42764 0.905375,-1.90996 2.554885,-2.92695 1.64951,-1.0294 3.81992,-1.0294 2.87734,0 4.61367,1.61231 1.73633,1.5999 2.02158,4.44004 h -2.39365 q -0.31006,-2.15801 -1.35185,-3.12539 -1.0294,-0.96739 -2.88975,-0.96739 -2.28203,0 -3.58428,1.68672 -1.28984,1.68672 -1.28984,4.79971 v 1.74873 q 0,2.93935 1.22783,4.67568 1.22783,1.73633 3.43545,1.73633 1.98438,0 3.03857,-0.89297 1.06661,-0.90537 1.41387,-3.13779 z"
         style="font-style:normal;font-variant:normal;font-weight:normal;font-stretch:normal;font-size:25.4px;font-family:Roboto;-inkscape-font-specification:Roboto;stroke-width:0.264583"
         id="path32" />
      <path
         d="m 126.0834,147.3794 h -7.82588 v 6.39961 h 9.09092 v 1.94717 h -11.47217 v -18.05781 h 11.34815 v 1.95957 h -8.9669 v 5.8043 h 7.82588 z"
         style="font-style:normal;font-variant:normal;font-weight:normal;font-stretch:normal;font-size:25.4px;font-family:Roboto;-inkscape-font-specification:Roboto;stroke-width:0.264583"
         id="path34" />
      <path
         d="m 129.87852,159.32286 -1.30224,-0.89297 q 1.16582,-1.62471 1.21543,-3.34863 v -2.07119 h 2.24482 v 1.79834 q 0,1.25263 -0.62011,2.50527 -0.60772,1.25264 -1.5379,2.00918 z"
         style="font-style:normal;font-variant:normal;font-weight:normal;font-stretch:normal;font-size:25.4px;font-family:Roboto;-inkscape-font-specification:Roboto;stroke-width:0.264583"
         id="path36" />
      <path
         d="m 153.60421,139.62794 h -5.8043 v 16.09824 h -2.36885 v -16.09824 h -5.79189 v -1.95957 h 13.96504 z"
         style="font-style:normal;font-variant:normal;font-weight:normal;font-stretch:normal;font-size:25.4px;font-family:Roboto;-inkscape-font-specification:Roboto;stroke-width:0.264583"
         id="path38" />
      <path
         d="m 170.18614,155.72618 h -2.39365 v -8.34678 h -9.10332 v 8.34678 h -2.38125 v -18.05781 h 2.38125 v 7.76387 h 9.10332 v -7.76387 h 2.39365 z"
         style="font-style:normal;font-variant:normal;font-weight:normal;font-stretch:normal;font-size:25.4px;font-family:Roboto;-inkscape-font-specification:Roboto;stroke-width:0.264583"
         id="path40" />
      <path
         d="m 184.62247,147.3794 h -7.82588 v 6.39961 h 9.09092 v 1.94717 h -11.47217 v -18.05781 h 11.34815 v 1.95957 h -8.9669 v 5.8043 h 7.82588 z"
         style="font-style:normal;font-variant:normal;font-weight:normal;font-stretch:normal;font-size:25.4px;font-family:Roboto;-inkscape-font-specification:Roboto;stroke-width:0.264583"
         id="path42" />
      <path
         d="m 209.03028,155.72618 h -2.39366 l -9.09091,-13.91543 v 13.91543 h -2.39366 v -18.05781 h 2.39366 l 9.11572,13.97744 v -13.97744 h 2.36885 z"
         style="font-style:normal;font-variant:normal;font-weight:normal;font-stretch:normal;font-size:25.4px;font-family:Roboto;-inkscape-font-specification:Roboto;stroke-width:0.264583"
         id="path44" />
      <path
         d="m 223.4666,147.3794 h -7.82587 v 6.39961 h 9.09091 v 1.94717 h -11.47216 v -18.05781 h 11.34814 v 1.95957 h -8.96689 v 5.8043 h 7.82587 z"
         style="font-style:normal;font-variant:normal;font-weight:normal;font-stretch:normal;font-size:25.4px;font-family:Roboto;-inkscape-font-specification:Roboto;stroke-width:0.264583"
         id="path46" />
      <path
         d="m 233.58691,144.58888 4.32842,-6.92051 h 2.80293 l -5.70508,8.95449 5.84151,9.10332 h -2.82774 l -4.44004,-7.04453 -4.46484,7.04453 h -2.81533 l 5.8539,-9.10332 -5.71748,-8.95449 h 2.79053 z"
         style="font-style:normal;font-variant:normal;font-weight:normal;font-stretch:normal;font-size:25.4px;font-family:Roboto;-inkscape-font-specification:Roboto;stroke-width:0.264583"
         id="path48" />
      <path
         d="m 256.09718,139.62794 h -5.8043 v 16.09824 h -2.36884 v -16.09824 h -5.7919 v -1.95957 h 13.96504 z"
         style="font-style:normal;font-variant:normal;font-weight:normal;font-stretch:normal;font-size:25.4px;font-family:Roboto;-inkscape-font-specification:Roboto;stroke-width:0.264583"
         id="path50" />
      <path
         d="m 274.56426,147.75147 h -7.57783 v 7.97471 h -2.38125 v -18.05781 h 11.18691 v 1.95957 h -8.80566 v 6.17637 h 7.57783 z"
         style="font-style:normal;font-variant:normal;font-weight:normal;font-stretch:normal;font-size:25.4px;font-family:Roboto;-inkscape-font-specification:Roboto;stroke-width:0.264583"
         id="path52" />
      <path
         d="m 291.35704,137.66837 v 12.27832 q -0.0124,2.55488 -1.6123,4.17959 -1.5875,1.62471 -4.31602,1.82314 l -0.63252,0.0248 q -2.96416,0 -4.72529,-1.5999 -1.76114,-1.59991 -1.78594,-4.40284 v -12.30312 h 2.35645 v 12.22871 q 0,1.95957 1.079,3.05098 1.079,1.079 3.07578,1.079 2.02158,0 3.08818,-1.079 1.07901,-1.07901 1.07901,-3.03858 v -12.24111 z"
         style="font-style:normal;font-variant:normal;font-weight:normal;font-stretch:normal;font-size:25.4px;font-family:Roboto;-inkscape-font-specification:Roboto;stroke-width:0.264583"
         id="path54" />
      <path
         d="m 307.5917,139.62794 h -5.80429 v 16.09824 h -2.36885 v -16.09824 h -5.7919 v -1.95957 h 13.96504 z"
         style="font-style:normal;font-variant:normal;font-weight:normal;font-stretch:normal;font-size:25.4px;font-family:Roboto;-inkscape-font-specification:Roboto;stroke-width:0.264583"
         id="path56" />
      <path
         d="m 323.00783,137.66837 v 12.27832 q -0.0124,2.55488 -1.61231,4.17959 -1.5875,1.62471 -4.31601,1.82314 l -0.63252,0.0248 q -2.96416,0 -4.72529,-1.5999 -1.76114,-1.59991 -1.78594,-4.40284 v -12.30312 h 2.35644 v 12.22871 q 0,1.95957 1.07901,3.05098 1.079,1.079 3.07578,1.079 2.02158,0 3.08818,-1.079 1.07901,-1.07901 1.07901,-3.03858 v -12.24111 z"
         style="font-style:normal;font-variant:normal;font-weight:normal;font-stretch:normal;font-size:25.4px;font-family:Roboto;-inkscape-font-specification:Roboto;stroke-width:0.264583"
         id="path58" />
      <path
         d="m 333.38858,148.4212 h -4.2416 v 7.30498 h -2.39365 v -18.05781 h 5.97793 q 3.05098,0 4.68809,1.38906 1.64951,1.38906 1.64951,4.04317 0,1.68671 -0.91778,2.93935 -0.90537,1.25264 -2.53007,1.87275 l 4.2416,7.66465 v 0.14883 h -2.55489 z m -4.2416,-1.94717 h 3.65869 q 1.77354,0 2.81534,-0.91777 1.05419,-0.91777 1.05419,-2.45566 0,-1.67432 -1.00459,-2.56729 -0.99218,-0.89297 -2.87734,-0.90537 h -3.64629 z"
         style="font-style:normal;font-variant:normal;font-weight:normal;font-stretch:normal;font-size:25.4px;font-family:Roboto;-inkscape-font-specification:Roboto;stroke-width:0.264583"
         id="path60" />
      <path
         d="m 352.59981,147.3794 h -7.82587 v 6.39961 h 9.09091 v 1.94717 h -11.47216 v -18.05781 h 11.34814 v 1.95957 h -8.96689 v 5.8043 h 7.82587 z"
         style="font-style:normal;font-variant:normal;font-weight:normal;font-stretch:normal;font-size:25.4px;font-family:Roboto;-inkscape-font-specification:Roboto;stroke-width:0.264583"
         id="path62" />
      <path
         d="m 363.04257,146.03995 h 5.03535 v 2.17041 h -5.03535 v 5.70508 h -2.30684 v -5.70508 h -5.03535 v -2.17041 h 5.03535 v -5.271 h 2.30684 z"
         style="font-style:normal;font-variant:normal;font-weight:normal;font-stretch:normal;font-size:25.4px;font-family:Roboto;-inkscape-font-specification:Roboto;stroke-width:0.264583"
         id="path64" />
    </g>
    <g
       transform="translate(-3.0238095,-115.66071)"
       aria-label="進め、もっと次の未来へ"
       id="text92"
       style="font-size:11.2889px;line-height:1.25;font-family:'GenEi Gothic N';-inkscape-font-specification:'GenEi Gothic N';stroke-width:0.264583">
      <path
         d="m 20.685283,182.44094 h -1.964269 v -1.17404 h 1.964269 z m 0,1.89654 h -1.964269 v -1.18534 h 1.964269 z m 0,1.91911 h -1.964269 v -1.2192 h 1.964269 z m -2.77707,0.73378 h 6.276629 v -0.73378 h -2.698047 v -1.2192 h 2.201335 v -0.69991 h -2.201335 v -1.18534 h 2.223913 v -0.7112 h -2.223913 v -1.17404 h 2.506136 v -0.72249 h -2.393247 c 0.237067,-0.45156 0.474134,-0.98214 0.688623,-1.45627 l -0.891823,-0.19191 c -0.146756,0.48542 -0.383823,1.12889 -0.632179,1.64818 H 18.96937 c 0.293512,-0.47414 0.541867,-0.98214 0.756356,-1.50143 l -0.824089,-0.22578 c -0.564445,1.42241 -1.535291,2.76578 -2.630314,3.61245 0.191911,0.15805 0.508,0.47414 0.643467,0.64347 0.338667,-0.29351 0.677334,-0.64347 0.993423,-1.016 z m -1.174045,-6.08472 c -0.349956,-0.55316 -1.12889,-1.3208 -1.817513,-1.84009 l -0.643467,0.47413 c 0.688622,0.54187 1.444979,1.32081 1.783646,1.88525 z m -0.338667,2.30294 h -2.223914 v 0.79022 h 1.433691 v 2.88996 c -0.508001,0.47413 -1.083735,0.94827 -1.557868,1.29822 l 0.440267,0.80151 c 0.553156,-0.48542 1.072445,-0.95955 1.569157,-1.44498 0.699912,0.88054 1.715913,1.27565 3.194759,1.33209 1.264356,0.0565 3.646314,0.0339 4.910671,-0.0226 0.03387,-0.24836 0.169334,-0.63218 0.270934,-0.82409 -1.354668,0.0903 -3.951115,0.12417 -5.192894,0.0677 -1.320802,-0.0452 -2.314225,-0.42898 -2.844803,-1.26436 z"
         style="font-size:11.2889px;stroke-width:0.264583"
         id="path94" />
      <path
         d="m 29.479336,184.60841 c -0.259644,-0.44027 -0.587022,-1.19662 -0.857956,-1.96427 0.72249,-0.46284 1.512713,-0.72249 2.381958,-0.76764 -0.338667,1.15146 -0.82409,2.31422 -1.298224,3.10444 -0.07902,-0.12417 -0.158044,-0.24835 -0.225778,-0.37253 z m -1.919113,2.34809 c -0.508,0 -0.835378,-0.45155 -0.835378,-1.19662 0,-0.86925 0.462845,-1.88525 1.196623,-2.58516 0.327378,0.84667 0.677334,1.63689 0.993423,2.14489 0.09031,0.14676 0.180623,0.29351 0.270934,0.42898 -0.496712,0.65476 -1.072446,1.20791 -1.625602,1.20791 z m 3.894671,-7.51841 c 0.01129,0.24836 -0.02258,0.62089 -0.06773,0.84667 -0.04516,0.25965 -0.101601,0.53058 -0.169334,0.80151 -0.970845,0.0113 -1.919113,0.23707 -2.867381,0.79023 -0.1016,-0.31609 -0.191911,-0.59832 -0.259644,-0.85796 -0.07902,-0.3048 -0.169334,-0.67733 -0.225778,-0.98213 l -0.936979,0.29351 c 0.135467,0.29351 0.248356,0.64346 0.361245,1.00471 0.1016,0.32738 0.214489,0.67733 0.338667,1.02729 -1.016001,0.83538 -1.727202,2.17876 -1.727202,3.4544 0,1.3208 0.72249,2.032 1.569157,2.032 0.835379,0 1.524002,-0.55315 2.212625,-1.38853 0.169333,0.22578 0.349955,0.42898 0.530578,0.63218 l 0.699912,-0.57574 c -0.237067,-0.22577 -0.474134,-0.49671 -0.688623,-0.77893 0.632178,-0.92569 1.219201,-2.38196 1.63689,-3.80436 1.422402,0.24836 2.325514,1.34338 2.325514,2.78836 0,1.71591 -1.298224,2.9464 -3.623737,3.1496 l 0.541867,0.80151 c 2.393247,-0.32737 3.984982,-1.69333 3.984982,-3.91724 0,-1.91912 -1.23049,-3.29636 -3.025425,-3.60116 0.06773,-0.25965 0.124177,-0.508 0.180622,-0.75636 0.05644,-0.21449 0.124178,-0.59831 0.191911,-0.86924 z"
         style="font-size:11.2889px;stroke-width:0.264583"
         id="path96" />
      <path
         d="m 36.794544,186.31303 c 0.801512,0.65476 1.783646,1.61432 2.517425,2.51743 l 0.677334,-0.57573 c -0.733779,-0.84667 -1.738491,-1.85138 -2.551292,-2.50614 z"
         style="font-size:11.2889px;stroke-width:0.264583"
         id="path98" />
      <path
         d="m 55.116427,183.63756 c 0.82409,0.68863 1.23049,1.52401 1.23049,2.28036 0,1.16276 -1.083734,1.88525 -2.777069,1.88525 -1.275646,0 -1.885246,-0.67734 -1.885246,-1.73849 0,-0.27094 0.02258,-0.66605 0.06773,-1.10631 h 0.4064 c 0.756357,0 1.44498,-0.0226 2.190047,-0.1016 l 0.02258,-0.85796 c -0.778934,0.1016 -1.569157,0.13547 -2.325514,0.13547 h -0.214489 c 0.07902,-0.64347 0.158045,-1.34338 0.248356,-1.99814 h 0.07902 c 0.891823,0 1.557869,-0.0452 2.269069,-0.11289 l 0.02258,-0.84667 c -0.654756,0.0903 -1.411112,0.13547 -2.25778,0.13547 0.05644,-0.46284 0.112889,-0.85796 0.146756,-1.14018 0.03387,-0.24835 0.06773,-0.47413 0.146755,-0.77893 l -1.016001,-0.0565 c 0.02258,0.27094 0.01129,0.51929 -0.01129,0.77894 -0.02258,0.3048 -0.06773,0.7112 -0.124177,1.16275 -0.835379,-0.0451 -1.738491,-0.18062 -2.438403,-0.4064 l -0.04516,0.83538 c 0.699911,0.18063 1.580446,0.31609 2.381957,0.38383 -0.07902,0.65475 -0.169333,1.35466 -0.248355,2.00942 -0.790223,-0.0564 -1.625602,-0.19191 -2.35938,-0.45156 l -0.04516,0.85796 c 0.677334,0.21449 1.490135,0.33867 2.325513,0.4064 -0.05644,0.53058 -0.09031,0.98213 -0.09031,1.28694 0,1.8288 1.23049,2.49484 2.754492,2.49484 2.201335,0 3.702759,-1.016 3.702759,-2.67547 0,-0.95955 -0.383822,-1.73849 -1.151468,-2.58516 z"
         style="font-size:11.2889px;stroke-width:0.264583"
         id="path100" />
      <path
         d="m 60.614124,183.7053 0.372533,0.93698 c 0.72249,-0.28223 3.160892,-1.29823 4.549427,-1.29823 1.140179,0 1.885247,0.68863 1.885247,1.63689 0,1.82881 -2.122314,2.50614 -4.538138,2.58516 l 0.361244,0.86925 c 3.014137,-0.18062 5.091294,-1.28694 5.091294,-3.44312 0,-1.524 -1.151467,-2.47227 -2.731913,-2.47227 -1.320802,0 -3.149604,0.66605 -3.951116,0.9144 -0.338667,0.11289 -0.7112,0.21449 -1.038578,0.27094 z"
         style="font-size:11.2889px;stroke-width:0.264583"
         id="path102" />
      <path
         d="m 72.128804,186.18886 c 0,1.67075 1.524001,2.30293 3.623737,2.30293 1.399824,0 2.698047,-0.12418 3.533426,-0.27093 v -1.016 c -0.869246,0.21449 -2.35938,0.38382 -3.578582,0.38382 -1.761068,0 -2.630313,-0.57573 -2.630313,-1.50142 0,-0.98214 0.846667,-1.72721 1.693335,-2.16747 1.016001,-0.54187 2.35938,-0.97085 3.318936,-1.24178 0.428979,-0.11289 0.711201,-0.19191 0.993424,-0.24836 l -0.282223,-0.97084 c -0.259645,0.12417 -0.575734,0.22577 -0.92569,0.33866 -0.541867,0.16934 -1.998135,0.63218 -2.968981,1.09503 -0.440267,-0.9144 -0.745067,-2.19005 -0.857956,-3.53343 l -0.948268,0.15805 c 0.112889,1.34338 0.451556,2.87867 0.959557,3.77049 -1.207912,0.83538 -1.930402,1.76107 -1.930402,2.90125 z"
         style="font-size:11.2889px;stroke-width:0.264583"
         id="path104" />
      <path
         d="m 84.828811,181.19916 c -0.440267,-0.49671 -1.354668,-1.18533 -2.065869,-1.65947 l -0.598311,0.59832 c 0.722489,0.508 1.614312,1.23049 2.032002,1.7272 z m -0.395111,2.94641 c -0.959557,0.99342 -1.975558,2.032 -2.630314,2.6416 l 0.541867,0.68862 c 0.767645,-0.72249 1.704624,-1.70462 2.540003,-2.60774 z m 4.222048,-2.50614 h 2.325514 c -0.225778,0.74507 -0.587023,1.58045 -0.869246,2.09973 0.203201,0.079 0.51929,0.25965 0.699912,0.33867 0.41769,-0.74507 0.936979,-1.89653 1.241779,-2.98027 l -0.6096,-0.33866 -0.169334,0.0451 h -4.549427 c 0.203201,-0.58702 0.372534,-1.19662 0.530579,-1.8288 l -0.880535,-0.158 c -0.383822,1.79494 -1.072445,3.53343 -2.020713,4.63974 0.225778,0.1016 0.632179,0.33867 0.801512,0.47414 0.462845,-0.62089 0.891823,-1.41112 1.253068,-2.29165 h 1.377246 v 1.4224 c 0,1.04987 -0.587023,3.99627 -4.00756,5.35094 0.158045,0.14676 0.41769,0.49671 0.51929,0.67733 2.698047,-1.14018 3.725337,-3.39796 3.917248,-4.45911 0.158045,1.04987 1.12889,3.37538 3.476982,4.45911 0.135466,-0.2032 0.395111,-0.55315 0.541867,-0.74506 -3.048003,-1.32081 -3.589871,-4.30107 -3.578582,-5.28321 z"
         style="font-size:11.2889px;stroke-width:0.264583"
         id="path106" />
      <path
         d="m 95.688735,186.6517 c -0.485423,0 -1.140179,-0.62089 -1.140179,-2.032 0,-1.50142 1.309513,-3.34152 3.454404,-3.61245 -0.124178,1.02729 -0.338667,2.08845 -0.62089,3.01414 -0.575734,1.88524 -1.196623,2.63031 -1.693335,2.63031 z m 2.946403,1.87396 c 2.664182,-0.34996 4.210762,-1.91911 4.210762,-4.26721 0,-2.25778 -1.67076,-4.10916 -4.289784,-4.10916 -2.731914,0 -4.899383,2.12232 -4.899383,4.54943 0,1.84009 1.004712,2.99156 1.998135,2.99156 1.038579,0 1.930402,-1.18533 2.619025,-3.47698 0.304801,-1.04987 0.51929,-2.17876 0.666045,-3.21734 1.896532,0.15805 2.968982,1.54658 2.968982,3.23992 0,1.9304 -1.39982,2.99156 -2.833515,3.30764 -0.270933,0.0565 -0.6096,0.11289 -0.959556,0.13547 z"
         style="font-size:11.2889px;stroke-width:0.264583"
         id="path108" />
      <path
         d="m 114.51862,184.22459 v -0.82409 h -4.53814 v -1.94169 h 3.75921 v -0.82409 h -3.75921 v -1.84009 h -0.86924 v 1.84009 h -3.64632 v 0.82409 h 3.64632 v 1.94169 h -4.45912 v 0.82409 h 3.98499 c -1.01601,1.45627 -2.72063,2.85609 -4.28979,3.556 0.19191,0.15805 0.46285,0.48542 0.6096,0.68862 1.47885,-0.74506 3.0593,-2.08844 4.15432,-3.58987 v 4.22205 h 0.86924 v -4.2672 c 1.09503,1.50142 2.69805,2.90125 4.18819,3.64631 0.14675,-0.22577 0.41769,-0.55315 0.6096,-0.7112 -1.56916,-0.68862 -3.28507,-2.09973 -4.31236,-3.54471 z"
         style="font-size:11.2889px;stroke-width:0.264583"
         id="path110" />
      <path
         d="m 125.84139,184.56325 v -0.80151 h -4.56071 v -2.81093 h 4.08658 v -0.80152 h -4.08658 v -1.35466 h -0.86925 v 1.35466 h -3.99627 v 0.80152 h 3.99627 v 2.81093 h -4.52685 v 0.80151 h 3.96241 c -1.02729,1.37725 -2.68676,2.69805 -4.19948,3.35281 0.18063,0.16933 0.45156,0.48542 0.58703,0.68862 1.47884,-0.73378 3.08187,-2.08845 4.17689,-3.57858 v 4.064 h 0.86925 v -4.08658 c 1.09502,1.49014 2.70933,2.90125 4.21076,3.64632 0.13546,-0.22578 0.4064,-0.54187 0.58702,-0.7112 -1.524,-0.65476 -3.19476,-1.99814 -4.22205,-3.37539 z m -8.51183,-3.07058 c 0.44027,0.65476 0.86925,1.56916 1.016,2.13361 l 0.79023,-0.3048 c -0.15805,-0.58703 -0.62089,-1.45627 -1.07245,-2.11103 z m 5.96054,2.15618 c 0.4064,-0.55315 0.90311,-1.44498 1.29822,-2.21262 l -0.85795,-0.27093 c -0.27094,0.67733 -0.75636,1.63689 -1.14018,2.24649 z"
         style="font-size:11.2889px;stroke-width:0.264583"
         id="path112" />
      <path
         d="m 127.17348,185.09383 0.83538,0.86925 c 0.16934,-0.23707 0.41769,-0.57574 0.65476,-0.86925 0.56444,-0.67733 1.49013,-1.91911 2.00942,-2.57387 0.37254,-0.47413 0.57574,-0.54186 1.06116,-0.0339 0.51929,0.57573 1.37725,1.64818 2.09974,2.47227 0.76764,0.86924 1.79493,1.99813 2.6416,2.79964 l 0.7112,-0.80151 c -1.00471,-0.90311 -2.09974,-2.07716 -2.78836,-2.82222 -0.7112,-0.76765 -1.60302,-1.88525 -2.24649,-2.56258 -0.74507,-0.74507 -1.34338,-0.63218 -1.98685,0.12417 -0.65475,0.79023 -1.59173,2.05458 -2.19004,2.66418 -0.29352,0.3048 -0.53058,0.53058 -0.80152,0.73378 z"
         style="font-size:11.2889px;stroke-width:0.264583"
         id="path114" />
    </g>
  </g>
</svg>
