<?xml version="1.0" encoding="UTF-8"?>
<svg width="100.55mm" height="100.55mm" version="1.1" viewBox="0 0 100.55 100.55" xmlns="http://www.w3.org/2000/svg" xmlns:cc="http://creativecommons.org/ns#" xmlns:dc="http://purl.org/dc/elements/1.1/" xmlns:rdf="http://www.w3.org/1999/02/22-rdf-syntax-ns#">
 <title>Chukoren-Matsue-Logo-Mark-1.0</title>
 <metadata>
  <rdf:RDF>
   <cc:Work rdf:about="">
    <dc:format>image/svg+xml</dc:format>
    <dc:type rdf:resource="http://purl.org/dc/dcmitype/StillImage"/>
    <dc:title>Chukoren-Matsue-Logo-Mark-1.0</dc:title>
    <cc:license rdf:resource="http://creativecommons.org/licenses/by-sa/4.0/"/>
    <dc:date>2020.08.5</dc:date>
    <dc:creator>
     <cc:Agent>
      <dc:title>Kanan/Pineko</dc:title>
     </cc:Agent>
    </dc:creator>
   </cc:Work>
   <cc:License rdf:about="http://creativecommons.org/licenses/by-sa/4.0/">
    <cc:permits rdf:resource="http://creativecommons.org/ns#Reproduction"/>
    <cc:permits rdf:resource="http://creativecommons.org/ns#Distribution"/>
    <cc:requires rdf:resource="http://creativecommons.org/ns#Notice"/>
    <cc:requires rdf:resource="http://creativecommons.org/ns#Attribution"/>
    <cc:permits rdf:resource="http://creativecommons.org/ns#DerivativeWorks"/>
    <cc:requires rdf:resource="http://creativecommons.org/ns#ShareAlike"/>
   </cc:License>
  </rdf:RDF>
 </metadata>
 <rect x=".08998" y=".42455" width="100.55" height="100.55" fill="#345189" stroke-width=".26458" style="paint-order:fill markers stroke"/>
 <path d="m35.971 70.292c0.05553-1.6382-0.01283-2.7644-0.17265-2.8443-0.16496-0.0825-0.29314 0.84265-0.34043 2.457-0.04612 1.5747-0.17572 2.5276-0.33073 2.4318-0.15253-0.0943-0.25306-2.781-0.25032-6.6904l0.0046-6.5328 2.8078-4.7625h11.132c10.575 0 11.159 0.0252 11.688 0.50403 0.5395 0.48839 0.55701 0.72644 0.56424 7.6729l0.0075 7.1689-1.7347 3.3028-2.1984 2e-3c-1.3988 1e-3 -2.1389-0.094-2.0349-0.26235 0.08994-0.14552 0.9304-0.26458 1.8677-0.26458 0.95973 0 1.7042-0.11558 1.7042-0.26459 0-0.14727-0.71076-0.26458-1.6031-0.26458-0.88171 0-1.5382-0.1051-1.4588-0.23355 0.07939-0.12846 0.65196-0.23776 1.2724-0.24289 1.6937-0.0139 1.7895-0.0309 1.7895-0.3172 0-0.14552-0.66187-0.26458-1.4708-0.26458-0.91317 0-1.4088-0.10031-1.3073-0.26458 0.08994-0.14552 0.63275-0.26459 1.2062-0.26459 0.75484 0 1.0427-0.11061 1.0427-0.40064 0-0.298-0.19922-0.36555-0.77756-0.26367-0.83536 0.14717-1.3736-0.25428-0.60852-0.45388 0.42146-0.10996 0.45362-0.57852 0.38348-5.5863l-0.07656-5.4663h-18.5l-0.02498 11.509-1.5345 2.9104 0.16053-2.6158c0.13393-2.1823 0.09871-2.5953-0.21247-2.492-0.28144 0.0934-0.39152 0.78429-0.44841 2.8143-0.04694 1.6754-0.18145 2.6905-0.3565 2.6905-0.18613 0-0.25005-0.91638-0.18918-2.712zm39.303 1.9148-6.2973-0.17996-0.98992-0.96662c-0.54445-0.53165-1.1104-0.96663-1.2576-0.96663-0.14722 0-0.67157 0.41672-1.1652 0.92604-1.0293 1.062-2.2748 1.2454-3.0017 0.44219-0.80902-0.89395-0.55064-1.8298 0.87613-3.1735l1.314-1.2375 0.16508-8.1359 0.16508-8.1359h-0.80201c-0.4411 0-0.85812-0.0908-0.9267-0.20175-0.06858-0.11097 0.27714-0.91717 0.76827-1.7916l0.89296-1.5898 1.6635-0.0647c2.1437-0.0834 2.3627 0.0666 2.0522 1.4055-0.1341 0.57841-0.24666 4.8994-0.25013 9.6021l-0.0063 8.5505 1.7671 1.873 9.0808 0.28583v-1.0971c0-0.6034-0.11906-1.0971-0.26458-1.0971s-0.26458 0.44053-0.26458 0.97896c0 1.1966-0.48042 0.87336-0.57653-0.38797l-0.06519-0.85558-2.5234-0.0283c-3.3989-0.0382-3.904-0.0733-4.1168-0.2862-0.10021-0.10024 0.3731-0.90391 1.0518-1.7859l1.234-1.6037h4.2024v-1.8521h-3.134c-4.5004 0-4.1248 0.88159-4.2182-9.8998l-0.07611-8.7866 1.2667-1.625c1.1455-1.4695 1.3681-1.6305 2.3251-1.6822 0.58208-0.0315 1.2369-0.0837 1.4552-0.11611 0.21828-0.0324 0.84336-0.0716 1.3891-0.087 0.80642-0.0229 0.99219-0.1272 0.99219-0.55729 0-0.49957-0.17639-0.52917-3.1534-0.52917-3.1883 0-3.9904-0.11525-3.9904-0.57333 0-0.13867 0.44648-0.89532 0.99219-1.6814l0.99219-1.4293 2.5387-0.01c2.1951-9e-3 2.6035-0.0817 3.0176-0.5392 0.61404-0.67851 1.7672-0.67851 2.3812 0 0.4201 0.4642 0.81491 0.52917 3.216 0.52917 1.5054 0 2.7371 0.10632 2.7371 0.23627 0 0.38086-0.7338 0.5572-2.3367 0.56153-0.8484 2e-3 -1.3554 0.0956-1.1675 0.21497 0.18272 0.11601 0.85882 0.17132 1.5024 0.12292 0.64361-0.0484 1.2453 0.0335 1.337 0.1819 0.10567 0.17099-0.36651 0.26991-1.2884 0.26991-1.9146 0-2.2506 0.51326-0.37758 0.57685l1.4047 0.0477-1.2568 0.0991c-1.4387 0.11343-1.7195 0.59926-0.34634 0.59926 0.50073 0 0.98073 0.11377 1.0667 0.25282 0.0924 0.14943-0.63166 0.28469-1.7703 0.33073-1.8453 0.0746-1.9266 0.10517-1.9266 0.72419 0 0.63453 0.0433 0.647 2.3813 0.68568 3.3469 0.0554 3.4851 0.0742 3.9498 0.53902 0.35947 0.35947 0.41577 1.4892 0.41577 8.3423v7.9266l-1.4552 2.3886c-0.80036 1.3138-1.4552 2.5008-1.4552 2.6379 0 0.13709-0.82069 0.24924-1.8238 0.24924-1.9536 0-2.1821 0.15994-1.8902 1.3229 0.18117 0.72181 0.07455 0.70172 4.0447 0.76241 1.1697 0.0179 2.0505 0.14499 2.0505 0.29592 0 0.15288-0.83785 0.26459-1.9844 0.26459-1.1465 0-1.9844 0.11171-1.9844 0.26458 0 0.1495 0.75485 0.26458 1.7354 0.26458 1.0896 0 1.6746 0.0985 1.5719 0.26459-0.0899 0.14552-0.89469 0.26458-1.7883 0.26458-1.9335 0-1.7833 0.4472 0.20083 0.5979l1.3229 0.10047-1.5214 0.0477c-1.8734 0.0587-2.0376 0.57686-0.18282 0.57686 0.82498 0 1.2758 0.10151 1.175 0.26458-0.0899 0.14552-1.1685 0.26458-2.3969 0.26458h-2.2333l-0.03964 0.72761-0.03964 0.7276-0.11022-0.7276c-0.17427-1.1504-0.60424-0.84652-0.60424 0.42706v1.1547l1.2276 0.16825c0.67515 0.0925 2.4313 0.17008 3.9026 0.17231 1.4713 2e-3 2.8536 0.11947 3.0719 0.26053 0.27813 0.17975-0.13279 0.25769-1.3734 0.26053-0.97368 2e-3 -1.8439 0.12312-1.9338 0.26864-0.10215 0.16527 0.43822 0.26458 1.4396 0.26458 0.89235 0 1.6031 0.11731 1.6031 0.26458 0 0.14553-0.65484 0.26459-1.4552 0.26459-1.7782 0-1.9538 0.51025-0.19844 0.57686l1.2568 0.0477-1.2568 0.0991c-1.4478 0.11416-1.7155 0.59927-0.33073 0.59927 0.50932 0 0.92604 0.11907 0.92604 0.26459 0 0.28824-2.3301 0.2876-12.515-3e-3zm5.1067-4.6268c0-0.65484-0.11906-1.1906-0.26458-1.1906-0.14552 0-0.26458 0.53579-0.26458 1.1906s0.11906 1.1906 0.26458 1.1906c0.14552 0 0.26458-0.53578 0.26458-1.1906zm-2.3812-12.965v-2.7781h-3.7042v5.5562h3.7042zm6.8792 0v-2.7781h-3.4396v5.5562h3.4396zm-6.8792-9.2387v-3.021l-3.7054-0.1758 5.3e-4 3.1088 5.29e-4 3.1089h3.7042v-3.021zm6.8792 2e-3v-3.0192l-1.6104-0.0896c-0.88572-0.0493-1.6596-0.04-1.7198 0.0206-0.06017 0.0606-0.10939 1.4596-0.10939 3.1088v2.9985h3.4396v-3.0192zm-67.84 26.283c-0.09806-0.22899 0.2431-3.1322 0.75815-6.4515s0.93644-6.1978 0.93644-6.3967c0-0.28641-0.68954-0.36151-3.3193-0.36151-3.1714 0-3.3483-0.0289-3.9688-0.64943-0.61796-0.61796-0.64943-0.80457-0.64943-3.8511v-3.2017l1.3694-2.1682c2.1129-3.3454 1.6734-3.0942 5.4134-3.0942 3.1655 0 3.2652-0.0175 3.3968-0.59531 0.07457-0.32742 0.50343-2.9766 0.95301-5.887 0.44958-2.9104 0.98766-5.5577 1.1957-5.8828 0.72102-1.1266 2.4176-1.0926 3.1753 0.0638 0.37388 0.57062 0.33856 1.0765-0.41889 5.9992-0.45496 2.9568-0.88437 5.5729-0.95424 5.8135-0.11304 0.38925 0.28459 0.44753 3.6105 0.52916 4.9387 0.12122 4.7486-0.091 4.7486 5.3003v3.9593l-2.177 3.6644h-8.3002l-0.73226 4.8164c-0.40274 2.649-0.80342 4.9316-0.89039 5.0723-0.08698 0.14073-0.25658-0.0103-0.37691-0.33553-0.29731-0.80369-0.75149-0.45385-0.75647 0.58269-0.0022 0.46436-0.13091 1.0229-0.28595 1.2412-0.20944 0.29486-0.2416 0.10783-0.12511-0.72761 0.09385-0.67309 0.05135-1.1245-0.10588-1.1245-0.26345 0-0.36394 0.30085-0.74471 2.2295-0.11281 0.57138-0.34148 1.0843-0.50815 1.1399-0.21466 0.0716-0.19401-0.30861 0.07081-1.3035 0.45384-1.705 0.44986-1.6041 0.05811-1.4735-0.17712 0.059-0.51828 0.87263-0.75815 1.808-0.28021 1.0927-0.49986 1.5518-0.61442 1.2843zm2.7409-19.097c0.1652-1.055 0.35682-2.1861 0.42582-2.5135 0.12382-0.58758 0.08932-0.59531-2.6577-0.59531h-2.7832v5.0271h4.7147zm9.8016-0.59531v-2.5135h-5.2478l-0.2649 1.2568c-0.1457 0.69122-0.34768 1.8223-0.44884 2.5135l-0.18394 1.2568h6.1455zm10.954 18.715c-0.74499-0.49744-0.8995-1.4843-0.8995-5.7453 0-4.3136 0.01204-4.4071 0.64943-5.0445l0.64943-0.64944h13.542l0.64943 0.64944c0.64017 0.64016 0.64943 0.71565 0.64943 5.2917 0 4.2895-0.04021 4.6824-0.52917 5.1714-0.50251 0.50251-0.87904 0.52897-7.4745 0.52512-3.8199-2e-3 -7.0763-0.0915-7.2364-0.19844zm11.271-5.486v-1.9844h-8.2021v3.9688h8.2021zm-10.533-13.636c-0.5443-0.50709-0.57906-0.76994-0.57906-4.3786v-3.8391l2.2208-3.1492h5.86c7.253 0 6.8278-0.24918 6.9557 4.0767l0.08765 2.9644-3.0857 4.8586-5.4402 3e-3c-5.1116 3e-3 -5.4752-0.0293-6.0193-0.5362zm10.533-5.4211v-1.9918l-7.276 0.1472-0.05114 1.9182-0.05113 1.9182h7.3783zm12.376-0.84811c-0.05306-0.11152-0.05007-2.4991 0.0067-5.3058l0.10314-5.103 1.3606-0.91627c0.74831-0.50395 1.4324-0.91628 1.5201-0.91628 0.51056 0 0.65885 1.602 0.52458 5.6672-0.11257 3.4083-0.23257 4.5047-0.50287 4.5942-0.28525 0.0945-0.31819-0.22628-0.16761-1.6323 0.1234-1.1522 0.0937-1.7499-0.08695-1.7499-0.15089 0-0.35051 0.80367-0.4436 1.7859-0.25499 2.6906-0.33717 2.792-0.37539 0.46302-0.04494-2.7379-0.54598-2.1572-0.55176 0.63941-0.0021 1.0793-0.08063 1.8858-0.17422 1.7922s-0.14576-1.185-0.11593-2.4253c0.03484-1.4487-0.04623-2.2552-0.2267-2.2552-0.23458 0-0.46161 3.6746-0.30527 4.941 0.04519 0.36602-0.42436 0.71617-0.56474 0.42114zm-30.348-6.9307c-0.30784-0.19603-0.18696-0.51757 0.65316-1.7374 0.567-0.82325 1.1164-1.5497 1.221-1.6143 0.14233-0.088 6.3587-0.32496 9.643-0.36764 0.1603-2e-3 0.50585-0.79582 0.76789-1.7639 0.26204-0.96805 0.69643-1.9801 0.96531-2.249 0.65875-0.65875 1.9421-0.62313 2.6385 0.0732 0.46609 0.46609 0.5371 0.77119 0.41566 1.7859-0.08055 0.6731-0.22718 1.4322-0.32584 1.6868-0.16664 0.43012 0.15632 0.46387 4.5453 0.47496 3.4233 9e-3 4.9433 0.11204 5.5184 0.37538 0.74744 0.34225 0.65868 0.36471-1.5214 0.38494-2.9791 0.0277-3.0896 0.53177-0.13229 0.6039l2.1828 0.0532-2.1157 0.0914c-2.737 0.11817-3.3105 0.59591-0.7153 0.59591 1.0936 0 1.905 0.11269 1.905 0.26458 0 0.15287-0.83785 0.26459-1.9844 0.26459s-1.9844 0.11171-1.9844 0.26458c0 0.14959 0.757 0.26458 1.7418 0.26458 1.2759 0 1.7124 0.0885 1.6316 0.33073-0.08564 0.25702-2.8473 0.3449-12.391 0.39432-7.0385 0.0364-12.442-0.0391-12.659-0.17696z" fill="#fff" stroke-width=".26458"/>
</svg>
