<?xml version="1.0" encoding="UTF-8" standalone="no"?>
<svg
   xmlns:dc="http://purl.org/dc/elements/1.1/"
   xmlns:cc="http://creativecommons.org/ns#"
   xmlns:rdf="http://www.w3.org/1999/02/22-rdf-syntax-ns#"
   xmlns:svg="http://www.w3.org/2000/svg"
   xmlns="http://www.w3.org/2000/svg"
   width="400mm"
   height="80mm"
   viewBox="0 0 400 80"
   version="1.1"
   id="svg8">
  <defs
     id="defs2" />
  <metadata
     id="metadata5">
    <rdf:RDF>
      <cc:Work
         rdf:about="">
        <dc:format>image/svg+xml</dc:format>
        <dc:type
           rdf:resource="http://purl.org/dc/dcmitype/StillImage" />
        <dc:title></dc:title>
      </cc:Work>
    </rdf:RDF>
  </metadata>
  <g
     id="layer1">
    <path
       style="fill:#000000;stroke-width:0.264583"
       d="m 13.75833,67.752233 c -0.291042,-0.29104 -0.529167,-0.70195 -0.529167,-0.91313 0,-0.21117 0.846565,-3.51516 1.881255,-7.34218 5.45763,-20.18623 6.798493,-25.22086 6.734267,-25.28557 -0.0388,-0.0391 -1.458498,2.24518 -3.154879,5.07618 -1.949653,3.25367 -3.282858,5.21028 -3.623982,5.31855 -0.757175,0.24032 -1.836661,-0.52815 -1.836661,-1.30748 0,-0.34591 1.96383,-3.92755 4.364066,-7.95919 2.400236,-4.03164 4.315648,-7.4086 4.256473,-7.50435 -0.05918,-0.0957 -0.793051,-0.20449 -1.630833,-0.24165 -1.768445,-0.0784 -2.227206,-0.36644 -2.227206,-1.39816 0,-1.24684 0.79245,-1.5701 3.848945,-1.5701 h 2.672869 l 1.567739,-5.85538 c 1.314803,-4.91068 1.668705,-5.92197 2.19354,-6.26812 0.554802,-0.36591 0.70489,-0.36855 1.322916,-0.0232 0.411702,0.23002 0.724641,0.65688 0.764347,1.0426 0.03698,0.35921 -0.566148,2.97483 -1.340275,5.81248 l -1.407506,5.15938 2.293367,0.13229 c 2.635642,0.15204 3.232132,0.47613 3.112675,1.69122 -0.108172,1.10028 -0.952217,1.47507 -3.332792,1.47988 l -1.930219,0.004 0.141632,0.85989 c 0.0779,0.47295 0.383217,3.53881 0.678488,6.81303 0.29527,3.27421 0.603853,6.39528 0.685739,6.9357 0.260448,1.71885 -1.534319,2.87528 -2.554545,1.64599 -0.162936,-0.19633 -0.524309,-2.64437 -0.80305,-5.4401 -0.278741,-2.79573 -0.544854,-5.12119 -0.591363,-5.1677 -0.04651,-0.0465 -2.138375,7.56386 -4.648592,16.91192 -4.63283,17.25268 -4.857467,17.92252 -6.010518,17.92252 -0.20216,0 -0.605688,-0.23813 -0.89673,-0.52917 z m 12.633854,-0.0149 c -1.134305,-0.67607 -0.690244,-1.49164 7.082108,-13.00721 4.562723,-6.76016 7.767534,-11.26118 8.107791,-11.38705 0.79647,-0.29463 1.80958,0.42503 1.80958,1.28544 0,0.4398 -1.753864,3.28265 -5.011578,8.12329 -2.756369,4.0957 -4.970725,7.48758 -4.92079,7.53752 0.14632,0.14631 12.379989,3.78129 12.453205,3.7002 0.03662,-0.0406 -0.872776,-3.22629 -2.02088,-7.07942 -1.148101,-3.85313 -2.087457,-7.27343 -2.087457,-7.60068 0,-1.25569 2.031461,-1.76453 2.616661,-0.65542 0.390768,0.74061 5.320839,17.38708 5.320839,17.9659 0,0.67295 -0.596781,1.18663 -1.383321,1.1907 -0.330581,0.002 -4.168156,-1.08387 -8.527947,-2.41241 -4.359793,-1.32855 -8.038036,-2.37848 -8.173873,-2.33321 -0.13584,0.0453 -0.97405,1.1482 -1.86269,2.45094 -1.673014,2.45261 -2.312774,2.87039 -3.401648,2.2214 z m 83.318606,-0.46895 c -0.24083,-0.26613 -0.43788,-0.66507 -0.43788,-0.88653 0,-0.32309 5.21892,-19.07964 5.93152,-21.31765 l 0.18956,-0.59531 h -8.7134 c -8.414478,0 -8.737312,-0.0188 -9.410537,-0.54837 -0.383426,-0.3016 -0.69714,-0.71811 -0.69714,-0.92557 0,-0.20746 1.018866,-3.97905 2.264143,-8.38131 1.654494,-5.84891 2.410434,-8.1288 2.807434,-8.46714 0.49482,-0.42171 1.36538,-0.46302 9.75657,-0.46302 8.54662,0 9.22306,-0.0335 9.34856,-0.46303 0.46437,-1.58927 2.81516,-9.91762 3.06219,-10.84862 0.36922,-1.39154 1.22959,-2.04551 2.20379,-1.67512 0.37099,0.14105 0.7474,0.48605 0.83646,0.76666 0.0904,0.28477 -0.54207,3.00957 -1.43137,6.16672 -0.87632,3.11108 -1.59385,5.74581 -1.5945,5.85495 -6.6e-4,0.10914 4.16599,0.19844 9.25922,0.19844 8.90764,0 9.28058,0.0202 9.78958,0.52916 0.29105,0.29104 0.52917,0.6568 0.52917,0.81279 0,0.15599 -0.94321,3.34091 -2.09604,7.0776 -1.15282,3.73669 -2.29247,7.47899 -2.53257,8.31622 -0.25277,0.88144 -0.64395,1.63323 -0.92927,1.78593 -0.30116,0.16118 -4.18567,0.26371 -9.99056,0.26371 h -9.49782 l -0.27101,1.12448 c -1.02036,4.23362 -6.03636,21.32032 -6.36908,21.69583 -0.53209,0.60054 -1.45334,0.59098 -2.00702,-0.0208 z m 6.94536,-27.49584 c 1.30389,-4.42308 2.93551,-10.41676 2.93551,-10.78348 0,-0.3535 -0.98044,-0.39434 -7.9929,-0.3329 l -7.9929,0.07 -1.78888,6.21771 c -0.98388,3.41974 -1.79239,6.307 -1.79668,6.41614 -0.004,0.10914 3.61856,0.19844 8.05078,0.19844 h 8.05859 z m 19.27622,1.40842 c 0.18304,-0.18303 3.76003,-11.83308 3.76429,-12.26006 0.003,-0.26403 -1.76514,-0.31973 -8.39719,-0.26458 l -8.40052,0.0699 -1.76391,6.08542 c -0.97015,3.34698 -1.77382,6.25321 -1.78594,6.4583 -0.0187,0.31655 1.22208,0.34835 8.21215,0.21045 4.52879,-0.0893 8.2958,-0.22407 8.37112,-0.29939 z m -4.86092,25.90178 c -0.42274,-0.64517 -0.35489,-0.9838 1.86863,-9.32656 3.22228,-12.09021 2.99843,-11.38135 3.66055,-11.5915 0.31617,-0.10035 1.84737,-0.19553 3.40268,-0.21152 1.5553,-0.016 2.87744,-0.0886 2.93809,-0.16135 0.15869,-0.1904 6.28359,-22.31597 6.28359,-22.69884 0,-0.22871 -0.75001,-0.31991 -2.63083,-0.31991 -2.41869,0 -2.66404,-0.0474 -3.04271,-0.58804 -0.54434,-0.77716 -0.51954,-1.15638 0.11729,-1.79321 0.50945,-0.50944 0.88195,-0.52917 9.99375,-0.52917 h 9.46459 l 0.76649,-3.10885 c 0.79721,-3.23346 1.08676,-4.03439 1.57676,-4.36158 0.5415,-0.36156 1.39719,-0.2053 1.8964,0.34632 0.48707,0.53821 0.48213,0.60579 -0.25584,3.50201 -0.41388,1.62427 -0.81025,3.10372 -0.88084,3.28766 -0.10205,0.26593 1.93715,0.33444 9.95414,0.33444 9.72969,0 10.10099,0.0185 10.61164,0.52917 0.65911,0.65912 0.67576,1.37282 0.0453,1.94337 -0.39639,0.35873 -1.08703,0.43788 -3.82084,0.43788 -1.83535,0 -3.39755,0.098 -3.47157,0.21775 -0.12792,0.20697 -6.24665,22.42082 -6.24665,22.67823 0,0.0675 1.2341,0.12277 2.74244,0.12277 2.37383,0 2.83615,0.0737 3.43958,0.54837 0.38343,0.3016 0.69714,0.7392 0.69714,0.97244 0,0.39874 -3.66052,14.24061 -4.79204,18.12056 -0.29585,1.01446 -0.71879,1.88856 -0.98196,2.0294 -0.25425,0.13607 -1.47013,0.18383 -2.70195,0.10613 -2.37362,-0.14972 -2.90113,-0.43237 -2.90113,-1.55445 0,-0.85802 0.70074,-1.28897 2.33669,-1.43703 l 1.46167,-0.1323 1.92226,-7.10493 c 1.05724,-3.90772 2.00214,-7.46862 2.09977,-7.91312 l 0.1775,-0.80819 -19.14055,0.19032 c -10.5273,0.10467 -19.19155,0.24132 -19.25389,0.30366 -0.0623,0.0623 -1.16977,4.06787 -2.46096,8.90118 -1.29119,4.83331 -2.54116,9.00171 -2.77773,9.26311 -0.62018,0.68529 -1.57939,0.59647 -2.09747,-0.19422 z m 39.77271,-23.76674 c 0.35046,-1.28893 0.59295,-2.38777 0.53887,-2.44186 -0.0541,-0.0541 -5.44214,-0.13059 -11.97345,-0.17002 l -11.8751,-0.0717 -0.73646,2.51354 c -0.40506,1.38245 -0.73907,2.54451 -0.74225,2.58236 -0.003,0.0378 5.42954,0.0378 12.07271,0 l 12.07848,-0.0688 z m 2.3145,-8.43825 c 0.4054,-1.49159 0.79599,-2.92034 0.86798,-3.175 0.1233,-0.43611 -0.56828,-0.46302 -11.89512,-0.46302 h -12.02603 l -0.73708,2.71197 c -0.40539,1.49159 -0.79598,2.92034 -0.86798,3.175 -0.12329,0.43611 0.56829,0.46303 11.89512,0.46303 h 12.02603 z m 2.42203,-8.7974 c 0.32535,-1.16417 0.60061,-2.38456 0.61168,-2.71198 l 0.0201,-0.59531 h -11.87143 -11.87143 l -0.69627,2.50986 c -0.38296,1.38043 -0.69628,2.56642 -0.69628,2.63553 0,0.2175 4.31084,0.30568 14.27113,0.2919 l 9.64092,-0.0133 z m 104.08389,41.14271 c -0.68771,-0.68771 -0.66723,-1.12436 0.11578,-2.46642 0.69773,-1.19594 2.26547,-5.11513 2.26547,-5.66348 0,-0.24975 -0.67077,-0.33676 -2.59593,-0.33676 -2.24677,0 -2.67386,-0.0726 -3.175,-0.53948 -0.31848,-0.29671 -0.57907,-0.78463 -0.57907,-1.08426 0,-0.85115 3.17645,-12.19567 3.6014,-12.8622 0.41913,-0.65738 1.63147,-0.81284 2.16651,-0.27781 0.52547,0.52547 0.37727,1.48122 -1.00541,6.48367 -0.72761,2.63243 -1.32292,4.91751 -1.32292,5.07795 0,0.18621 0.70623,0.29171 1.95263,0.29171 h 1.95265 l 1.52299,-5.4901 c 0.83762,-3.01956 1.6881,-5.758 1.88992,-6.08542 0.50369,-0.81719 1.79038,-0.80845 2.33048,0.0158 0.37248,0.56851 0.24307,1.17292 -1.85547,8.6651 -2.73691,9.77119 -3.83847,12.72224 -5.29114,14.17491 -0.76475,0.76475 -1.27966,0.79 -1.97289,0.0968 z M 52.015797,66.931013 c -0.389205,-0.30615 -1.12875,-1.39283 -1.643431,-2.41485 -1.051197,-2.0874 -1.036703,-2.97267 0.05547,-3.38791 0.894691,-0.34016 1.563544,0.0422 2.181825,1.24739 l 0.491006,0.95706 2.726764,-3.9418 c 5.595104,-8.08826 5.658028,-8.16893 6.443337,-8.26039 0.402635,-0.0469 0.903457,0.057 1.112938,0.23083 0.905039,0.75112 0.437383,1.69214 -4.152106,8.35493 -2.49314,3.61941 -4.776081,6.84864 -5.073203,7.17606 -0.673441,0.74212 -1.235424,0.75226 -2.142598,0.0387 z m 163.792913,0.0728 c -0.52747,-0.58285 -0.57253,-1.72085 -0.0842,-2.12615 0.24073,-0.19979 3.34478,-0.31577 9.7186,-0.36312 l 9.36491,-0.0696 2.57491,-9.26042 c 1.41621,-5.09323 2.57924,-9.40924 2.58452,-9.59115 0.007,-0.25743 -1.74667,-0.33072 -7.91544,-0.33072 -8.22947,0 -9.10192,-0.10292 -9.42202,-1.11145 -0.0876,-0.27608 0.0319,-0.79379 0.2656,-1.15047 l 0.42492,-0.6485 h 8.8047 8.8047 l 1.91186,-6.94531 c 1.05151,-3.81993 1.90868,-7.07279 1.90482,-7.22859 -0.005,-0.19538 -1.82989,-0.2551 -5.88246,-0.19248 l -5.87543,0.0908 -0.79056,0.95908 c -1.01254,1.22838 -3.47362,2.82004 -5.03747,3.25789 -1.09077,0.3054 -1.27228,0.29155 -1.74128,-0.13289 -0.58703,-0.53125 -0.69759,-1.77784 -0.19285,-2.17432 0.1819,-0.14289 0.8917,-0.46956 1.57733,-0.72592 1.55094,-0.57992 3.24677,-2.00648 3.89279,-3.2747 0.58908,-1.15642 2.09839,-5.99123 3.06786,-9.8273 0.38615,-1.52797 0.75912,-2.98578 0.82882,-3.23958 0.34467,-1.25513 1.76938,-1.65317 2.60647,-0.7282 0.43591,0.48167 0.4487,0.66915 0.13991,2.05053 -0.26622,1.19091 -1.75761,6.53406 -2.843,10.18548 -0.12808,0.43091 0.25779,0.46302 5.563,0.46302 h 5.70062 l 0.39448,-1.38906 c 0.21696,-0.76398 1.01547,-3.62594 1.77446,-6.3599 1.46175,-5.26538 1.71108,-5.70208 3.06199,-5.36302 1.26496,0.31749 1.22071,1.00088 -0.45296,6.99545 -0.86098,3.08377 -1.56542,5.72153 -1.56542,5.86169 0,0.15772 3.01776,0.25484 7.9186,0.25484 8.58587,0 8.75015,0.0273 8.75015,1.45521 0,1.43453 -0.12976,1.45521 -9.13141,1.45521 -4.56492,0 -8.36248,0.10133 -8.43902,0.22517 -0.21834,0.35329 -3.86082,13.50318 -3.86082,13.93815 0,0.3332 1.1181,0.38876 7.8226,0.38876 4.82594,0 8.01633,0.10368 8.32831,0.27065 0.87899,0.47042 1.14251,1.26398 0.66284,1.99605 l -0.42178,0.64372 h -8.72011 -8.72011 l -0.1822,0.72596 c -0.10021,0.39927 -1.276,4.65576 -2.61286,9.45885 -1.33686,4.8031 -2.38121,8.8222 -2.32077,8.93134 0.0604,0.10914 4.02342,0.19843 8.80663,0.19843 7.55335,0 8.7514,0.0547 9.11251,0.41578 0.56627,0.56626 0.52221,1.32987 -0.11339,1.96547 -0.51961,0.51962 -0.88195,0.52917 -20.06733,0.52917 -18.59223,0 -19.55936,-0.0234 -19.97604,-0.48385 z m 53.41401,0.12642 c -0.69678,-0.50951 -0.59825,-1.38978 0.64008,-5.71745 0.59632,-2.08406 1.01192,-3.86173 0.92358,-3.95038 -0.0884,-0.0887 -2.53172,-0.19989 -5.4297,-0.24718 -5.04037,-0.0823 -5.28634,-0.11066 -5.66704,-0.65419 -0.53022,-0.75699 -0.50186,-1.14032 0.13119,-1.77336 0.3714,-0.3714 0.88194,-0.52917 1.7124,-0.52917 h 1.18323 l 0.39674,-1.38906 c 1.12407,-3.93566 10.20138,-37.33512 10.20138,-37.53545 0,-0.1286 -0.39291,-0.23382 -0.87313,-0.23382 -1.05537,0 -1.50812,-0.40073 -1.50812,-1.33483 0,-1.52819 0.2527,-1.57559 8.39973,-1.57559 4.0876,0 7.62944,0.0758 7.87077,0.16838 0.24132,0.0926 0.55189,0.46586 0.69014,0.82946 0.33795,0.88892 -0.3202,1.91258 -1.22971,1.91258 -0.43122,0 -0.75245,0.20697 -0.92398,0.59531 -0.14462,0.32742 -3.4168,11.96578 -7.27149,25.86302 -4.78411,17.24808 -7.1502,25.37268 -7.45487,25.59844 -0.57801,0.42831 -1.18123,0.41931 -1.7912,-0.0267 z m 3.92887,-17.51313 c 0.70792,-2.55277 1.24257,-4.68316 1.18809,-4.73422 -0.0545,-0.0511 -1.3993,-0.13531 -2.9885,-0.18725 l -2.88946,-0.0944 -1.27377,4.63021 c -0.70058,2.54662 -1.27556,4.71951 -1.27774,4.82865 -0.002,0.10914 1.33663,0.19844 2.97514,0.19844 h 2.9791 z m 2.13958,-8.04601 c 0.0857,-0.1386 0.92975,-3.02587 1.87574,-6.41615 0.94599,-3.39028 1.78515,-6.37636 1.86478,-6.63574 0.13412,-0.43673 -0.0857,-0.46607 -2.97264,-0.39688 l -3.11748,0.0747 -1.78742,6.48229 c -0.98309,3.56526 -1.79213,6.56537 -1.79787,6.66691 -0.0209,0.36804 5.71217,0.58524 5.93489,0.22485 z m 5.99448,-21.17926 c 0.70596,-2.54661 1.28487,-4.77903 1.28646,-4.96093 0.003,-0.24547 -0.77695,-0.33073 -3.02199,-0.33073 -2.65266,0 -3.0416,0.057 -3.16082,0.46302 -0.41291,1.40638 -2.54556,9.32934 -2.54556,9.4569 0,0.0831 1.38563,0.11749 3.07917,0.0765 l 3.07917,-0.0745 z m 64.19676,46.76511 c -0.42601,-0.32831 -0.55729,-0.73659 -0.4971,-1.54591 0.0172,-0.23179 3.85572,-4.10132 8.52993,-8.59896 l 8.4986,-8.17753 -2.34704,-0.17042 c -1.29085,-0.0937 -4.09469,-0.18303 -6.23073,-0.19844 -3.15134,-0.0227 -3.96211,-0.10642 -4.29948,-0.44379 -0.56909,-0.5691 -0.52197,-1.52277 0.10322,-2.08856 0.48995,-0.4434 1.38583,-0.45866 16.01533,-0.27269 15.32803,0.19484 15.50056,0.20301 15.88519,0.75213 0.52094,0.74373 0.49014,1.12983 -0.14034,1.76031 -0.50268,0.50267 -0.88193,0.52917 -7.57462,0.52917 h -7.04543 l -6.19085,5.9901 c -3.40495,3.29456 -6.14522,6.03573 -6.08944,6.09149 0.12425,0.12424 18.24082,3.2807 18.32822,3.19332 0.0343,-0.0343 -0.94518,-2.50293 -2.17665,-5.48583 -1.84531,-4.46983 -2.19202,-5.52685 -1.97181,-6.01147 0.31427,-0.69168 1.35483,-1.022 2.04647,-0.64964 0.58484,0.31486 5.9122,13.04786 5.91185,14.12999 -1.6e-4,0.46622 -0.22135,0.86638 -0.62515,1.13097 -0.57944,0.37967 -1.46021,0.26462 -12.10469,-1.58113 -6.31386,-1.09482 -11.70935,-1.99071 -11.98994,-1.99086 -0.28059,-1.5e-4 -1.42777,0.89269 -2.54931,1.9841 -2.03216,1.97761 -2.67203,2.28112 -3.48623,1.65365 z M 59.854702,66.811193 c -0.818972,-0.57363 -0.790942,-1.82423 0.05328,-2.37739 0.553556,-0.3627 1.593318,-0.4088 7.597709,-0.33683 l 6.956388,0.0834 4.430971,-15.7427 c 2.437035,-8.65849 5.465916,-19.43365 6.730844,-23.9448 1.264931,-4.51114 2.353668,-8.35091 2.419417,-8.53281 0.09351,-0.25871 -1.262267,-0.33073 -6.226366,-0.33073 -6.907533,0 -7.006016,-0.0211 -7.006016,-1.50153 0,-1.42615 -0.184081,-1.40888 15.024666,-1.40888 13.288605,0 14.087765,0.0267 14.501515,0.48385 0.48746,0.53864 0.559,1.2958 0.17928,1.8974 -0.20782,0.32924 -1.36717,0.41941 -6.803178,0.52916 l -6.55266,0.13229 -1.631908,5.82084 c -3.346172,11.93541 -11.758186,41.82077 -11.897206,42.26718 -0.134615,0.43228 0.285258,0.46303 6.323536,0.46303 7.040404,0 7.12783,0.0184 7.12783,1.50153 0,1.43087 0.246632,1.40888 -15.800551,1.40888 -13.002702,0 -14.912306,-0.051 -15.427556,-0.41188 z m 129.900588,0.23095 c -0.65027,-0.26015 -0.89619,-1.41796 -0.44685,-2.10375 0.37076,-0.56585 0.5999,-0.62574 2.39395,-0.62574 1.80391,0 2.00757,-0.054 2.24427,-0.59532 0.30193,-0.69043 3.16792,-11.1523 3.16792,-11.56398 0,-0.18575 -2.64684,-0.27612 -8.08719,-0.27612 -5.06873,0 -8.2782,-0.10223 -8.59896,-0.27389 -0.70773,-0.37877 -0.70773,-1.98387 0,-2.36264 0.32494,-0.17389 3.90698,-0.27389 9.81164,-0.27389 5.45819,0 9.26342,-0.0992 9.21166,-0.24017 -0.0485,-0.1321 -1.21853,-1.50132 -2.60005,-3.04271 l -2.51186,-2.80253 h -3.63971 c -3.28692,0 -3.69099,-0.0513 -4.16887,-0.52917 -0.63683,-0.63683 -0.66163,-1.01605 -0.11729,-1.79321 l 0.41188,-0.58804 h 14.21958 c 10.7069,0 14.29802,0.0784 14.53708,0.3175 0.52627,0.52627 0.3773,1.72728 -0.27053,2.18104 -0.45852,0.32115 -1.34055,0.41188 -4.00443,0.41188 h -3.41639 l -3.00703,1.74616 c -1.65387,0.96039 -3.00703,1.8781 -3.00703,2.03936 0,0.16127 0.42767,0.73118 0.95038,1.26649 l 0.95038,0.97327 6.69586,-0.14092 6.69587,-0.14093 0.68813,0.68813 c 0.8224,0.82241 0.83987,0.99524 0.18261,1.80735 l -0.50551,0.62463 -8.62261,0.0765 c -4.74244,0.0421 -8.62261,0.11447 -8.62261,0.16082 0,0.5131 -4.03482,14.60468 -4.25912,14.87495 -0.22574,0.272 -1.02466,0.36044 -3.11547,0.34491 -1.54653,-0.0115 -2.96839,-0.0835 -3.1597,-0.16004 z m 10.91604,-23.39313 c 0.51764,-0.30541 0.94116,-0.60307 0.94116,-0.66146 0,-0.0584 -0.73512,-0.10615 -1.63361,-0.10615 h -1.63363 l 0.62141,0.66145 c 0.34178,0.36381 0.65338,0.66146 0.69246,0.66146 0.0391,0 0.49457,-0.24988 1.01221,-0.5553 z m 111.81902,23.37254 c -9.4266,-0.0625 -10.48203,-0.11305 -10.93526,-0.52321 -0.33425,-0.30249 -0.45781,-0.67672 -0.37028,-1.1214 0.53694,-2.72808 6.13206,-22.18982 6.48454,-22.55555 0.40783,-0.42314 1.70741,-0.45835 17.6009,-0.47688 15.82579,-0.0184 17.1994,0.0151 17.65975,0.43174 0.27453,0.24846 0.49916,0.79662 0.49916,1.21814 0,0.42152 -1.18353,5.01674 -2.63006,10.2116 -1.44653,5.19486 -2.76966,10.04051 -2.94029,10.76811 -0.54576,2.32727 -0.41405,2.29183 -8.17023,2.19827 -3.72054,-0.0449 -11.45976,-0.11275 -17.19823,-0.15082 z m 22.70678,-3.83338 c 0.1516,-0.47295 1.0664,-3.7174 2.03287,-7.2099 0.9665,-3.4925 2.03131,-7.33323 2.36627,-8.53495 l 0.60902,-2.18495 -15.22518,0.0683 -15.22521,0.0683 -2.47409,8.99583 c -1.36075,4.94771 -2.4756,9.14466 -2.47746,9.32656 -0.003,0.26075 3.18339,0.33073 15.05736,0.33073 h 15.06075 z m -46.74839,3.45281 c -0.17462,-0.17463 -0.3175,-0.63527 -0.3175,-1.02364 0,-0.694 5.04066,-19.78864 5.60118,-21.21796 0.48244,-1.23023 2.32643,-1.21207 2.71965,0.0268 0.12071,0.38031 -1.90428,8.55701 -2.88226,11.63838 -0.17526,0.55216 -0.11039,0.57515 1.62121,0.57447 l 1.80377,-7.9e-4 1.65989,-5.99899 c 0.91294,-3.29944 1.79072,-6.15662 1.95064,-6.34929 0.48593,-0.58553 1.75143,-0.42631 2.21321,0.27845 0.38703,0.5907 0.29739,1.04326 -1.48048,7.47448 -1.04084,3.76515 -2.06099,7.03818 -2.267,7.27341 -0.31753,0.36259 -0.83195,0.40752 -3.3791,0.29512 -2.77781,-0.12259 -3.01559,-0.095 -3.15108,0.36605 -0.0806,0.27425 -0.46188,1.68926 -0.84728,3.14447 -0.38541,1.45521 -0.87108,2.91372 -1.07931,3.24114 -0.41807,0.65743 -1.63039,0.81296 -2.16554,0.27782 z m -149.27132,-3.90924 c -0.29467,-0.29467 -0.53214,-0.74412 -0.52771,-0.99878 0.0143,-0.82321 2.82551,-10.41387 3.14669,-10.73521 0.42003,-0.42023 28.35453,-0.59089 29.12613,-0.17794 0.28667,0.15342 0.58878,0.54815 0.67137,0.87719 0.16821,0.67021 -2.3452,10.68936 -2.79424,11.13863 -0.19653,0.19662 -4.79987,0.30919 -14.68636,0.35913 -14.15586,0.0715 -14.4092,0.0637 -14.93588,-0.46302 z m 27.3793,-2.69795 c 0.15928,-0.15936 1.6983,-5.88469 1.71248,-6.37062 0.003,-0.10914 -5.46306,-0.19844 -12.14721,-0.19844 -11.3465,0 -12.16196,0.0307 -12.28794,0.46302 -0.9676,3.32029 -1.75281,6.13514 -1.75281,6.2836 0,0.23656 24.23732,0.0607 24.47548,-0.17756 z M 34.902068,44.975133 c -0.404183,-0.40418 -0.507217,-0.74088 -0.384585,-1.25677 0.710308,-2.98809 8.177601,-29.99374 8.480168,-30.66873 0.308488,-0.68821 0.541017,-0.8599 1.164582,-0.8599 0.83534,0 1.61068,0.58721 1.61068,1.21987 0,0.21357 -0.547486,2.37796 -1.216638,4.80974 -0.669153,2.43179 -2.572801,9.36252 -4.230331,15.40164 -2.344489,8.54201 -3.138368,11.08302 -3.575172,11.44323 -0.734271,0.60551 -1.175374,0.58425 -1.848704,-0.0891 z m 12.517895,-1.03651 c -0.92307,-0.5628 -1.507813,-1.67223 -1.243676,-2.35962 0.08821,-0.22957 1.646181,-5.77521 3.462152,-12.32365 4.593571,-16.56453 4.48768,-16.23331 5.251048,-16.42491 0.921623,-0.23131 1.707803,0.0994 1.881505,0.7915 0.0922,0.36734 -1.304163,5.8188 -3.571262,13.94237 -2.047457,7.33654 -3.72265,13.48655 -3.72265,13.66667 0,0.24103 0.792525,0.3275 3.001701,0.3275 2.57198,0 3.064388,0.0693 3.439583,0.48385 0.581914,0.64301 0.55254,1.25358 -0.09128,1.8974 -0.47603,0.47603 -0.881187,0.52907 -4.034896,0.52818 -3.03703,-8e-4 -3.621574,-0.0716 -4.372221,-0.52929 z m 242.185377,-0.15008 c -0.22868,-0.22868 -0.41576,-0.75743 -0.41576,-1.17501 0,-0.41758 -0.11592,-0.83087 -0.25757,-0.91842 -0.14166,-0.0876 -2.00483,0.0454 -4.14039,0.29538 l -3.88284,0.45456 -0.48982,-0.60489 c -0.26937,-0.33269 -0.4898,-0.74897 -0.4898,-0.92507 0,-0.17609 1.4687,-2.51439 3.26377,-5.19621 1.79506,-2.68181 3.45972,-5.17917 3.69924,-5.54967 l 0.43548,-0.67365 -1.97945,-1.66476 c -1.24039,-1.04319 -1.97946,-1.86109 -1.97946,-2.19057 0,-0.54118 7.67588,-12.26335 8.4178,-12.85519 0.89109,-0.71083 2.23168,-0.0895 2.23168,1.03439 0,0.40908 -1.32802,2.65062 -3.47265,5.86141 -1.90998,2.85946 -3.47266,5.29695 -3.47266,5.41663 0,0.2772 1.81192,2.04369 1.93945,1.89084 0.0524,-0.0628 0.60558,-0.88811 1.22925,-1.834 1.31337,-1.9919 1.73265,-2.38125 2.56432,-2.38125 0.728,0 1.51977,1.09176 1.29815,1.79001 -0.0861,0.27115 -2.23824,3.57187 -4.78261,7.33494 -2.54436,3.76306 -4.57448,6.89358 -4.51135,6.95671 0.0631,0.0631 0.95527,0.0304 1.98254,-0.0728 l 1.86775,-0.18757 v -1.78421 c 0,-1.43598 0.1012,-1.87581 0.51851,-2.25347 0.61198,-0.55383 1.7196,-0.38172 2.08647,0.32421 0.13147,0.25294 0.3846,2.22369 0.56251,4.37944 0.29969,3.6318 0.28942,3.95714 -0.1401,4.43177 -0.56033,0.61913 -1.51553,0.66338 -2.08246,0.0965 z m 12.96459,0 c -0.22868,-0.22868 -0.41577,-0.70493 -0.41577,-1.05833 0,-0.76114 0.35055,-0.74212 -4.27487,-0.23193 -3.47978,0.38383 -3.75542,0.38115 -4.2219,-0.041 -0.27448,-0.2484 -0.49906,-0.68086 -0.49906,-0.96101 0,-0.28015 1.67396,-3.00534 3.71991,-6.05597 l 3.71993,-5.54661 -1.40483,-1.24491 c -2.37326,-2.10314 -2.86001,-2.64107 -2.86001,-3.16075 0,-0.65936 7.22275,-11.95955 8.06418,-12.61664 0.54121,-0.42262 0.76406,-0.45781 1.31358,-0.20744 1.4514,0.6613 1.24849,1.23759 -2.49074,7.07409 l -3.48652,5.44201 1.14403,1.03461 c 0.62921,0.56905 1.21584,1.03951 1.30363,1.04547 0.0878,0.006 0.71382,-0.82258 1.39118,-1.84123 1.05672,-1.58917 1.34123,-1.85208 2.00427,-1.85208 0.94692,0 1.68693,0.68619 1.54311,1.43082 -0.0588,0.30446 -2.16133,3.63063 -4.67225,7.39149 -2.51093,3.76087 -4.50255,6.90071 -4.42585,6.97742 0.0767,0.0767 0.93398,0.0544 1.90505,-0.0496 l 1.76557,-0.18907 -0.1302,-1.81975 c -0.0944,-1.31868 -0.0267,-1.96758 0.2458,-2.35658 0.44733,-0.63867 1.71801,-0.71837 2.19972,-0.13797 0.29022,0.34969 1.0347,5.91178 1.05081,7.85048 0.0111,1.34766 -1.55704,2.05622 -2.48877,1.12448 z M 64.190996,43.079833 c -0.699045,-1.09647 -4.964097,-14.73758 -4.784651,-15.30297 0.256717,-0.80885 1.376656,-1.14253 2.14499,-0.6391 0.34416,0.2255 0.625745,0.45489 0.625745,0.50975 0,0.0549 1.012031,3.23311 2.248958,7.06277 2.274414,7.04182 2.504935,8.07389 1.931459,8.64737 -0.535028,0.53502 -1.747399,0.37956 -2.166501,-0.27782 z m 297.891294,-3.89265 c -3.20146,-0.0782 -5.96967,-0.23857 -6.15157,-0.3563 -0.48186,-0.31186 -0.40452,-1.65874 0.12571,-2.18895 0.42299,-0.42299 1.2973,-0.44523 11.92948,-0.30348 10.37481,0.13832 11.52146,0.19679 11.97898,0.61084 0.6513,0.58942 0.64291,1.2972 -0.0233,1.96336 -0.50046,0.50045 -0.84143,0.52611 -6.28386,0.47297 -3.16507,-0.0309 -8.37406,-0.12021 -11.57552,-0.19844 z m -141.27307,-0.87682 c -0.34776,-0.53077 -0.34886,-0.77428 -0.009,-2.05052 0.21197,-0.79653 0.38681,-1.47881 0.38854,-1.51618 0.002,-0.0374 -8.29144,-0.0374 -18.42926,0 l -18.43239,0.0679 -0.41917,1.57774 c -0.31521,1.18645 -0.59206,1.67469 -1.11628,1.96864 -0.62518,0.35055 -0.76852,0.34411 -1.38907,-0.0625 -0.83681,-0.5483 -0.85049,-0.90979 -0.13428,-3.54709 0.77796,-2.86467 0.87766,-2.9453 3.75408,-3.03616 l 2.39483,-0.0756 2.0312,-7.46067 c 1.11715,-4.10337 2.21967,-7.74833 2.45003,-8.09991 0.26513,-0.40463 1.46327,-1.09664 3.2646,-1.88552 3.10221,-1.3586 3.88516,-1.36789 4.21592,-0.05 0.26954,1.07392 -0.25186,1.57524 -2.72862,2.62354 -2.22284,0.94083 -2.38695,1.06461 -2.67172,2.01507 -0.16688,0.55697 -0.30341,1.08816 -0.30341,1.18041 0,0.0923 1.25557,0.16775 2.79015,0.16775 2.60961,0 2.83218,0.042 3.43959,0.64943 0.77282,0.77282 0.79469,0.97153 0.18641,1.69388 -0.41695,0.49515 -0.78477,0.55529 -3.69674,0.60443 -1.77855,0.03 -3.335,0.12318 -3.45878,0.20705 -0.19608,0.13287 -1.11271,3.05174 -1.11271,3.54329 0,0.0996 1.48153,0.18108 3.29229,0.18108 3.10222,0 3.31607,0.034 3.70417,0.58804 0.54434,0.77716 0.51954,1.15638 -0.11729,1.79321 -0.47668,0.47668 -0.88195,0.52917 -4.08543,0.52917 -1.95594,0 -3.60636,0.0893 -3.66758,0.19844 -0.0612,0.10914 -0.18959,0.52586 -0.28524,0.92604 l -0.17392,0.7276 h 7.91609 7.91608 l -0.9325,-0.9325 -0.9325,-0.9325 -1.24702,0.80021 c -1.51115,0.9697 -2.24215,1.00925 -2.80403,0.1517 -0.578,-0.88214 -0.29074,-1.6099 0.96294,-2.43954 1.02054,-0.67536 1.29355,-1.22025 0.77269,-1.54216 -0.40619,-0.25104 -0.31407,-1.36792 0.15119,-1.83318 0.57861,-0.57862 1.42495,-0.51869 2.13822,0.15139 l 0.60371,0.56716 0.86855,-0.66139 c 1.38902,-1.05772 1.9512,-1.13412 2.71622,-0.3691 0.36622,0.36622 0.66586,0.80927 0.66586,0.98455 0,0.17528 -0.52771,0.80577 -1.1727,1.40109 l -1.17269,1.0824 0.64353,0.74235 c 0.81029,0.93474 0.80913,1.36506 -0.006,2.18009 l -0.64944,0.64943 h 4.212 c 3.89349,0 4.23271,-0.0387 4.48589,-0.51177 0.53413,-0.99803 0.35462,-1.07573 -2.48533,-1.07573 -2.15561,0 -2.85018,-0.091 -3.175,-0.41577 -0.50536,-0.50536 -0.54549,-1.79303 -0.0682,-2.18912 0.19751,-0.16392 1.76326,-0.32069 3.62681,-0.36313 l 3.27926,-0.0747 0.30128,-1.05833 c 0.1657,-0.58209 0.37874,-1.37524 0.4734,-1.76255 l 0.17213,-0.70422 -2.9029,-0.0895 c -2.55337,-0.0787 -2.9716,-0.15832 -3.47348,-0.66078 -0.73471,-0.73556 -0.50825,-1.85209 0.44953,-2.21624 0.36921,-0.14037 2.0784,-0.25522 3.79821,-0.25522 3.01907,0 3.13242,-0.0205 3.28645,-0.59532 0.2937,-1.09594 0.1762,-1.24422 -1.97783,-2.4958 -2.43559,-1.41517 -3.07601,-2.13833 -2.63065,-2.97049 0.68239,-1.27506 1.18666,-1.22402 4.14962,0.41994 3.30629,1.83445 3.80062,2.25386 3.80062,3.22458 0,0.40552 -0.7739,3.49914 -1.71979,6.87471 -0.94588,3.37558 -1.71979,6.32988 -1.71979,6.56513 0,0.37215 0.30806,0.41016 2.37067,0.29256 2.61277,-0.14897 3.45016,0.14304 3.45016,1.20311 0,0.85612 -1.22793,5.17228 -1.59853,5.61883 -0.4998,0.60222 -1.76728,0.47754 -2.22349,-0.21871 z m 92.72202,0.0731 c -0.65913,-0.65912 -0.67574,-1.37283 -0.0453,-1.94337 0.43625,-0.39478 1.74633,-0.43788 13.30854,-0.43788 9.622,0 12.904,0.0793 13.1422,0.3175 0.52626,0.52627 0.3773,1.72728 -0.27054,2.18104 -0.5121,0.35868 -2.20363,0.41187 -13.09687,0.41187 -12.15607,0 -12.52376,-0.0149 -13.03801,-0.52916 z m 73.5469,-0.71203 c -2.78305,-1.90356 -9.11162,-7.86827 -10.48756,-9.8846 -1.00229,-1.46877 -2.06669,-4.1227 -2.81609,-7.02164 -0.31642,-1.22402 -0.63603,-2.22548 -0.71025,-2.22548 -0.0742,0 -0.43063,0.55736 -0.79203,1.23859 -1.28638,2.42485 -3.68829,5.8283 -5.13228,7.27229 -2.38554,2.38554 -6.64988,5.04808 -13.89084,8.67308 -4.10982,2.05748 -4.74617,2.16324 -5.40866,0.89886 -0.23321,-0.44509 -0.43194,-0.5869 -0.55147,-0.39351 -0.10277,0.16629 -0.53298,0.30235 -0.956,0.30235 -0.95022,0 -4.38303,-2.80605 -7.7108,-6.30298 -2.50341,-2.63065 -3.82532,-4.97134 -5.68444,-10.06545 -0.97346,-2.66737 -1.01193,-2.72555 -1.40626,-2.12691 -1.48405,2.25298 -5.30609,7.09473 -6.70402,8.49259 -2.46607,2.46596 -7.97525,5.94947 -14.92834,9.43929 -2.53008,1.26987 -3.32436,1.35976 -3.92433,0.44413 -0.75356,-1.15008 -0.32221,-1.57876 3.71539,-3.6923 4.78099,-2.5027 9.06706,-5.04102 11.12821,-6.59044 2.38832,-1.79532 5.05849,-5.02299 8.57697,-10.36772 2.04634,-3.1085 2.222,-3.29698 3.07875,-3.30324 0.86595,-0.006 1.28037,0.69344 2.34796,3.9647 1.19986,3.67645 2.58485,7.11993 3.51177,8.73125 0.84896,1.47579 3.95221,4.71651 7.01357,7.32426 1.54101,1.31267 2.3151,2.15672 2.3151,2.52429 0,0.50183 0.0423,0.51574 0.46303,0.15242 0.25466,-0.21989 2.54661,-1.46406 5.09322,-2.76482 5.72527,-2.92435 9.67272,-5.36695 11.50779,-7.12077 1.77663,-1.69799 4.20622,-5.39071 6.24332,-9.48922 1.68177,-3.38364 2.22502,-4.01228 3.24586,-3.75607 0.78041,0.19588 1.03603,0.86531 1.62901,4.26637 0.59021,3.38522 1.53361,6.66929 2.41755,8.41572 1.22476,2.41972 2.9228,4.14539 10.3445,10.51283 1.02679,0.88093 1.13622,1.88228 0.27185,2.4877 -0.74464,0.52155 -0.99311,0.51665 -1.80048,-0.0356 z M 69.015025,26.422303 c -0.695976,-0.54382 -5.022668,-11.05375 -4.931405,-11.97884 0.09173,-0.92979 1.234953,-1.5126 2.010026,-1.02468 0.246983,0.15548 1.565968,2.88595 2.931078,6.06772 2.328646,5.42755 2.458927,5.82637 2.108322,6.45402 -0.424524,0.75999 -1.460413,0.99562 -2.118021,0.48178 z m 133.299935,-3.60393 c -0.65565,-0.72448 -0.53924,-1.25451 0.53719,-2.44599 0.96497,-1.06811 0.97034,-1.08661 0.51817,-1.7867 -0.2513,-0.38907 -0.64908,-1.08698 -0.88396,-1.5509 -0.39491,-0.77999 -0.39363,-0.89451 0.0171,-1.52135 0.28251,-0.43116 0.68728,-0.67787 1.11215,-0.67787 0.69916,0 1.83081,1.01044 2.1073,1.88159 0.23442,0.7386 0.56656,0.6256 2.0309,-0.69096 0.72834,-0.65485 1.52675,-1.19063 1.77424,-1.19063 0.62906,0 1.25763,0.54804 1.47855,1.28913 0.15865,0.53224 -0.0651,0.86768 -1.47174,2.20618 l -1.65885,1.5785 0.44012,0.74507 c 0.57627,0.97554 0.55531,1.47427 -0.089,2.11862 -0.70229,0.7023 -1.20893,0.66722 -2.01571,-0.13957 l -0.66873,-0.66873 -0.79475,0.66873 c -0.93778,0.78909 -1.82511,0.85652 -2.43293,0.18488 z"
       id="path24" />
  </g>
</svg>
