<?xml version="1.0" encoding="UTF-8" standalone="no"?>
<svg
   xmlns:dc="http://purl.org/dc/elements/1.1/"
   xmlns:cc="http://creativecommons.org/ns#"
   xmlns:rdf="http://www.w3.org/1999/02/22-rdf-syntax-ns#"
   xmlns:svg="http://www.w3.org/2000/svg"
   xmlns="http://www.w3.org/2000/svg"
   id="svg10"
   viewBox="0 0 100.55 100.55"
   version="1.1"
   height="100.55mm"
   width="100.55mm">
  <defs
     id="defs14" />
  <title
     id="title2">Chukoren-Matsue-Logo-Mark-1.0</title>
  <metadata
     id="metadata4">
    <rdf:RDF>
      <cc:Work
         rdf:about="">
        <dc:format>image/svg+xml</dc:format>
        <dc:type
           rdf:resource="http://purl.org/dc/dcmitype/StillImage" />
        <dc:title>Chukoren-Matsue-Logo-Mark-1.0</dc:title>
        <cc:license
           rdf:resource="http://creativecommons.org/licenses/by-sa/4.0/" />
        <dc:date>2020.08.5</dc:date>
        <dc:creator>
          <cc:Agent>
            <dc:title>Kanan/Pineko</dc:title>
          </cc:Agent>
        </dc:creator>
      </cc:Work>
      <cc:License
         rdf:about="http://creativecommons.org/licenses/by-sa/4.0/">
        <cc:permits
           rdf:resource="http://creativecommons.org/ns#Reproduction" />
        <cc:permits
           rdf:resource="http://creativecommons.org/ns#Distribution" />
        <cc:requires
           rdf:resource="http://creativecommons.org/ns#Notice" />
        <cc:requires
           rdf:resource="http://creativecommons.org/ns#Attribution" />
        <cc:permits
           rdf:resource="http://creativecommons.org/ns#DerivativeWorks" />
        <cc:requires
           rdf:resource="http://creativecommons.org/ns#ShareAlike" />
      </cc:License>
    </rdf:RDF>
  </metadata>
  <path
     id="path30"
     d="M 0,50.513476 V 0 h 50.50038 50.50038 V 50.513476 101.02695 H 50.50038 0 Z m 60.46422,20.743747 0.93361,-1.854383 -0.0015,-6.453754 c -0.0015,-6.608771 -0.194174,-8.259894 -1.000426,-8.573974 -0.25297,-0.09854 -5.427834,-0.248409 -11.499697,-0.333033 l -11.039755,-0.153855 -1.518892,2.545924 -1.518894,2.545924 0.03144,5.935862 c 0.0173,3.264724 0.117494,6.294775 0.222672,6.733444 l 0.191223,0.797582 0.174049,-0.664651 c 0.09573,-0.365558 0.212123,-1.382475 0.258655,-2.259813 0.06657,-1.254979 0.09533,-1.102407 0.134865,0.715424 0.04769,2.192679 0.33432,3.104775 0.686884,2.185769 0.08842,-0.230456 0.162577,-1.276592 0.164815,-2.324752 0.0021,-1.048158 0.13061,-2.0852 0.285269,-2.304535 0.202983,-0.287865 0.248098,0.285256 0.162197,2.060418 -0.06545,1.352565 -0.03933,2.45921 0.05805,2.45921 0.09738,0 0.500986,-0.660656 0.8969,-1.468122 0.713085,-1.454325 0.719849,-1.52054 0.719849,-7.045301 l 1.11e-4,-5.577179 h 9.169806 9.169807 v 5.450139 c 0,3.456185 -0.09724,5.450138 -0.265792,5.450138 -0.146185,0 -0.265791,0.119637 -0.265791,0.26586 0,0.146223 0.358818,0.26586 0.797374,0.26586 0.438556,0 0.797374,0.119638 0.797374,0.265861 0,0.146223 -0.411562,0.26586 -0.914583,0.26586 -0.503021,0 -0.986338,0.116129 -1.074037,0.258066 -0.160373,0.25956 0.38035,0.442014 1.855725,0.626176 0.459978,0.05741 0.213568,0.116389 -0.582345,0.139366 -2.26892,0.06551 -2.077163,0.625282 0.316554,0.924075 0.438555,0.05474 0.116702,0.117453 -0.71524,0.139367 -1.489427,0.03923 -2.263632,0.414593 -1.347898,0.653524 0.257614,0.06721 1.214423,0.136089 2.126244,0.153051 l 1.657855,0.03083 z m 27.632366,0.811404 c -0.138879,-0.134972 -0.611323,-0.289774 -1.04988,-0.344005 -0.745252,-0.09215 -0.719187,-0.117701 0.398691,-0.390774 L 88.641459,71.04167 87.445397,70.977 c -0.69734,-0.03771 -0.918999,-0.107195 -0.53158,-0.166636 2.08297,-0.319624 2.392679,-0.407219 2.250928,-0.636645 -0.08578,-0.138836 -0.776847,-0.272539 -1.535687,-0.297118 -1.206613,-0.03908 -1.246337,-0.05632 -0.316562,-0.137331 0.58475,-0.05095 1.362188,-0.164182 1.727642,-0.251631 0.623907,-0.149286 0.632024,-0.172227 0.132901,-0.375706 -0.292375,-0.11919 -1.548235,-0.22616 -2.790814,-0.237708 -1.242568,-0.01158 -2.887159,-0.09644 -3.654624,-0.188647 l -1.395413,-0.167652 0.0169,-1.092875 c 0.01583,-1.027545 0.0345,-1.053145 0.311882,-0.428224 0.294349,0.663098 0.295294,0.663256 0.400322,0.06647 0.09145,-0.519606 0.268709,-0.598572 1.349309,-0.601114 2.79059,-0.0066 4.601154,-0.762429 1.974953,-0.824488 l -1.262512,-0.02983 1.461852,-0.339121 1.461852,-0.339122 -1.328951,-0.05082 c -1.492419,-0.05708 -1.380148,-0.154361 0.465129,-0.403026 1.743995,-0.235013 1.584368,-0.660884 -0.26579,-0.709105 -0.840568,-0.02191 -1.169477,-0.08266 -0.73092,-0.135001 2.558368,-0.305338 3.097593,-0.421312 2.889321,-0.621425 -0.127277,-0.122288 -1.447662,-0.262339 -2.934184,-0.311227 -1.486523,-0.04888 -2.769712,-0.156094 -2.851535,-0.238238 -0.08176,-0.08214 -0.181226,-0.439461 -0.220927,-0.794037 -0.06853,-0.612596 0.02021,-0.653987 1.78301,-0.831572 1.020353,-0.102786 1.896403,-0.310528 1.946761,-0.461645 0.05033,-0.151118 0.750995,-1.368902 1.556979,-2.706188 l 1.465408,-2.431428 -0.0898,-7.903754 c -0.06605,-5.811448 -0.177552,-8.009457 -0.421365,-8.303063 -0.239642,-0.288591 -1.156905,-0.449446 -3.308122,-0.580136 -1.637111,-0.09945 -3.027645,-0.231939 -3.09009,-0.294406 -0.0625,-0.06246 -0.04277,-0.298189 0.04384,-0.523829 0.109884,-0.286542 0.540619,-0.415892 1.428248,-0.428945 1.475936,-0.0217 2.576918,-0.365529 1.935324,-0.604391 -0.219273,-0.08163 -0.697695,-0.19453 -1.063161,-0.250874 -0.520545,-0.08025 -0.405402,-0.154213 0.53158,-0.341442 l 1.196062,-0.238998 -1.196062,-0.163384 c -1.160296,-0.158498 -1.166901,-0.164579 -0.22108,-0.203317 1.433731,-0.05871 1.89944,-0.283473 1.524273,-0.735628 C 85.847696,34.370866 85.897227,34.296 86.334012,34.296 c 0.694681,0 0.977025,-0.42439 0.423657,-0.636794 -0.230391,-0.08844 -1.395862,-0.161234 -2.589939,-0.161782 -1.700644,-7.98e-4 -2.359595,-0.115988 -3.041292,-0.531721 -1.089946,-0.664717 -1.580397,-0.664528 -2.585035,0.0011 -0.645837,0.427828 -1.252009,0.528993 -3.189502,0.532295 l -2.392123,0.004 -1.03537,1.607347 c -0.751299,1.166342 -0.955371,1.687368 -0.74379,1.899003 0.16516,0.165203 1.737674,0.347379 3.626838,0.420174 2.378942,0.09166 3.335255,0.221611 3.335255,0.453192 0,0.21425 -0.73489,0.385976 -2.160796,0.504924 -1.188439,0.09913 -2.365255,0.289699 -2.615149,0.423475 -0.249895,0.133774 -0.952023,0.888464 -1.560284,1.677087 l -1.105931,1.433865 0.01672,6.754883 c 0.01974,7.9722 0.249327,10.989617 0.884604,11.626068 0.352729,0.353382 1.078247,0.464581 3.493019,0.535366 l 3.04782,0.08928 v 0.774701 0.774705 h -2.11171 -2.111705 l -1.077792,1.505511 c -1.385292,1.935038 -1.378725,2.216109 0.05182,2.218127 0.621287,7.97e-4 2.110072,0.07794 3.30841,0.171257 l 2.178794,0.169664 0.08046,0.82572 c 0.10244,1.051619 0.554999,1.068 0.777308,0.02814 0.16114,-0.753754 0.172234,-0.740512 0.201951,0.241 l 0.03143,1.038578 -4.431188,-0.166623 -4.431195,-0.166622 -0.905796,-0.871959 -0.905797,-0.871955 0.08761,-9.767534 c 0.07131,-7.950061 0.02174,-9.792797 -0.26637,-9.9033 -0.194687,-0.07467 -1.045167,-0.135767 -1.889955,-0.135767 h -1.536022 l -0.834404,1.565913 c -0.458924,0.861251 -0.834407,1.701703 -0.834407,1.867669 0,0.165966 0.377435,0.377263 0.838745,0.469549 l 0.838742,0.167793 -0.182639,7.983937 -0.182639,7.983936 -1.337997,1.415101 c -1.531065,1.619298 -1.646344,2.465812 -0.456276,3.350559 0.620527,0.461326 0.817166,0.488074 1.502047,0.204313 0.433429,-0.179577 1.059926,-0.61598 1.392218,-0.969781 0.791503,-0.842735 1.011329,-0.816109 2.288255,0.277178 1.047325,0.896702 1.142848,0.922703 3.702475,1.007799 6.401622,0.212825 16.406818,0.183883 16.169491,-0.04677 z m -7.755165,-4.540085 c 0,-0.658005 0.05187,-0.927188 0.115201,-0.598186 0.06333,0.329002 0.06333,0.86737 0,1.196372 -0.06333,0.329002 -0.115201,0.05981 -0.115201,-0.598186 z M 74.687405,54.501383 v -2.658604 h 1.727644 1.727645 v 2.658604 2.658604 h -1.727645 -1.727644 z m 7.176375,0 v -2.658604 h 1.594741 1.594753 v 2.658604 2.658604 H 83.458521 81.86378 Z m -7.176375,-9.438045 c 0,-3.43451 -0.168087,-3.216028 2.222126,-2.888329 l 1.233163,0.16907 v 2.888325 2.888329 h -1.727645 -1.727644 z m 7.176375,0 c 0,-3.433956 -0.12463,-3.269894 2.192772,-2.886752 l 0.996722,0.164789 v 2.889678 2.88968 H 83.458521 81.86378 Z M 17.686443,70.386542 c 0.248996,-0.767673 0.575227,-1.515405 0.724958,-1.661628 0.184136,-0.17982 0.221615,-0.121402 0.115816,0.180517 -0.372042,1.061628 -0.50071,2.345157 -0.235091,2.345157 0.303666,0 0.458686,-0.4111 0.727929,-1.930425 0.09746,-0.549952 0.2998,-1.075704 0.449647,-1.168337 0.178901,-0.110599 0.210052,0.16427 0.09072,0.800515 -0.103079,0.549606 -0.0749,0.968945 0.0651,0.968945 0.284329,0 0.565712,-0.904654 0.570997,-1.835764 0.0035,-0.617365 0.02151,-0.623206 0.522661,-0.169551 0.500111,0.452712 0.524386,0.446945 0.665936,-0.158191 0.144102,-0.616046 1.472948,-8.838914 1.472948,-9.114571 0,-0.07724 1.874433,-0.173366 4.165407,-0.213635 l 4.165406,-0.07322 1.156156,-1.861024 1.156154,-1.861023 -0.07218,-4.047456 c -0.0949,-5.321964 0.0527,-5.152904 -4.686183,-5.367389 -1.89726,-0.08587 -3.503245,-0.215948 -3.568856,-0.289059 -0.06561,-0.07311 0.217755,-2.226581 0.629706,-4.785487 0.978598,-6.078739 0.987337,-6.972942 0.07515,-7.690656 -0.900029,-0.708146 -1.49858,-0.696065 -2.336762,0.04717 -0.575831,0.510601 -0.769241,1.123689 -1.320961,4.187302 -0.355497,1.974013 -0.793283,4.546212 -0.97286,5.715998 -0.179577,1.169786 -0.443703,2.27643 -0.586946,2.459209 -0.180137,0.229857 -1.160086,0.332326 -3.178182,0.332326 h -2.91774 l -0.845534,0.864048 c -0.465043,0.475225 -1.36028,1.725505 -1.989416,2.778397 l -1.143886,1.914352 0.08901,3.196806 c 0.120627,4.332459 0.09701,4.309382 4.588457,4.48245 1.83777,0.07082 3.341399,0.217559 3.341399,0.326096 0,0.108542 -0.35848,2.634676 -0.796625,5.61364 -0.738572,5.02159 -0.959891,7.410253 -0.686588,7.410253 0.06135,0 0.315258,-0.628096 0.564254,-1.395767 z M 14.884322,51.842779 v -2.392744 h 2.657915 c 1.461853,0 2.657915,0.05393 2.657915,0.119845 0,0.06591 -0.111834,0.69401 -0.248526,1.395767 -0.136689,0.701757 -0.321519,1.724562 -0.410732,2.272898 l -0.162204,0.996977 h -2.247184 -2.247184 z m 8.777616,1.794557 c 0.0057,-0.525864 0.165648,-1.388806 0.665197,-3.589115 0.12912,-0.568726 0.25991,-0.598186 2.655763,-0.598186 h 2.519955 v 2.392744 2.392743 h -2.923706 c -2.856723,0 -2.923557,-0.0137 -2.917209,-0.598186 z m 31.420916,16.94242 C 55.889105,70.263022 56.1381,68.660935 56.04104,64.414519 55.95353,60.585893 55.918075,60.359167 55.304745,59.706597 L 54.660381,59.021009 H 47.842466 41.02455 l -0.644364,0.686826 c -0.630263,0.671801 -0.644361,0.786674 -0.644361,5.250743 0,3.194497 0.100964,4.740531 0.336468,5.152527 0.303548,0.531025 0.589587,0.598967 2.923707,0.694476 3.551436,0.145321 11.52113,-0.0035 12.086854,-0.225825 z M 43.855593,65.135799 v -1.861023 h 3.986873 3.986872 v 1.861023 1.861022 h -3.986872 -3.986873 z m 10.6424,-15.61211 1.657393,-2.58495 -0.153372,-2.908048 c -0.22289,-4.226143 0.173205,-3.999841 -7.169674,-4.096286 l -5.907017,-0.07759 -1.129614,1.674221 -1.129613,1.674222 v 3.508668 c 0,2.115202 0.123656,3.780137 0.311359,4.192204 0.453075,0.994656 1.166843,1.106243 7.437089,1.162675 l 4.426056,0.03983 z M 44.652967,45.99385 v -1.861023 h 3.588185 3.588186 v 1.861023 1.861023 h -3.588186 -3.588185 z m 20.480916,-3.610345 0.14787,-2.637375 0.05147,2.34197 c 0.06242,2.83969 0.558795,2.91916 0.634271,0.101545 l 0.05121,-1.911797 0.09457,1.669354 c 0.100787,1.779069 0.577765,2.062446 0.631829,0.375374 0.0173,-0.539708 0.132157,-1.340197 0.255243,-1.778866 0.15356,-0.547267 0.180278,-0.267433 0.08513,0.891642 -0.108372,1.320138 -0.0625,1.664028 0.209893,1.573906 0.46922,-0.155238 0.69597,-2.056504 0.723961,-6.070315 0.01664,-2.387106 -0.07731,-3.476516 -0.329606,-3.82164 -0.332895,-0.455379 -0.43833,-0.425994 -1.860541,0.518548 l -1.507649,1.00128 v 5.301722 c 0,4.122724 0.07388,5.277295 0.33224,5.191874 0.22205,-0.07342 0.381281,-0.984548 0.480107,-2.747224 z m -6.548602,-4.260982 c 0.867968,-0.333155 0.369148,-0.637544 -1.107874,-0.67604 -0.840566,-0.02191 -1.169483,-0.08266 -0.730927,-0.135001 2.542271,-0.303416 3.051861,-0.415336 2.913165,-0.63981 -0.08455,-0.136838 -0.894208,-0.264964 -1.799238,-0.284722 l -1.64551,-0.03593 1.860541,-0.331361 1.860539,-0.331358 -1.727644,-0.07406 c -1.003195,-0.043 -1.337555,-0.11236 -0.797374,-0.165403 2.902458,-0.28501 3.322754,-0.391997 2.780165,-0.707697 -0.309734,-0.180215 -2.460601,-0.358844 -5.305184,-0.440596 -2.95687,-0.08498 -4.770907,-0.239043 -4.749319,-0.403356 0.01921,-0.146223 0.115993,-0.83249 0.21508,-1.525038 0.160023,-1.118478 0.105501,-1.333859 -0.487982,-1.927489 -1.391724,-1.392088 -2.74853,-0.657616 -3.676709,1.990295 l -0.605755,1.728092 -4.916491,0.229941 -4.916489,0.22994 -0.99638,1.352546 c -1.832284,2.487255 -2.700646,2.30841 11.208291,2.30841 6.71257,0 12.393862,-0.07261 12.625095,-0.161375 z"
     style="fill:#345189;fill-opacity:1;stroke-width:0.265826" />
</svg>
