<?xml version="1.0" encoding="UTF-8" standalone="no"?>
<svg
   xmlns:dc="http://purl.org/dc/elements/1.1/"
   xmlns:cc="http://creativecommons.org/ns#"
   xmlns:rdf="http://www.w3.org/1999/02/22-rdf-syntax-ns#"
   xmlns:svg="http://www.w3.org/2000/svg"
   xmlns="http://www.w3.org/2000/svg"
   id="svg8"
   version="1.1"
   viewBox="0 0 475 250"
   height="250mm"
   width="475mm">
  <defs
     id="defs2" />
  <metadata
     id="metadata5">
    <rdf:RDF>
      <cc:Work
         rdf:about="">
        <dc:format>image/svg+xml</dc:format>
        <dc:type
           rdf:resource="http://purl.org/dc/dcmitype/StillImage" />
        <dc:title></dc:title>
      </cc:Work>
    </rdf:RDF>
  </metadata>
  <g
     id="layer1">
    <path
       id="path24"
       d="m 187.86206,176.80045 c -3.58049,-1.26871 -8.62133,-5.69396 -10.35334,-9.08899 -4.51959,-8.85912 -2.24995,-20.87504 4.98542,-26.39372 5.7443,-4.38139 14.01503,-5.59608 20.80517,-3.05557 1.98566,0.74294 4.30927,2.09482 5.16358,3.00418 l 1.55328,1.6534 -1.61059,1.34118 c -1.82548,1.52013 -3.00076,1.72638 -3.66971,0.64398 -0.84573,-1.36841 -5.97602,-3.26016 -8.88178,-3.27506 -5.4401,-0.0279 -10.29792,3.07588 -13.12317,8.38471 -1.0599,1.99161 -1.43558,3.91087 -1.45037,7.40947 -0.0253,5.98294 2.06823,10.44771 6.29025,13.41507 2.60367,1.82993 3.37561,2.02202 8.12567,2.02202 4.91617,0 5.42083,-0.13835 7.9662,-2.18386 3.16637,-2.54455 3.29472,-2.56347 5.41487,-0.79796 l 1.61058,1.34119 -1.55667,1.657 c -0.85616,0.91135 -3.07661,2.41442 -4.93432,3.34016 -2.75434,1.37254 -4.31433,1.67337 -8.45339,1.63011 -2.79165,-0.0292 -6.33842,-0.50047 -7.88168,-1.04731 z m 72.41055,-0.0766 c -4.03286,-2.06467 -4.7607,-4.47709 -4.7607,-15.77948 v -9.92186 h 2.35186 2.35185 l 0.0161,7.22354 c 0.0253,11.39777 1.4309,14.96746 5.94418,15.09578 5.6495,0.16063 7.47891,-3.41198 7.47891,-14.60541 v -7.71391 h 2.68783 2.68783 v 13.10317 13.10318 h -2.29846 c -2.02124,0 -2.35334,-0.24987 -2.75348,-2.07167 -0.45499,-2.07159 -0.45505,-2.07161 -1.48512,-0.60098 -2.23812,3.19537 -8.16122,4.24596 -12.22076,2.16764 z m 75.28908,-0.58552 c -4.47199,-2.22849 -6.75409,-5.52539 -7.26742,-10.49908 -0.91693,-8.88421 4.89028,-15.25919 13.90018,-15.25919 8.92378,0 14.70342,6.25807 13.96816,15.12439 -0.40628,4.89915 -2.80478,8.37618 -7.3354,10.63388 -4.65685,2.32061 -8.60866,2.32061 -13.26552,0 z m 11.20056,-4.0656 c 5.52884,-3.4538 5.42339,-12.87103 -0.18294,-16.33593 -5.90847,-3.65163 -13.12031,0.9413 -13.12031,8.35582 0,7.32522 7.32126,11.71697 13.30325,7.98011 z m 62.92789,4.15966 c -3.9185,-1.96698 -6.11168,-4.91532 -6.93514,-9.32305 -1.71023,-9.15443 4.29855,-16.57528 13.39896,-16.54773 6.96868,0.0211 11.67445,4.56753 12.15991,11.7482 l 0.22714,3.35979 -10.56026,0.18494 -10.56025,0.18493 0.69565,1.82971 c 2.28048,5.99812 9.82364,7.78994 14.45954,3.43475 l 1.63429,-1.53534 1.72879,1.72878 1.72878,1.72878 -2.2511,1.67258 c -4.86215,3.61259 -10.49119,4.16155 -15.72631,1.53366 z m 13.81119,-14.81612 c 0,-0.19665 -0.42163,-1.36666 -0.93696,-2.60001 -1.25503,-3.00373 -3.47701,-4.43396 -6.88851,-4.43396 -3.31492,0 -6.43125,2.22703 -7.53105,5.38192 l -0.70055,2.00961 h 8.02853 c 4.4157,0 8.02854,-0.1609 8.02854,-0.35756 z m -203.60317,-5.35409 v -21.16666 h 2.35185 2.35185 v 9.80311 9.80313 l 2.06766,-1.73983 c 2.55725,-2.15178 4.53363,-2.67524 8.43875,-2.23507 3.83606,0.43238 6.571,2.92635 7.57304,6.90578 0.40445,1.60623 0.73537,6.71747 0.73537,11.35832 v 8.43789 h -2.68783 -2.68783 v -8.76882 c 0,-9.36282 -0.6648,-11.96347 -3.43751,-13.44737 -1.96008,-1.04901 -5.46728,-0.24406 -7.26247,1.66682 -2.04147,2.17305 -2.70414,5.49764 -2.72315,13.6618 l -0.016,6.88757 h -2.35185 -2.35185 z m 71.89947,1.34392 v -19.82275 h 2.68783 2.68783 v 8.8941 8.8941 l 8.91245,-8.8941 8.91244,-8.8941 3.68677,0.021 3.68675,0.021 -9.65061,9.21841 -9.65062,9.2184 1.49577,1.34392 c 0.82267,0.73915 5.42685,5.50165 10.23151,10.58333 l 8.73573,9.23942 -3.94068,-0.004 -3.94067,-0.004 -9.07143,-10.06465 -9.07143,-10.06465 -0.1855,10.0685 -0.18548,10.0685 h -2.67034 -2.67032 v -19.82275 z m 75.4171,0.16799 0.17814,-19.65476 h 8.39947 c 9.65411,0 13.8288,1.14022 16.1597,4.41367 4.04996,5.68764 1.34521,14.25659 -5.05124,16.00287 -1.12037,0.30587 -1.96191,0.90075 -1.87009,1.32196 0.0918,0.42121 2.32793,4.32022 4.96911,8.66446 2.64118,4.34424 4.92735,8.12541 5.08038,8.40259 0.15302,0.27718 -1.19095,0.50397 -2.9866,0.50397 h -3.26483 l -4.97294,-8.73545 -4.97295,-8.73545 h -2.88919 -2.88918 v 8.73545 8.73545 h -3.03396 -3.03396 z m 17.29944,-3.69681 c 3.08954,-1.55239 4.55274,-4.17314 3.68719,-6.60416 -1.14758,-3.22316 -3.69922,-4.49895 -9.69204,-4.84587 l -5.40481,-0.31287 v 6.46993 6.46994 l 4.53571,-0.001 c 2.97687,-6.7e-4 5.33933,-0.40483 6.87395,-1.17592 z m 55.11414,13.36599 c 0,-5.49207 -0.19229,-11.38849 -0.42731,-13.10318 l -0.42732,-3.11759 h 2.77917 c 2.68263,0 2.77917,0.0752 2.77917,2.16539 0,2.15382 0.005,2.15739 1.04872,0.66811 2.47428,-3.53251 8.87227,-4.62129 12.86177,-2.18874 3.74495,2.28342 4.4431,4.57198 4.77431,15.65021 l 0.29632,9.91138 h -2.77098 -2.77099 l -10e-4,-8.56746 c -6.8e-4,-6.8131 -0.24163,-9.04758 -1.17593,-10.91211 -1.31077,-2.61582 -3.75829,-3.79187 -6.47327,-3.11045 -4.37739,1.09866 -5.7797,4.82345 -5.78517,15.36647 l -0.003,7.22355 h -2.35185 -2.35186 z M 258.8717,141.95107 v -1.67989 h 8.06349 8.0635 v 1.67989 1.6799 h -8.0635 -8.06349 z m 75.25926,0 v -1.67989 h 8.06349 8.0635 v 1.67989 1.6799 h -8.0635 -8.06349 z M 141.27911,42.083078 c 0,-6.567203 -0.12227,-7.372343 -1.00794,-6.637302 -0.79891,0.663041 -1.21477,0.664855 -2.00531,0.0088 -0.85993,-0.713687 -0.67398,-1.20556 1.34945,-3.56948 1.29075,-1.507953 2.8735,-3.886119 3.51721,-5.284819 1.26595,-2.750686 1.39246,-2.842334 2.74247,-1.986656 0.72947,0.46236 0.63393,1.092253 -0.50397,3.322729 -1.22678,2.404635 -1.40408,3.943512 -1.40408,12.186356 0,8.986204 -0.0638,9.434178 -1.34391,9.434178 -1.26337,0 -1.34392,-0.447974 -1.34392,-7.473809 z m 19.82275,6.801851 c -0.62042,-1.003864 0.24283,-2.015873 1.71955,-2.015873 1.22664,0 1.30426,-0.539911 1.30426,-9.071428 0,-8.623455 -0.0664,-9.071429 -1.34391,-9.071429 -0.74662,0 -1.34392,-0.447974 -1.34392,-1.007936 0,-0.792567 0.93328,-1.007937 4.36773,-1.007937 3.43445,0 4.36772,0.21537 4.36772,1.007937 0,0.627158 -0.63462,1.007936 -1.67989,1.007936 h -1.6799 v 9.608995 c 0,6.577719 -0.25437,9.863364 -0.80635,10.415344 -0.97682,0.976824 -4.3279,1.068634 -4.90529,0.134391 z m 60.01733,-2.213973 c -2.55812,-2.297161 -3.02275,-3.046494 -2.48397,-4.006077 0.7739,-1.378373 1.97804,-0.916194 6.16553,2.366467 2.43193,1.906451 2.4975,2.058408 1.40776,3.262563 -0.62864,0.694636 -1.3229,1.249424 -1.54281,1.232867 -0.21989,-0.0166 -1.81583,-1.301682 -3.54651,-2.85582 z m 155.09975,1.493245 c -1.34353,-1.056815 -1.77052,-1.993087 -1.77052,-3.882229 0,-4.784197 3.85652,-7.315939 7.93302,-5.2079 2.25645,1.166861 2.8183,2.253215 2.8183,5.449321 0,4.34041 -5.33952,6.505047 -8.9808,3.640808 z m 5.59032,-2.266097 c 1.91122,-2.302879 -0.72473,-6.195906 -3.1611,-4.668627 -2.39778,1.503082 -1.53526,5.639579 1.17592,5.639579 0.64865,0 1.54198,-0.436927 1.98518,-0.970952 z m -235.82645,1.10271 c 0,-1.057635 0.65418,-1.449158 3.1918,-1.910275 l 3.1918,-0.57998 0.20481,-3.188473 0.2048,-3.188479 h -2.38866 c -1.6753,0 -2.38867,-0.301024 -2.38867,-1.007937 0,-0.703956 0.70929,-1.007936 2.35185,-1.007936 2.24905,0 2.35185,-0.104953 2.35185,-2.40112 0,-1.923674 0.23383,-2.356831 1.17593,-2.178359 0.77446,0.146708 1.24781,0.966456 1.38649,2.40112 0.18502,1.914178 0.44987,2.178359 2.18386,2.178359 1.30607,0 1.9733,0.34081 1.9733,1.007936 0,0.671958 -0.67196,1.007937 -2.01588,1.007937 -1.90387,0 -2.01587,0.149322 -2.01587,2.68783 0,2.909731 0.55281,3.210829 3.69891,2.014677 1.60514,-0.610272 1.75047,-0.534347 1.55565,0.812726 -0.17582,1.21582 -1.00872,1.689013 -4.5826,2.603487 -2.40225,0.614686 -5.65284,1.333869 -7.22355,1.59819 -2.55993,0.430786 -2.85582,0.342753 -2.85582,-0.849703 z m 124.11106,-5.517451 c -6.559,-6.207424 -7.59924,-7.722675 -6.87289,-10.011215 0.22446,-0.707195 3.2871,-3.928534 6.80587,-7.15854 5.56751,-5.110601 6.52331,-5.7472 7.36509,-4.905419 0.84179,0.841789 0.13884,1.688576 -5.41667,6.525092 -3.75009,3.264754 -6.38399,6.069397 -6.38399,6.79784 0,0.707524 2.75079,3.76512 6.40535,7.119767 5.98086,5.490036 6.98257,6.923254 5.24389,7.502811 -0.38389,0.127967 -3.59988,-2.513686 -7.14665,-5.870336 z m 38.5027,4.713735 c 0,-0.990082 0.44797,-1.343915 1.70148,-1.343915 2.221,0 5.77538,-1.50546 6.97798,-2.955525 2.80394,-3.380941 -0.39695,-8.657025 -5.21173,-8.590575 -3.10087,0.0428 -5.01564,0.88107 -7.67189,3.358693 -3.00933,2.806955 -3.62957,1.309269 -2.23184,-5.389155 1.59623,-7.649713 1.69335,-7.926083 2.78552,-7.926083 1.12978,0 1.20646,1.82376 0.25095,5.968315 -0.37336,1.619471 -0.54526,3.078076 -0.38199,3.241342 0.16326,0.163265 1.21707,-0.179023 2.34179,-0.760636 4.39023,-2.270276 10.56862,-0.812881 12.51566,2.952266 1.74589,3.376177 1.32577,6.569502 -1.19608,9.091352 -3.3401,3.340093 -9.87985,4.898222 -9.87985,2.353921 z m 35.61376,0.126234 c 0,-0.9542 0.57774,-1.490261 1.92507,-1.786184 1.05878,-0.232551 2.62459,-1.074521 3.47956,-1.871053 l 1.5545,-1.448236 -2.13215,-0.552497 c -2.6403,-0.684168 -4.28942,-3.088197 -4.28942,-6.252956 0,-3.436096 1.79238,-5.189536 4.99277,-4.884333 2.46329,0.234917 2.53316,0.180858 2.53316,-1.96004 0,-2.102569 -0.11337,-2.199989 -2.51984,-2.16539 -1.38592,0.01996 -4.93889,0.290393 -7.89551,0.601033 -3.74033,0.392987 -5.51548,0.340622 -5.83529,-0.172136 -0.85752,-1.374886 0.11538,-1.683099 6.67618,-2.115 9.32787,-0.614068 9.57446,-0.693044 9.57446,-3.066633 0,-1.555098 0.30056,-2.003072 1.34391,-2.003072 1.04527,0 1.34392,0.447974 1.34392,2.015873 v 2.015873 h 4.7037 c 3.7331,0 4.70371,0.207984 4.70371,1.007936 0,0.753191 -0.8067,1.010255 -3.1918,1.017109 -6.29622,0.01808 -6.21561,-0.07893 -6.21561,7.482315 0,4.23834 -0.34752,7.494519 -0.95504,8.948514 -1.00523,2.405851 -4.8323,5.344147 -7.9484,6.102525 -1.55647,0.378803 -1.84788,0.234721 -1.84788,-0.913648 z m 7.78247,-8.189725 c 0.54767,0 0.27128,-3.466334 -0.37227,-4.668823 -1.41965,-2.65264 -4.72237,-1.70356 -4.72237,1.357032 0,1.724842 2.53129,4.1876 3.80268,3.699725 0.55601,-0.213367 1.1374,-0.387934 1.29196,-0.387934 z M 70.192071,46.247946 c -1.21626,-0.310384 -2.80376,-1.100419 -3.52778,-1.755644 -1.5345,-1.388702 -1.74695,-4.841052 -0.41039,-6.668905 1.37925,-1.886232 2.37377,-0.718605 1.96755,2.310029 -0.33006,2.460777 -0.20575,2.73124 1.57586,3.428591 1.20859,0.473058 4.50179,0.633152 8.77849,0.426753 5.37505,-0.259409 6.91941,-0.13458 7.1942,0.581506 0.19244,0.501502 0.12698,1.049591 -0.14546,1.21797 -1.02671,0.634543 -13.31314,1.000525 -15.43247,0.4597 z m 45.552649,-0.998839 c 0,-0.521398 1.35861,-1.605683 3.01912,-2.409526 3.82066,-1.84955 5.84671,-4.681737 6.23423,-8.714733 0.27094,-2.819722 0.0693,-3.432574 -1.84816,-5.616417 -4.87324,-5.550316 -14.74353,-4.491734 -17.77987,1.906889 -1.63856,3.453015 -0.59573,9.062202 1.68481,9.062202 0.51155,0 4.7255,-8.241359 5.58323,-10.919312 0.20715,-0.646759 0.97747,-1.175926 1.71184,-1.175926 1.25759,0 1.28201,0.146447 0.42013,2.519841 -1.86418,5.133468 -3.27485,7.98408 -5.65519,11.427722 -2.45809,3.556134 -4.4477,4.371421 -4.46815,1.830923 -0.006,-0.732265 -0.56996,-2.366587 -1.25347,-3.631823 -1.53207,-2.836004 -1.61243,-7.838843 -0.17069,-10.626849 2.27761,-4.404421 6.94284,-6.52141 13.45718,-6.106604 5.06375,0.322433 8.06621,2.206662 9.87986,6.200207 1.65748,3.649678 1.59724,6.208903 -0.23154,9.835472 -2.28039,4.52216 -10.58333,9.55722 -10.58333,6.417934 z m 66.16097,0.232572 c -0.90078,-1.45749 -0.99004,-11.241798 -0.15892,-17.420624 0.70201,-5.219075 1.07846,-6.418862 2.07347,-6.608528 1.11434,-0.212406 1.17038,0.12327 0.67196,4.024939 -0.29908,2.341167 -0.53303,7.960836 -0.51989,12.488151 0.0176,6.066172 -0.19292,8.231481 -0.80029,8.231481 -0.4533,0 -1.02315,-0.321941 -1.26633,-0.715419 z m 15.48189,-0.251682 c -0.36958,-0.14259 -1.5112,-0.444594 -2.53694,-0.671111 -2.57991,-0.569726 -4.51862,-2.701828 -4.51862,-4.969369 0,-1.047138 0.18075,-2.084634 0.40168,-2.305554 0.81708,-0.81708 2.28615,0.36992 2.28615,1.847192 0,2.526984 1.70108,3.306253 7.28992,3.339549 3.50764,0.0209 5.32101,0.313535 5.70686,0.920971 0.31106,0.489689 0.46041,0.995499 0.33189,1.124017 -0.37415,0.374153 -8.22131,0.999679 -8.96094,0.714305 z M 147.32673,29.062178 c 0,-0.727952 0.74662,-1.007936 2.68783,-1.007936 2.62383,0 2.68783,-0.05597 2.68783,-2.351852 0,-2.239857 -0.11199,-2.351852 -2.35185,-2.351852 -1.64256,0 -2.35185,-0.30398 -2.35185,-1.007936 0,-0.703957 0.70929,-1.007937 2.35185,-1.007937 2.23986,0 2.35185,-0.111995 2.35185,-2.351852 0,-1.903877 0.25598,-2.351851 1.34392,-2.351851 1.08793,0 1.34391,0.447974 1.34391,2.351851 0,2.165196 0.15999,2.351852 2.01587,2.351852 1.34392,0 2.01588,0.335979 2.01588,1.007937 0,0.671957 -0.67196,1.007936 -2.01588,1.007936 -1.85588,0 -2.01587,0.186657 -2.01587,2.351852 0,2.239857 0.112,2.351852 2.35185,2.351852 1.64256,0 2.35185,0.30398 2.35185,1.007936 0,0.825211 -1.15725,1.007937 -6.38359,1.007937 -5.22634,0 -6.3836,-0.182726 -6.3836,-1.007937 z m 45.02116,-2.351852 c 0,-1.203375 0.44798,-1.343915 4.28373,-1.343915 2.35606,0 5.22867,-0.188988 6.3836,-0.419973 1.78786,-0.357569 2.09987,-0.221713 2.09987,0.914339 0,1.107863 -0.59869,1.406226 -3.52778,1.75805 -1.94028,0.233055 -4.81289,0.426363 -6.3836,0.429575 -2.40979,0.0049 -2.85582,-0.204053 -2.85582,-1.338076 z m -54.20096,-1.048052 c -0.23744,-0.618745 0.29027,-1.78855 1.28829,-2.85582 0.92976,-0.994269 2.1725,-2.763782 2.76166,-3.932242 0.80287,-1.592325 1.40538,-2.03708 2.40534,-1.775581 1.32189,0.345682 1.32231,0.372083 0.0456,2.874688 -1.52179,2.982948 -4.56726,6.737007 -5.46538,6.737007 -0.34832,0 -0.81429,-0.47162 -1.03548,-1.048052 z M 68.035731,24.022496 c 0,-1.25265 0.44492,-1.343291 6.55159,-1.334743 7.40345,0.01035 9.57539,0.407112 9.57539,1.749092 0,0.739805 -1.64606,0.929566 -8.06349,0.929566 -7.61552,0 -8.06349,-0.07466 -8.06349,-1.343915 z M 311.45239,21.903961 c -3.5001,-2.0269 -4.12767,-2.807063 -2.87887,-3.57886 0.60915,-0.376471 5.44322,1.729781 7.20665,3.140011 0.78027,0.623987 0.49247,2.594859 -0.36793,2.519586 -0.23763,-0.02076 -2.01957,-0.957123 -3.95985,-2.080737 z M 162.1098,19.654771 c 0,-0.76155 0.82128,-1.007936 3.35979,-1.007936 2.53851,0 3.35979,0.246386 3.35979,1.007936 0,0.76155 -0.82128,1.007937 -3.35979,1.007937 -2.53851,0 -3.35979,-0.246387 -3.35979,-1.007937 z"
       style="fill:#000000;stroke-width:0.671958" />
    <path
       style="fill:#345189;fill-opacity:1;stroke-width:0.671958"
       d="m 81.192236,231.49391 c -30.031878,-3.72585 -53.491218,-21.70086 -64.451659,-49.3841 -3.798136,-9.59311 -5.419846,-19.60059 -4.954521,-30.57407 0.445402,-10.50362 1.663994,-16.74343 4.921077,-25.19841 6.863774,-17.81751 20.478258,-32.949547 37.188918,-41.334222 4.825307,-2.421128 12.328862,-5.366842 13.670842,-5.366842 2.431109,0 3.283622,2.144802 8.365712,21.046994 l 5.207081,19.3671 15.10877,0.20017 c 15.160374,0.20084 30.501884,1.58087 49.308644,4.43551 4.766,0.72342 8.92754,1.31531 9.24787,1.31531 0.72306,0 -3.62815,-8.74191 -6.26132,-12.57945 -1.0703,-1.55984 -4.07302,-5.13007 -6.67272,-7.93385 -4.86323,-5.24499 -5.55784,-7.123982 -3.18359,-8.611884 1.8372,-1.151341 4.1055,0.384852 8.96611,6.072254 12.02605,14.07169 18.19304,29.57602 18.95312,47.6498 0.59508,14.15015 -1.74418,25.66869 -7.67526,37.79305 -10.57568,21.61888 -31.52298,37.67954 -54.90676,42.09798 -6.495544,1.22735 -17.230134,1.6997 -22.832314,1.00466 z m 19.799234,-6.44238 c 3.48371,-0.58934 7.07748,-1.42089 7.98616,-1.84789 1.65479,-0.77761 2.62393,-3.09102 3.67297,-8.76764 l 0.48337,-2.61562 -2.56826,0.43223 c -9.79033,1.64771 -21.531674,2.56342 -28.942604,2.25725 -4.52732,-0.18704 -8.231482,-0.21411 -8.231482,-0.0601 0,0.15395 1.202455,2.67147 2.672132,5.5945 2.23767,4.45051 2.97512,5.36035 4.53571,5.59604 4.53522,0.68493 14.57687,0.39503 20.392004,-0.58871 z M 69.120452,218.8995 c -3.387695,-6.76244 -3.470903,-7.27007 -1.512745,-9.22823 l 1.691083,-1.69108 h -3.5602 -3.560207 l -1.203187,5.7334 c -0.661758,3.15337 -1.030723,5.90586 -0.81993,6.11666 0.639623,0.63963 8.785968,3.5325 10.053005,3.56995 1.018917,0.0301 0.866947,-0.59863 -1.087819,-4.5007 z m 54.461218,-1.52217 c 2.65809,-1.47417 5.01634,-2.97715 5.24055,-3.33994 0.22422,-0.36279 -1.3665,-3.008 -3.53493,-5.87825 -3.20993,-4.24883 -4.24625,-5.18817 -5.57654,-5.05469 -0.89866,0.0902 -6.77441,0.93548 -13.05722,1.87846 -6.2828,0.94297 -16.110184,1.89115 -21.838624,2.10705 -5.72844,0.2159 -10.868917,0.66903 -11.423282,1.00696 -1.959798,1.19465 25.965532,0.0785 35.581006,-1.42213 8.75956,-1.36705 9.07666,-1.37264 10.26864,-0.18065 1.19199,1.19199 1.17894,1.42068 -0.42274,7.40563 -1.13588,4.24442 -1.40521,6.17288 -0.86124,6.16677 0.43532,-0.005 2.96628,-1.21503 5.62438,-2.68921 z M 55.379664,212.5159 c 1.134219,-5.1812 1.249143,-5.10613 -7.858412,-5.13313 l -6.719577,-0.02 2.351852,2.02886 c 2.816375,2.42963 10.013365,7.32397 10.76964,7.32397 0.295422,0 0.950846,-1.88989 1.456497,-4.19974 z m 84.851706,-7.87533 c 2.92825,-2.94551 5.1273,-5.55226 4.8868,-5.79277 -0.24051,-0.2405 -4.24451,0.27958 -8.89777,1.15576 l -8.46049,1.59303 3.06167,4.19973 c 1.68392,2.30986 3.29207,4.19974 3.57369,4.19974 0.28161,0 2.90786,-2.40997 5.8361,-5.35549 z m -83.886554,-4.21991 c -1.724188,-6.44282 -1.942192,-9.57788 -1.116542,-16.05667 0.468649,-3.67744 0.708713,-6.82962 0.533475,-7.00486 -0.354089,-0.35409 -10.938295,3.37732 -22.521979,7.94 l -7.561905,2.97856 2.778555,4.3076 c 4.919963,7.62742 5.673165,8.29052 9.916676,8.73035 2.074872,0.21505 7.058356,0.44183 11.074411,0.50396 7.267521,0.11244 7.30001,0.10584 6.897309,-1.39894 z m 31.4587,0.82439 c 8.08013,-0.58255 30.456284,-3.6392 31.059954,-4.24287 0.114,-0.11401 0.39942,-1.16798 0.63425,-2.34216 0.3852,-1.92596 0.27082,-2.1308 -1.16892,-2.09337 -5.46408,0.14203 -55.695145,4.44487 -56.051713,4.80144 -0.240144,0.24015 -0.232638,1.3654 0.01667,2.50055 l 0.453316,2.06393 7.842116,-0.006 c 4.313155,-0.003 12.059607,-0.30997 17.214327,-0.68162 z m 49.529514,-7.38317 c 6.04004,-1.11268 11.65308,-2.31154 12.47342,-2.66413 1.46927,-0.63152 6.23599,-9.06515 6.23599,-11.03317 0,-1.08738 -3.14116,-1.90101 -21.14014,-5.47575 -6.2682,-1.24492 -11.52918,-2.13104 -11.69107,-1.96915 -0.16189,0.16188 0.39022,3.13626 1.22689,6.60971 1.10985,4.60755 1.45131,7.69997 1.26268,11.43547 -0.14221,2.81604 -0.054,5.12009 0.19589,5.12009 0.24995,0 5.3963,-0.91038 11.43634,-2.02307 z m -48.822354,-4.71412 c 14.783064,-1.12642 27.896444,-2.20838 29.140824,-2.40434 2.24236,-0.35311 2.25852,-0.38132 1.81349,-3.1669 -0.24697,-1.54584 -0.66034,-3.00335 -0.9186,-3.23889 -0.25826,-0.23555 -13.32077,0.67159 -29.027784,2.01587 l -28.5582,2.44415 -0.204806,3.19179 c -0.112647,1.75549 0.03857,3.19508 0.335979,3.19909 0.297429,0.004 12.636024,-0.91433 27.419097,-2.04077 z M 33.983204,178.7983 c 14.171603,-5.67702 33.235742,-11.67289 43.530432,-13.69077 9.18522,-1.80041 9.2444,-1.82377 8.84773,-3.49243 -0.94054,-3.95663 -1.48339,-4.74338 -3.04763,-4.41686 -0.83745,0.17481 -3.94169,0.50826 -6.8983,0.74101 -6.905645,0.54362 -31.729474,3.22956 -46.148012,4.99322 -6.16224,0.75376 -11.418933,1.37047 -11.681538,1.37047 -0.841621,0 0.267255,5.68843 2.417246,12.40026 1.346538,4.20362 2.370095,6.39718 2.880214,6.17252 0.435239,-0.19168 4.980175,-2.02652 10.099858,-4.07742 z m 57.215302,-2.46155 c 14.043914,-1.15778 25.634494,-2.19647 25.756824,-2.30818 0.12234,-0.11172 -0.0931,-0.79278 -0.47884,-1.51346 -0.55769,-1.04206 -1.91019,-1.46336 -6.60602,-2.05776 -16.533734,-2.09286 -23.883744,-1.72219 -38.384659,1.93575 -7.806019,1.96912 -9.517468,2.95106 -9.517468,5.46062 0,0.9337 0.408503,1.1312 1.847883,0.89339 1.016336,-0.16792 13.33836,-1.25258 27.38228,-2.41036 z M 159.399,170.18257 c 0.42906,-1.94028 0.94858,-5.83748 1.1545,-8.66045 l 0.37439,-5.13266 -10.67421,-0.50355 c -10.37865,-0.48959 -56.692104,0.13355 -58.391464,0.78566 -0.65309,0.25061 -0.68282,0.89392 -0.12956,2.8024 1.11426,3.8436 1.58216,4.15701 6.20605,4.15701 8.419524,0 33.639834,4.03307 52.056114,8.32447 3.88055,0.90426 7.40847,1.66903 7.83982,1.6995 0.43135,0.0304 1.13531,-1.53211 1.56436,-3.47238 z M 37.121106,156.27211 c 9.06299,-1.08214 23.123705,-2.62996 31.246035,-3.43963 8.122325,-0.80965 14.845995,-1.53597 14.941495,-1.61404 0.0955,-0.0781 -1.26029,-5.48147 -3.01285,-12.00755 -3.06843,-11.42611 -3.24975,-11.86563 -4.894928,-11.86563 -3.7498,0 -31.430263,5.26043 -49.818439,9.46755 l -6.483806,1.48346 -0.712428,3.76392 c -0.656914,3.47061 -0.958275,8.60689 -0.822085,14.01126 0.06809,2.70212 -1.277271,2.68832 19.557006,0.20066 z m 93.651424,-6.07626 30.1666,-0.004 -0.43038,-4.53571 c -0.23671,-2.49464 -0.96433,-6.50119 -1.61694,-8.90344 l -1.18657,-4.36772 -9.39886,-1.43597 c -18.79089,-2.87089 -34.99821,-4.43229 -49.594104,-4.77784 -8.11759,-0.19218 -14.90257,-0.0826 -15.2025,0.24553 -0.29793,0.32594 0.91201,5.88428 2.68874,12.35187 1.77673,6.4676 3.25061,11.87968 3.27526,12.02685 0.0247,0.14717 2.53948,0.0734 5.58848,-0.16396 3.04901,-0.23735 19.118634,-0.43336 35.710274,-0.43558 z M 40.448179,127.61259 c 6.088382,-1.28744 16.352851,-3.2437 22.809933,-4.34724 6.457077,-1.10354 11.826785,-2.09308 11.932672,-2.19897 0.273655,-0.27365 -8.956881,-34.028754 -9.436531,-34.508399 -0.649635,-0.649637 -9.959697,3.695619 -15.436798,7.204768 -6.570913,4.209949 -15.52354,12.822861 -19.881913,19.127461 -3.168954,4.58406 -8.122668,14.16305 -9.098572,17.5939 l -0.414999,1.45895 4.228211,-0.99483 c 2.325516,-0.54715 9.209615,-2.04819 15.297997,-3.33564 z"
       id="path138" />
  </g>
</svg>
