<?xml version="1.0" encoding="UTF-8" standalone="no"?>
<svg
   xmlns:dc="http://purl.org/dc/elements/1.1/"
   xmlns:cc="http://creativecommons.org/ns#"
   xmlns:rdf="http://www.w3.org/1999/02/22-rdf-syntax-ns#"
   xmlns:svg="http://www.w3.org/2000/svg"
   xmlns="http://www.w3.org/2000/svg"
   width="450mm"
   height="80mm"
   viewBox="0 0 450 80"
   version="1.1"
   id="svg8">
  <defs
     id="defs2" />
  <metadata
     id="metadata5">
    <rdf:RDF>
      <cc:Work
         rdf:about="">
        <dc:format>image/svg+xml</dc:format>
        <dc:type
           rdf:resource="http://purl.org/dc/dcmitype/StillImage" />
        <dc:title></dc:title>
      </cc:Work>
    </rdf:RDF>
  </metadata>
  <g
     id="layer1">
    <path
       style="fill:#000000;stroke-width:0.264583"
       d="m 73.115541,67.670865 c -0.29104,-0.29104 -0.52917,-0.70195 -0.52917,-0.91313 0,-0.21117 0.84657,-3.51516 1.88126,-7.34218 5.457632,-20.18623 6.798492,-25.22086 6.734262,-25.28557 -0.0388,-0.0391 -1.4585,2.24518 -3.15488,5.07618 -1.949652,3.25367 -3.282852,5.21028 -3.623982,5.31855 -0.75717,0.24032 -1.83666,-0.52815 -1.83666,-1.30748 0,-0.34591 1.96383,-3.92755 4.364072,-7.95919 2.40023,-4.03164 4.31564,-7.4086 4.25647,-7.50435 -0.0592,-0.0957 -0.79305,-0.20449 -1.63083,-0.24165 -1.76845,-0.0784 -2.22721,-0.36644 -2.22721,-1.39816 0,-1.24684 0.79245,-1.5701 3.84895,-1.5701 h 2.67286 l 1.56774,-5.85538 c 1.31481,-4.91068 1.66871,-5.92197 2.19354,-6.26812 0.55481,-0.36591 0.70489,-0.36855 1.32292,-0.0232 0.4117,0.23002 0.72464,0.65688 0.76435,1.0426 0.037,0.35921 -0.56615,2.97483 -1.34028,5.81248 l -1.4075,5.15938 2.29336,0.13229 c 2.63564,0.15204 3.23213,0.47613 3.11268,1.69122 -0.10817,1.10028 -0.95222,1.47507 -3.33279,1.47988 l -1.93022,0.004 0.14163,0.85989 c 0.0779,0.47295 0.38322,3.53881 0.67849,6.81303 0.29527,3.27421 0.60385,6.39528 0.68574,6.9357 0.26044,1.71885 -1.53432,2.87528 -2.55455,1.64599 -0.16294,-0.19633 -0.52431,-2.64437 -0.80305,-5.4401 -0.27874,-2.79573 -0.54485,-5.12119 -0.59136,-5.1677 -0.0465,-0.0465 -2.13838,7.56386 -4.64859,16.91192 -4.632832,17.25268 -4.857472,17.92252 -6.010522,17.92252 -0.20216,0 -0.60569,-0.23813 -0.89673,-0.52917 z m 12.633852,-0.0149 c -1.1343,-0.67607 -0.69024,-1.49164 7.08211,-13.00721 4.56272,-6.76016 7.767527,-11.26118 8.107787,-11.38705 0.79647,-0.29463 1.80958,0.42503 1.80958,1.28544 0,0.4398 -1.75386,3.28265 -5.011577,8.12329 -2.75637,4.0957 -4.97072,7.48758 -4.92079,7.53752 0.14632,0.14631 12.379987,3.78129 12.453207,3.7002 0.0366,-0.0406 -0.87278,-3.22629 -2.02088,-7.07942 -1.1481,-3.85313 -2.08746,-7.27343 -2.08746,-7.60068 0,-1.25569 2.03146,-1.76453 2.61666,-0.65542 0.39077,0.74061 5.32084,17.38708 5.32084,17.9659 0,0.67295 -0.59678,1.18663 -1.38332,1.1907 -0.33058,0.002 -4.16816,-1.08387 -8.527952,-2.41241 -4.359785,-1.32855 -8.038025,-2.37848 -8.173865,-2.33321 -0.13584,0.0453 -0.97405,1.1482 -1.86269,2.45094 -1.67301,2.45261 -2.31277,2.87039 -3.40165,2.2214 z M 169.068,67.187015 c -0.24083,-0.26613 -0.43788,-0.66507 -0.43788,-0.88653 0,-0.32309 5.21892,-19.07964 5.93152,-21.31765 l 0.18956,-0.59531 h -8.7134 c -8.41448,0 -8.73731,-0.0188 -9.41054,-0.54837 -0.38343,-0.3016 -0.69714,-0.71811 -0.69714,-0.92557 0,-0.20746 1.01887,-3.97905 2.26414,-8.38131 1.6545,-5.84891 2.41044,-8.1288 2.80744,-8.46714 0.49482,-0.42171 1.36538,-0.46302 9.75657,-0.46302 8.54662,0 9.22306,-0.0335 9.34856,-0.46303 0.46437,-1.58927 2.81516,-9.91762 3.06219,-10.84862 0.36922,-1.39154 1.22959,-2.04551 2.20379,-1.67512 0.37099,0.14105 0.7474,0.48605 0.83646,0.76666 0.0904,0.28477 -0.54207,3.00957 -1.43137,6.16672 -0.87632,3.11108 -1.59385,5.74581 -1.5945,5.85495 -6.6e-4,0.10914 4.16599,0.19844 9.25922,0.19844 8.90764,0 9.28058,0.0202 9.78958,0.52916 0.29105,0.29104 0.52917,0.6568 0.52917,0.81279 0,0.15599 -0.94321,3.34091 -2.09604,7.0776 -1.15282,3.73669 -2.29247,7.47899 -2.53257,8.31622 -0.25277,0.88144 -0.64395,1.63323 -0.92927,1.78593 -0.30116,0.16118 -4.18567,0.26371 -9.99056,0.26371 h -9.49782 l -0.27101,1.12448 c -1.02036,4.23362 -6.03636,21.32032 -6.36908,21.69583 -0.53209,0.60054 -1.45334,0.59098 -2.00702,-0.0208 z m 6.94536,-27.49584 c 1.30389,-4.42308 2.93551,-10.41676 2.93551,-10.78348 0,-0.3535 -0.98044,-0.39434 -7.9929,-0.3329 l -7.9929,0.07 -1.78888,6.21771 c -0.98388,3.41974 -1.79239,6.307 -1.79668,6.41614 -0.004,0.10914 3.61856,0.19844 8.05078,0.19844 h 8.05859 z m 19.27622,1.40842 c 0.18304,-0.18303 3.76003,-11.83308 3.76429,-12.26006 0.003,-0.26403 -1.76514,-0.31973 -8.39719,-0.26458 l -8.40052,0.0699 -1.76391,6.08542 c -0.97015,3.34698 -1.77382,6.25321 -1.78594,6.4583 -0.0187,0.31655 1.22208,0.34835 8.21215,0.21045 4.52879,-0.0893 8.2958,-0.22407 8.37112,-0.29939 z m -4.86092,25.90178 c -0.42274,-0.64517 -0.35489,-0.9838 1.86863,-9.32656 3.22228,-12.09021 2.99843,-11.38135 3.66055,-11.5915 0.31617,-0.10035 1.84737,-0.19553 3.40268,-0.21152 1.5553,-0.016 2.87744,-0.0886 2.93809,-0.16135 0.15869,-0.1904 6.28359,-22.31597 6.28359,-22.69884 0,-0.22871 -0.75001,-0.31991 -2.63083,-0.31991 -2.41869,0 -2.66404,-0.0474 -3.04271,-0.58804 -0.54434,-0.77716 -0.51954,-1.15638 0.11729,-1.79321 0.50945,-0.50944 0.88195,-0.52917 9.99375,-0.52917 h 9.46459 l 0.76649,-3.10885 c 0.79721,-3.23346 1.08676,-4.03439 1.57676,-4.36158 0.5415,-0.36156 1.39719,-0.2053 1.8964,0.34632 0.48707,0.53821 0.48213,0.60579 -0.25584,3.50201 -0.41388,1.62427 -0.81025,3.10372 -0.88084,3.28766 -0.10205,0.26593 1.93715,0.33444 9.95414,0.33444 9.72969,0 10.10099,0.0185 10.61164,0.52917 0.65911,0.65912 0.67576,1.37282 0.0453,1.94337 -0.39639,0.35873 -1.08703,0.43788 -3.82084,0.43788 -1.83535,0 -3.39755,0.098 -3.47157,0.21775 -0.12792,0.20697 -6.24665,22.42082 -6.24665,22.67823 0,0.0675 1.2341,0.12277 2.74244,0.12277 2.37383,0 2.83615,0.0737 3.43958,0.54837 0.38343,0.3016 0.69714,0.7392 0.69714,0.97244 0,0.39874 -3.66052,14.24061 -4.79204,18.12056 -0.29585,1.01446 -0.71879,1.88856 -0.98196,2.0294 -0.25425,0.13607 -1.47013,0.18383 -2.70195,0.10613 -2.37362,-0.14972 -2.90113,-0.43237 -2.90113,-1.55445 0,-0.85802 0.70074,-1.28897 2.33669,-1.43703 l 1.46167,-0.1323 1.92226,-7.10493 c 1.05724,-3.90772 2.00214,-7.46862 2.09977,-7.91312 l 0.1775,-0.80819 -19.14055,0.19032 c -10.5273,0.10467 -19.19155,0.24132 -19.25389,0.30366 -0.0623,0.0623 -1.16977,4.06787 -2.46096,8.90118 -1.29119,4.83331 -2.54116,9.00171 -2.77773,9.26311 -0.62018,0.68529 -1.57939,0.59647 -2.09747,-0.19422 z m 39.77271,-23.76674 c 0.35046,-1.28893 0.59295,-2.38777 0.53887,-2.44186 -0.0541,-0.0541 -5.44214,-0.13059 -11.97345,-0.17002 l -11.8751,-0.0717 -0.73646,2.51354 c -0.40506,1.38245 -0.73907,2.54451 -0.74225,2.58236 -0.003,0.0378 5.42954,0.0378 12.07271,0 l 12.07848,-0.0688 z m 2.3145,-8.43825 c 0.4054,-1.49159 0.79599,-2.92034 0.86798,-3.175 0.1233,-0.43611 -0.56828,-0.46302 -11.89512,-0.46302 H 209.4627 l -0.73708,2.71197 c -0.40539,1.49159 -0.79598,2.92034 -0.86798,3.175 -0.12329,0.43611 0.56829,0.46303 11.89512,0.46303 h 12.02603 z m 2.42203,-8.7974 c 0.32535,-1.16417 0.60061,-2.38456 0.61168,-2.71198 l 0.0201,-0.59531 h -11.87143 -11.87143 l -0.69627,2.50986 c -0.38296,1.38043 -0.69628,2.56642 -0.69628,2.63553 0,0.2175 4.31084,0.30568 14.27113,0.2919 l 9.64092,-0.0133 z m 104.08389,41.14271 c -0.68771,-0.68771 -0.66723,-1.12436 0.11578,-2.46642 0.69773,-1.19594 2.26547,-5.11513 2.26547,-5.66348 0,-0.24975 -0.67077,-0.33676 -2.59593,-0.33676 -2.24677,0 -2.67386,-0.0726 -3.175,-0.53948 -0.31848,-0.29671 -0.57907,-0.78463 -0.57907,-1.08426 0,-0.85115 3.17645,-12.19567 3.6014,-12.8622 0.41913,-0.65738 1.63147,-0.81284 2.16651,-0.27781 0.52547,0.52547 0.37727,1.48122 -1.00541,6.48367 -0.72761,2.63243 -1.32292,4.91751 -1.32292,5.07795 0,0.18621 0.70623,0.29171 1.95263,0.29171 h 1.95265 l 1.52299,-5.4901 c 0.83762,-3.01956 1.6881,-5.758 1.88992,-6.08542 0.50369,-0.81719 1.79038,-0.80845 2.33048,0.0158 0.37248,0.56851 0.24307,1.17292 -1.85547,8.6651 -2.73691,9.77119 -3.83847,12.72224 -5.29114,14.17491 -0.76475,0.76475 -1.27966,0.79 -1.97289,0.0968 z M 111.373,66.849645 c -0.3892,-0.30615 -1.12875,-1.39283 -1.64343,-2.41485 -1.05119,-2.0874 -1.0367,-2.97267 0.0555,-3.38791 0.89469,-0.34016 1.56355,0.0422 2.18183,1.24739 l 0.491,0.95706 2.72677,-3.9418 c 5.5951,-8.08826 5.65803,-8.16893 6.44334,-8.26039 0.40263,-0.0469 0.90345,0.057 1.11293,0.23083 0.90504,0.75112 0.43739,1.69214 -4.1521,8.35493 -2.49314,3.61941 -4.77608,6.84864 -5.07321,7.17606 -0.67344,0.74212 -1.23542,0.75226 -2.14259,0.0387 z m 163.79292,0.0728 c -0.52747,-0.58285 -0.57253,-1.72085 -0.0842,-2.12615 0.24073,-0.19979 3.34478,-0.31577 9.7186,-0.36312 l 9.36491,-0.0696 2.57491,-9.26042 c 1.41621,-5.09323 2.57924,-9.40924 2.58452,-9.59115 0.007,-0.25743 -1.74667,-0.33072 -7.91544,-0.33072 -8.22947,0 -9.10192,-0.10292 -9.42202,-1.11145 -0.0876,-0.27608 0.0319,-0.79379 0.2656,-1.15047 l 0.42492,-0.6485 h 8.8047 8.8047 l 1.91186,-6.94531 c 1.05151,-3.81993 1.90868,-7.07279 1.90482,-7.22859 -0.005,-0.19538 -1.82989,-0.2551 -5.88246,-0.19248 l -5.87543,0.0908 -0.79056,0.95908 c -1.01254,1.22838 -3.47362,2.82004 -5.03747,3.25789 -1.09077,0.3054 -1.27228,0.29155 -1.74128,-0.13289 -0.58703,-0.53125 -0.69759,-1.77784 -0.19285,-2.17432 0.1819,-0.14289 0.8917,-0.46956 1.57733,-0.72592 1.55094,-0.57992 3.24677,-2.00648 3.89279,-3.2747 0.58908,-1.15642 2.09839,-5.99123 3.06786,-9.8273 0.38615,-1.52797 0.75912,-2.98578 0.82882,-3.23958 0.34467,-1.25513 1.76938,-1.65317 2.60647,-0.7282 0.43591,0.48167 0.4487,0.66915 0.13991,2.05053 -0.26622,1.19091 -1.75761,6.53406 -2.843,10.18548 -0.12808,0.43091 0.25779,0.46302 5.563,0.46302 h 5.70062 l 0.39448,-1.38906 c 0.21696,-0.76398 1.01547,-3.62594 1.77446,-6.3599 1.46175,-5.26538 1.71108,-5.70208 3.06199,-5.36302 1.26496,0.31749 1.22071,1.00088 -0.45296,6.99545 -0.86098,3.08377 -1.56542,5.72153 -1.56542,5.86169 0,0.15772 3.01776,0.25484 7.9186,0.25484 8.58587,0 8.75015,0.0273 8.75015,1.45521 0,1.43453 -0.12976,1.45521 -9.13141,1.45521 -4.56492,0 -8.36248,0.10133 -8.43902,0.22517 -0.21834,0.35329 -3.86082,13.50318 -3.86082,13.93815 0,0.3332 1.1181,0.38876 7.8226,0.38876 4.82594,0 8.01633,0.10368 8.32831,0.27065 0.87899,0.47042 1.14251,1.26398 0.66284,1.99605 l -0.42178,0.64372 h -8.72011 -8.72011 l -0.1822,0.72596 c -0.10021,0.39927 -1.276,4.65576 -2.61286,9.45885 -1.33686,4.8031 -2.38121,8.8222 -2.32077,8.93134 0.0604,0.10914 4.02342,0.19843 8.80663,0.19843 7.55335,0 8.7514,0.0547 9.11251,0.41578 0.56627,0.56626 0.52221,1.32987 -0.11339,1.96547 -0.51961,0.51962 -0.88195,0.52917 -20.06733,0.52917 -18.59223,0 -19.55936,-0.0234 -19.97604,-0.48385 z m 53.41401,0.12642 c -0.69678,-0.50951 -0.59825,-1.38978 0.64008,-5.71745 0.59632,-2.08406 1.01192,-3.86173 0.92358,-3.95038 -0.0884,-0.0887 -2.53172,-0.19989 -5.4297,-0.24718 -5.04037,-0.0823 -5.28634,-0.11066 -5.66704,-0.65419 -0.53022,-0.75699 -0.50186,-1.14032 0.13119,-1.77336 0.3714,-0.3714 0.88194,-0.52917 1.7124,-0.52917 h 1.18323 l 0.39674,-1.38906 c 1.12407,-3.93566 10.20138,-37.33512 10.20138,-37.53545 0,-0.1286 -0.39291,-0.23382 -0.87313,-0.23382 -1.05537,0 -1.50812,-0.40073 -1.50812,-1.33483 0,-1.52819 0.2527,-1.57559 8.39973,-1.57559 4.0876,0 7.62944,0.0758 7.87077,0.16838 0.24132,0.0926 0.55189,0.46586 0.69014,0.82946 0.33795,0.88892 -0.3202,1.91258 -1.22971,1.91258 -0.43122,0 -0.75245,0.20697 -0.92398,0.59531 -0.14462,0.32742 -3.4168,11.96578 -7.27149,25.86302 -4.78411,17.24808 -7.1502,25.37268 -7.45487,25.59844 -0.57801,0.42831 -1.18123,0.41931 -1.7912,-0.0267 z m 3.92887,-17.51313 c 0.70792,-2.55277 1.24257,-4.68316 1.18809,-4.73422 -0.0545,-0.0511 -1.3993,-0.13531 -2.9885,-0.18725 l -2.88946,-0.0944 -1.27377,4.63021 c -0.70058,2.54662 -1.27556,4.71951 -1.27774,4.82865 -0.002,0.10914 1.33663,0.19844 2.97514,0.19844 h 2.9791 z m 2.13958,-8.04601 c 0.0857,-0.1386 0.92975,-3.02587 1.87574,-6.41615 0.94599,-3.39028 1.78515,-6.37636 1.86478,-6.63574 0.13412,-0.43673 -0.0857,-0.46607 -2.97264,-0.39688 l -3.11748,0.0747 -1.78742,6.48229 c -0.98309,3.56526 -1.79213,6.56537 -1.79787,6.66691 -0.0209,0.36804 5.71217,0.58524 5.93489,0.22485 z m 5.99448,-21.17926 c 0.70596,-2.54661 1.28487,-4.77903 1.28646,-4.96093 0.003,-0.24547 -0.77695,-0.33073 -3.02199,-0.33073 -2.65266,0 -3.0416,0.057 -3.16082,0.46302 -0.41291,1.40638 -2.54556,9.32934 -2.54556,9.4569 0,0.0831 1.38563,0.11749 3.07917,0.0765 l 3.07917,-0.0745 z m 64.19676,46.76511 c -0.42601,-0.32831 -0.55729,-0.73659 -0.4971,-1.54591 0.0172,-0.23179 3.85572,-4.10132 8.52993,-8.59896 l 8.4986,-8.17753 -2.34704,-0.17042 c -1.29085,-0.0937 -4.09469,-0.18303 -6.23073,-0.19844 -3.15134,-0.0227 -3.96211,-0.10642 -4.29948,-0.44379 -0.56909,-0.5691 -0.52197,-1.52277 0.10322,-2.08856 0.48995,-0.4434 1.38583,-0.45866 16.01533,-0.27269 15.32803,0.19484 15.50056,0.20301 15.88519,0.75213 0.52094,0.74373 0.49014,1.12983 -0.14034,1.76031 -0.50268,0.50267 -0.88193,0.52917 -7.57462,0.52917 h -7.04543 l -6.19085,5.9901 c -3.40495,3.29456 -6.14522,6.03573 -6.08944,6.09149 0.12425,0.12424 18.24082,3.2807 18.32822,3.19332 0.0343,-0.0343 -0.94518,-2.50293 -2.17665,-5.48583 -1.84531,-4.46983 -2.19202,-5.52685 -1.97181,-6.01147 0.31427,-0.69168 1.35483,-1.022 2.04647,-0.64964 0.58484,0.31486 5.9122,13.04786 5.91185,14.12999 -1.6e-4,0.46622 -0.22135,0.86638 -0.62515,1.13097 -0.57944,0.37967 -1.46021,0.26462 -12.10469,-1.58113 -6.31386,-1.09482 -11.70935,-1.99071 -11.98994,-1.99086 -0.28059,-1.5e-4 -1.42777,0.89269 -2.54931,1.9841 -2.03216,1.97761 -2.67203,2.28112 -3.48623,1.65365 z m -285.62771,-0.34575 c -0.81897,-0.57363 -0.79094,-1.82423 0.0533,-2.37739 0.55356,-0.3627 1.59332,-0.4088 7.59771,-0.33683 l 6.95639,0.0834 4.43097,-15.7427 c 2.43703,-8.65849 5.46591,-19.43365 6.73084,-23.9448 1.26493,-4.51114 2.35367,-8.35091 2.41942,-8.53281 0.0935,-0.25871 -1.26227,-0.33073 -6.22637,-0.33073 -6.90753,0 -7.00601,-0.0211 -7.00601,-1.50153 0,-1.42615 -0.18408,-1.40888 15.02466,-1.40888 13.28861,0 14.08777,0.0267 14.50152,0.48385 0.48746,0.53864 0.559,1.2958 0.17928,1.8974 -0.20782,0.32924 -1.36717,0.41941 -6.80318,0.52916 l -6.55266,0.13229 -1.63191,5.82084 c -3.34617,11.93541 -11.75818,41.82077 -11.8972,42.26718 -0.13462,0.43228 0.28525,0.46303 6.32353,0.46303 7.04041,0 7.12783,0.0184 7.12783,1.50153 0,1.43087 0.24663,1.40888 -15.80055,1.40888 -13.0027,0 -14.91231,-0.051 -15.42756,-0.41188 z m 129.90059,0.23095 c -0.65027,-0.26015 -0.89619,-1.41796 -0.44685,-2.10375 0.37076,-0.56585 0.5999,-0.62574 2.39395,-0.62574 1.80391,0 2.00757,-0.054 2.24427,-0.59532 0.30193,-0.69043 3.16792,-11.1523 3.16792,-11.56398 0,-0.18575 -2.64684,-0.27612 -8.08719,-0.27612 -5.06873,0 -8.2782,-0.10223 -8.59896,-0.27389 -0.70773,-0.37877 -0.70773,-1.98387 0,-2.36264 0.32494,-0.17389 3.90698,-0.27389 9.81164,-0.27389 5.45819,0 9.26342,-0.0992 9.21166,-0.24017 -0.0485,-0.1321 -1.21853,-1.50132 -2.60005,-3.04271 l -2.51186,-2.80253 h -3.63971 c -3.28692,0 -3.69099,-0.0513 -4.16887,-0.52917 -0.63683,-0.63683 -0.66163,-1.01605 -0.11729,-1.79321 l 0.41188,-0.58804 h 14.21958 c 10.7069,0 14.29802,0.0784 14.53708,0.3175 0.52627,0.52627 0.3773,1.72728 -0.27053,2.18104 -0.45852,0.32115 -1.34055,0.41188 -4.00443,0.41188 h -3.41639 l -3.00703,1.74616 c -1.65387,0.96039 -3.00703,1.8781 -3.00703,2.03936 0,0.16127 0.42767,0.73118 0.95038,1.26649 l 0.95038,0.97327 6.69586,-0.14092 6.69587,-0.14093 0.68813,0.68813 c 0.8224,0.82241 0.83987,0.99524 0.18261,1.80735 l -0.50551,0.62463 -8.62261,0.0765 c -4.74244,0.0421 -8.62261,0.11447 -8.62261,0.16082 0,0.5131 -4.03482,14.60468 -4.25912,14.87495 -0.22574,0.272 -1.02466,0.36044 -3.11547,0.34491 -1.54653,-0.0115 -2.96839,-0.0835 -3.1597,-0.16004 z m 10.91604,-23.39313 c 0.51764,-0.30541 0.94116,-0.60307 0.94116,-0.66146 0,-0.0584 -0.73512,-0.10615 -1.63361,-0.10615 h -1.63363 l 0.62141,0.66145 c 0.34178,0.36381 0.65338,0.66146 0.69246,0.66146 0.0391,0 0.49457,-0.24988 1.01221,-0.5553 z m 111.81902,23.37254 c -9.4266,-0.0625 -10.48203,-0.11305 -10.93526,-0.52321 -0.33425,-0.30249 -0.45781,-0.67672 -0.37028,-1.1214 0.53694,-2.72808 6.13206,-22.18982 6.48454,-22.55555 0.40783,-0.42314 1.70741,-0.45835 17.6009,-0.47688 15.82579,-0.0184 17.1994,0.0151 17.65975,0.43174 0.27453,0.24846 0.49916,0.79662 0.49916,1.21814 0,0.42152 -1.18353,5.01674 -2.63006,10.2116 -1.44653,5.19486 -2.76966,10.04051 -2.94029,10.76811 -0.54576,2.32727 -0.41405,2.29183 -8.17023,2.19827 -3.72054,-0.0449 -11.45976,-0.11275 -17.19823,-0.15082 z m 22.70678,-3.83338 c 0.1516,-0.47295 1.0664,-3.7174 2.03287,-7.2099 0.9665,-3.4925 2.03131,-7.33323 2.36627,-8.53495 l 0.60902,-2.18495 -15.22518,0.0683 -15.22521,0.0683 -2.47409,8.99583 c -1.36075,4.94771 -2.4756,9.14466 -2.47746,9.32656 -0.003,0.26075 3.18339,0.33073 15.05736,0.33073 h 15.06075 z m -46.74839,3.45281 c -0.17462,-0.17463 -0.3175,-0.63527 -0.3175,-1.02364 0,-0.694 5.04066,-19.78864 5.60118,-21.21796 0.48244,-1.23023 2.32643,-1.21207 2.71965,0.0268 0.12071,0.38031 -1.90428,8.55701 -2.88226,11.63838 -0.17526,0.55216 -0.11039,0.57515 1.62121,0.57447 l 1.80377,-7.9e-4 1.65989,-5.99899 c 0.91294,-3.29944 1.79072,-6.15662 1.95064,-6.34929 0.48593,-0.58553 1.75143,-0.42631 2.21321,0.27845 0.38703,0.5907 0.29739,1.04326 -1.48048,7.47448 -1.04084,3.76515 -2.06099,7.03818 -2.267,7.27341 -0.31753,0.36259 -0.83195,0.40752 -3.3791,0.29512 -2.77781,-0.12259 -3.01559,-0.095 -3.15108,0.36605 -0.0806,0.27425 -0.46188,1.68926 -0.84728,3.14447 -0.38541,1.45521 -0.87108,2.91372 -1.07931,3.24114 -0.41807,0.65743 -1.63039,0.81296 -2.16554,0.27782 z m -149.27132,-3.90924 c -0.29467,-0.29467 -0.53214,-0.74412 -0.52771,-0.99878 0.0143,-0.82321 2.82551,-10.41387 3.14669,-10.73521 0.42003,-0.42023 28.35453,-0.59089 29.12613,-0.17794 0.28667,0.15342 0.58878,0.54815 0.67137,0.87719 0.16821,0.67021 -2.3452,10.68936 -2.79424,11.13863 -0.19653,0.19662 -4.79987,0.30919 -14.68636,0.35913 -14.15586,0.0715 -14.4092,0.0637 -14.93588,-0.46302 z m 27.3793,-2.69795 c 0.15928,-0.15936 1.6983,-5.88469 1.71248,-6.37062 0.003,-0.10914 -5.46306,-0.19844 -12.14721,-0.19844 -11.3465,0 -12.16196,0.0307 -12.28794,0.46302 -0.9676,3.32029 -1.75281,6.13514 -1.75281,6.2836 0,0.23656 24.23732,0.0607 24.47548,-0.17756 z M 94.259283,44.893765 c -0.40419,-0.40418 -0.50722,-0.74088 -0.38459,-1.25677 0.71031,-2.98809 8.177597,-29.99374 8.480167,-30.66873 0.30849,-0.68821 0.54102,-0.8599 1.16458,-0.8599 0.83534,0 1.61068,0.58721 1.61068,1.21987 0,0.21357 -0.54749,2.37796 -1.21664,4.80974 -0.66915,2.43179 -2.5728,9.36252 -4.230332,15.40164 -2.344485,8.54201 -3.138365,11.08302 -3.575165,11.44323 -0.73427,0.60551 -1.17537,0.58425 -1.8487,-0.0891 z m 12.517887,-1.03651 c -0.92307,-0.5628 -1.50781,-1.67223 -1.24368,-2.35962 0.0882,-0.22957 1.64619,-5.77521 3.46216,-12.32365 4.59357,-16.56453 4.48768,-16.23331 5.25104,-16.42491 0.92163,-0.23131 1.70781,0.0994 1.88151,0.7915 0.0922,0.36734 -1.30416,5.8188 -3.57126,13.94237 -2.04746,7.33654 -3.72265,13.48655 -3.72265,13.66667 0,0.24103 0.79252,0.3275 3.0017,0.3275 2.57198,0 3.06439,0.0693 3.43958,0.48385 0.58192,0.64301 0.55254,1.25358 -0.0913,1.8974 -0.47603,0.47603 -0.88119,0.52907 -4.03489,0.52818 -3.03703,-8e-4 -3.62158,-0.0716 -4.37223,-0.52929 z m 242.18538,-0.15008 c -0.22868,-0.22868 -0.41576,-0.75743 -0.41576,-1.17501 0,-0.41758 -0.11592,-0.83087 -0.25757,-0.91842 -0.14166,-0.0876 -2.00483,0.0454 -4.14039,0.29538 l -3.88284,0.45456 -0.48982,-0.60489 c -0.26937,-0.33269 -0.4898,-0.74897 -0.4898,-0.92507 0,-0.17609 1.4687,-2.51439 3.26377,-5.19621 1.79506,-2.68181 3.45972,-5.17917 3.69924,-5.54967 l 0.43548,-0.67365 -1.97945,-1.66476 c -1.24039,-1.04319 -1.97946,-1.86109 -1.97946,-2.19057 0,-0.54118 7.67588,-12.26335 8.4178,-12.85519 0.89109,-0.71083 2.23168,-0.0895 2.23168,1.03439 0,0.40908 -1.32802,2.65062 -3.47265,5.86141 -1.90998,2.85946 -3.47266,5.29695 -3.47266,5.41663 0,0.2772 1.81192,2.04369 1.93945,1.89084 0.0524,-0.0628 0.60558,-0.88811 1.22925,-1.834 1.31337,-1.9919 1.73265,-2.38125 2.56432,-2.38125 0.728,0 1.51977,1.09176 1.29815,1.79001 -0.0861,0.27115 -2.23824,3.57187 -4.78261,7.33494 -2.54436,3.76306 -4.57448,6.89358 -4.51135,6.95671 0.0631,0.0631 0.95527,0.0304 1.98254,-0.0728 l 1.86775,-0.18757 v -1.78421 c 0,-1.43598 0.1012,-1.87581 0.51851,-2.25347 0.61198,-0.55383 1.7196,-0.38172 2.08647,0.32421 0.13147,0.25294 0.3846,2.22369 0.56251,4.37944 0.29969,3.6318 0.28942,3.95714 -0.1401,4.43177 -0.56033,0.61913 -1.51553,0.66338 -2.08246,0.0965 z m 12.96459,0 c -0.22868,-0.22868 -0.41577,-0.70493 -0.41577,-1.05833 0,-0.76114 0.35055,-0.74212 -4.27487,-0.23193 -3.47978,0.38383 -3.75542,0.38115 -4.2219,-0.041 -0.27448,-0.2484 -0.49906,-0.68086 -0.49906,-0.96101 0,-0.28015 1.67396,-3.00534 3.71991,-6.05597 l 3.71993,-5.54661 -1.40483,-1.24491 c -2.37326,-2.10314 -2.86001,-2.64107 -2.86001,-3.16075 0,-0.65936 7.22275,-11.95955 8.06418,-12.61664 0.54121,-0.42262 0.76406,-0.45781 1.31358,-0.20744 1.4514,0.6613 1.24849,1.23759 -2.49074,7.07409 l -3.48652,5.44201 1.14403,1.03461 c 0.62921,0.56905 1.21584,1.03951 1.30363,1.04547 0.0878,0.006 0.71382,-0.82258 1.39118,-1.84123 1.05672,-1.58917 1.34123,-1.85208 2.00427,-1.85208 0.94692,0 1.68693,0.68619 1.54311,1.43082 -0.0588,0.30446 -2.16133,3.63063 -4.67225,7.39149 -2.51093,3.76087 -4.50255,6.90071 -4.42585,6.97742 0.0767,0.0767 0.93398,0.0544 1.90505,-0.0496 l 1.76557,-0.18907 -0.1302,-1.81975 c -0.0944,-1.31868 -0.0267,-1.96758 0.2458,-2.35658 0.44733,-0.63867 1.71801,-0.71837 2.19972,-0.13797 0.29022,0.34969 1.0347,5.91178 1.05081,7.85048 0.0111,1.34766 -1.55704,2.05622 -2.48877,1.12448 z M 123.5482,42.998465 c -0.69904,-1.09647 -4.96409,-14.73758 -4.78465,-15.30297 0.25672,-0.80885 1.37666,-1.14253 2.14499,-0.6391 0.34416,0.2255 0.62575,0.45489 0.62575,0.50975 0,0.0549 1.01203,3.23311 2.24896,7.06277 2.27441,7.04182 2.50493,8.07389 1.93145,8.64737 -0.53502,0.53502 -1.74739,0.37956 -2.1665,-0.27782 z m 297.8913,-3.89265 c -3.20146,-0.0782 -5.96967,-0.23857 -6.15157,-0.3563 -0.48186,-0.31186 -0.40452,-1.65874 0.12571,-2.18895 0.42299,-0.42299 1.2973,-0.44523 11.92948,-0.30348 10.37481,0.13832 11.52146,0.19679 11.97898,0.61084 0.6513,0.58942 0.64291,1.2972 -0.0233,1.96336 -0.50046,0.50045 -0.84143,0.52611 -6.28386,0.47297 -3.16507,-0.0309 -8.37406,-0.12021 -11.57552,-0.19844 z m -141.27307,-0.87682 c -0.34776,-0.53077 -0.34886,-0.77428 -0.009,-2.05052 0.21197,-0.79653 0.38681,-1.47881 0.38854,-1.51618 0.002,-0.0374 -8.29144,-0.0374 -18.42926,0 l -18.43239,0.0679 -0.41917,1.57774 c -0.31521,1.18645 -0.59206,1.67469 -1.11628,1.96864 -0.62518,0.35055 -0.76852,0.34411 -1.38907,-0.0625 -0.83681,-0.5483 -0.85049,-0.90979 -0.13428,-3.54709 0.77796,-2.86467 0.87766,-2.9453 3.75408,-3.03616 l 2.39483,-0.0756 2.0312,-7.46067 c 1.11715,-4.10337 2.21967,-7.74833 2.45003,-8.09991 0.26513,-0.40463 1.46327,-1.09664 3.2646,-1.88552 3.10221,-1.3586 3.88516,-1.36789 4.21592,-0.05 0.26954,1.07392 -0.25186,1.57524 -2.72862,2.62354 -2.22284,0.94083 -2.38695,1.06461 -2.67172,2.01507 -0.16688,0.55697 -0.30341,1.08816 -0.30341,1.18041 0,0.0923 1.25557,0.16775 2.79015,0.16775 2.60961,0 2.83218,0.042 3.43959,0.64943 0.77282,0.77282 0.79469,0.97153 0.18641,1.69388 -0.41695,0.49515 -0.78477,0.55529 -3.69674,0.60443 -1.77855,0.03 -3.335,0.12318 -3.45878,0.20705 -0.19608,0.13287 -1.11271,3.05174 -1.11271,3.54329 0,0.0996 1.48153,0.18108 3.29229,0.18108 3.10222,0 3.31607,0.034 3.70417,0.58804 0.54434,0.77716 0.51954,1.15638 -0.11729,1.79321 -0.47668,0.47668 -0.88195,0.52917 -4.08543,0.52917 -1.95594,0 -3.60636,0.0893 -3.66758,0.19844 -0.0612,0.10914 -0.18959,0.52586 -0.28524,0.92604 l -0.17392,0.7276 h 7.91609 7.91608 l -0.9325,-0.9325 -0.9325,-0.9325 -1.24702,0.80021 c -1.51115,0.9697 -2.24215,1.00925 -2.80403,0.1517 -0.578,-0.88214 -0.29074,-1.6099 0.96294,-2.43954 1.02054,-0.67536 1.29355,-1.22025 0.77269,-1.54216 -0.40619,-0.25104 -0.31407,-1.36792 0.15119,-1.83318 0.57861,-0.57862 1.42495,-0.51869 2.13822,0.15139 l 0.60371,0.56716 0.86855,-0.66139 c 1.38902,-1.05772 1.9512,-1.13412 2.71622,-0.3691 0.36622,0.36622 0.66586,0.80927 0.66586,0.98455 0,0.17528 -0.52771,0.80577 -1.1727,1.40109 l -1.17269,1.0824 0.64353,0.74235 c 0.81029,0.93474 0.80913,1.36506 -0.006,2.18009 l -0.64944,0.64943 h 4.212 c 3.89349,0 4.23271,-0.0387 4.48589,-0.51177 0.53413,-0.99803 0.35462,-1.07573 -2.48533,-1.07573 -2.15561,0 -2.85018,-0.091 -3.175,-0.41577 -0.50536,-0.50536 -0.54549,-1.79303 -0.0682,-2.18912 0.19751,-0.16392 1.76326,-0.32069 3.62681,-0.36313 l 3.27926,-0.0747 0.30128,-1.05833 c 0.1657,-0.58209 0.37874,-1.37524 0.4734,-1.76255 l 0.17213,-0.70422 -2.9029,-0.0895 c -2.55337,-0.0787 -2.9716,-0.15832 -3.47348,-0.66078 -0.73471,-0.73556 -0.50825,-1.85209 0.44953,-2.21624 0.36921,-0.14037 2.0784,-0.25522 3.79821,-0.25522 3.01907,0 3.13242,-0.0205 3.28645,-0.59532 0.2937,-1.09594 0.1762,-1.24422 -1.97783,-2.4958 -2.43559,-1.41517 -3.07601,-2.13833 -2.63065,-2.97049 0.68239,-1.27506 1.18666,-1.22402 4.14962,0.41994 3.30629,1.83445 3.80062,2.25386 3.80062,3.22458 0,0.40552 -0.7739,3.49914 -1.71979,6.87471 -0.94588,3.37558 -1.71979,6.32988 -1.71979,6.56513 0,0.37215 0.30806,0.41016 2.37067,0.29256 2.61277,-0.14897 3.45016,0.14304 3.45016,1.20311 0,0.85612 -1.22793,5.17228 -1.59853,5.61883 -0.4998,0.60222 -1.76728,0.47754 -2.22349,-0.21871 z m 92.72202,0.0731 c -0.65913,-0.65912 -0.67574,-1.37283 -0.0453,-1.94337 0.43625,-0.39478 1.74633,-0.43788 13.30854,-0.43788 9.622,0 12.904,0.0793 13.1422,0.3175 0.52626,0.52627 0.3773,1.72728 -0.27054,2.18104 -0.5121,0.35868 -2.20363,0.41187 -13.09687,0.41187 -12.15607,0 -12.52376,-0.0149 -13.03801,-0.52916 z m 73.5469,-0.71203 c -2.78305,-1.90356 -9.11162,-7.86827 -10.48756,-9.8846 -1.00229,-1.46877 -2.06669,-4.1227 -2.81609,-7.02164 -0.31642,-1.22402 -0.63603,-2.22548 -0.71025,-2.22548 -0.0742,0 -0.43063,0.55736 -0.79203,1.23859 -1.28638,2.42485 -3.68829,5.8283 -5.13228,7.27229 -2.38554,2.38554 -6.64988,5.04808 -13.89084,8.67308 -4.10982,2.05748 -4.74617,2.16324 -5.40866,0.89886 -0.23321,-0.44509 -0.43194,-0.5869 -0.55147,-0.39351 -0.10277,0.16629 -0.53298,0.30235 -0.956,0.30235 -0.95022,0 -4.38303,-2.80605 -7.7108,-6.30298 -2.50341,-2.63065 -3.82532,-4.97134 -5.68444,-10.06545 -0.97346,-2.66737 -1.01193,-2.72555 -1.40626,-2.12691 -1.48405,2.25298 -5.30609,7.09473 -6.70402,8.49259 -2.46607,2.46596 -7.97525,5.94947 -14.92834,9.43929 -2.53008,1.26987 -3.32436,1.35976 -3.92433,0.44413 -0.75356,-1.15008 -0.32221,-1.57876 3.71539,-3.6923 4.78099,-2.5027 9.06706,-5.04102 11.12821,-6.59044 2.38832,-1.79532 5.05849,-5.02299 8.57697,-10.36772 2.04634,-3.1085 2.222,-3.29698 3.07875,-3.30324 0.86595,-0.006 1.28037,0.69344 2.34796,3.9647 1.19986,3.67645 2.58485,7.11993 3.51177,8.73125 0.84896,1.47579 3.95221,4.71651 7.01357,7.32426 1.54101,1.31267 2.3151,2.15672 2.3151,2.52429 0,0.50183 0.0423,0.51574 0.46303,0.15242 0.25466,-0.21989 2.54661,-1.46406 5.09322,-2.76482 5.72527,-2.92435 9.67272,-5.36695 11.50779,-7.12077 1.77663,-1.69799 4.20622,-5.39071 6.24332,-9.48922 1.68177,-3.38364 2.22502,-4.01228 3.24586,-3.75607 0.78041,0.19588 1.03603,0.86531 1.62901,4.26637 0.59021,3.38522 1.53361,6.66929 2.41755,8.41572 1.22476,2.41972 2.9228,4.14539 10.3445,10.51283 1.02679,0.88093 1.13622,1.88228 0.27185,2.4877 -0.74464,0.52155 -0.99311,0.51665 -1.80048,-0.0356 z M 128.37223,26.340935 c -0.69597,-0.54382 -5.02267,-11.05375 -4.9314,-11.97884 0.0917,-0.92979 1.23495,-1.5126 2.01002,-1.02468 0.24699,0.15548 1.56597,2.88595 2.93108,6.06772 2.32865,5.42755 2.45893,5.82637 2.10832,6.45402 -0.42452,0.75999 -1.46041,0.99562 -2.11802,0.48178 z m 133.29994,-3.60393 c -0.65565,-0.72448 -0.53924,-1.25451 0.53719,-2.44599 0.96497,-1.06811 0.97034,-1.08661 0.51817,-1.7867 -0.2513,-0.38907 -0.64908,-1.08698 -0.88396,-1.5509 -0.39491,-0.77999 -0.39363,-0.89451 0.0171,-1.52135 0.28251,-0.43116 0.68728,-0.67787 1.11215,-0.67787 0.69916,0 1.83081,1.01044 2.1073,1.88159 0.23442,0.7386 0.56656,0.6256 2.0309,-0.69096 0.72834,-0.65485 1.52675,-1.19063 1.77424,-1.19063 0.62906,0 1.25763,0.54804 1.47855,1.28913 0.15865,0.53224 -0.0651,0.86768 -1.47174,2.20618 l -1.65885,1.5785 0.44012,0.74507 c 0.57627,0.97554 0.55531,1.47427 -0.089,2.11862 -0.70229,0.7023 -1.20893,0.66722 -2.01571,-0.13957 l -0.66873,-0.66873 -0.79475,0.66873 c -0.93778,0.78909 -1.82511,0.85652 -2.43293,0.18488 z"
       id="path24" />
    <path
       style="fill:#345189;fill-opacity:1;stroke:none;stroke-width:0.183389;stroke-miterlimit:4;stroke-dasharray:none"
       d="M 1.5109335,40.383578 V 5.4699659 H 36.424539 71.338146 V 40.383578 75.297184 H 36.424539 1.5109335 Z m 41.8021475,14.337541 0.645451,-1.281701 -8.35e-4,-4.46067 c -8.22e-4,-4.567814 -0.134235,-5.709027 -0.691652,-5.926107 -0.174881,-0.06813 -3.752545,-0.171698 -7.950353,-0.230183 l -7.632367,-0.106346 -1.050081,1.759683 -1.050094,1.759676 0.02177,4.102711 c 0.01139,2.256495 0.08124,4.350785 0.153951,4.653983 l 0.132198,0.551272 0.120341,-0.459395 c 0.06618,-0.252662 0.146649,-0.955525 0.178829,-1.561922 0.04606,-0.867407 0.06593,-0.761953 0.09326,0.49448 0.0329,1.515526 0.231141,2.145946 0.474873,1.510747 0.06112,-0.159283 0.112369,-0.882344 0.114015,-1.606807 0.0013,-0.724454 0.09035,-1.441233 0.197228,-1.592832 0.140322,-0.198966 0.171514,0.197165 0.112116,1.424106 -0.04518,0.934863 -0.02721,1.699746 0.04011,1.699746 0.06732,0 0.346358,-0.456631 0.620068,-1.014732 0.492994,-1.00519 0.497676,-1.050955 0.497676,-4.869529 l 7.6e-5,-3.854803 h 6.339577 6.339578 v 3.766992 c 0,2.388834 -0.06719,3.767 -0.183751,3.767 -0.101107,0 -0.183764,0.08264 -0.183764,0.183755 0,0.101069 0.248072,0.183756 0.551267,0.183756 0.303206,0 0.551279,0.08273 0.551279,0.183753 0,0.101057 -0.284542,0.183755 -0.632304,0.183755 -0.347775,0 -0.681908,0.08024 -0.742547,0.178369 -0.110851,0.179407 0.262954,0.305513 1.282969,0.432799 0.317999,0.03967 0.147649,0.0804 -0.402606,0.09632 -1.568637,0.0453 -1.436059,0.432177 0.218854,0.6387 0.303182,0.03784 0.08061,0.08115 -0.494487,0.09632 -1.029721,0.02713 -1.564967,0.286552 -0.931879,0.451694 0.178108,0.04647 0.839605,0.09407 1.469985,0.105789 l 1.146165,0.02132 z M 62.4168,55.281933 c -0.09605,-0.09329 -0.422637,-0.200284 -0.725831,-0.237767 -0.515228,-0.06373 -0.497208,-0.08133 0.275633,-0.270088 l 0.8269,-0.201944 -0.8269,-0.04473 c -0.482112,-0.02605 -0.635354,-0.0741 -0.367515,-0.115178 1.44007,-0.220914 1.654192,-0.281458 1.556185,-0.440035 -0.05935,-0.09596 -0.537069,-0.188369 -1.061698,-0.205355 -0.834189,-0.02705 -0.861648,-0.03892 -0.218854,-0.09492 0.404263,-0.03518 0.941749,-0.113482 1.194415,-0.173921 0.431343,-0.103182 0.436949,-0.119038 0.09187,-0.259675 -0.202125,-0.0824 -1.070379,-0.156321 -1.929433,-0.164303 -0.859066,-0.0084 -1.996057,-0.06664 -2.526646,-0.130382 l -0.964717,-0.115886 0.01139,-0.755365 c 0.01139,-0.710207 0.02379,-0.727907 0.215615,-0.295979 0.203504,0.458325 0.204162,0.458432 0.276772,0.04597 0.06327,-0.359137 0.185776,-0.413713 0.932853,-0.415473 1.929281,-0.0042 3.181019,-0.526967 1.365386,-0.56986 l -0.872835,-0.02066 1.010651,-0.234398 1.010651,-0.23439 -0.918782,-0.0351 c -1.031783,-0.03942 -0.954162,-0.106688 0.321581,-0.278553 1.205715,-0.162437 1.095358,-0.456789 -0.183751,-0.490115 -0.581131,-0.0151 -0.808526,-0.0571 -0.505332,-0.09331 1.768737,-0.211039 2.141529,-0.291199 1.997538,-0.429513 -0.08795,-0.08453 -1.000845,-0.181323 -2.028554,-0.215112 -1.027721,-0.03377 -1.914842,-0.10789 -1.971419,-0.164662 -0.05656,-0.05675 -0.125276,-0.303745 -0.152736,-0.548815 -0.04733,-0.423414 0.01392,-0.452026 1.232694,-0.574764 0.70542,-0.07103 1.311074,-0.214631 1.345898,-0.319081 0.0348,-0.104448 0.519201,-0.946148 1.076415,-1.870447 l 1.013119,-1.680536 -0.02417,-2.127973 -0.03796,-3.334898 c -0.04568,-4.016726 -0.122746,-5.535929 -0.291312,-5.73886 -0.165681,-0.199471 -0.799833,-0.31065 -2.287091,-0.400975 -1.131814,-0.06871 -2.093165,-0.160313 -2.136341,-0.203488 -0.04315,-0.04315 -0.02948,-0.206101 0.03024,-0.362058 0.07605,-0.198051 0.373753,-0.287456 0.987405,-0.296476 1.020407,-0.01502 1.781569,-0.252645 1.338002,-0.417738 -0.151597,-0.05643 -0.482352,-0.134454 -0.735018,-0.173398 -0.359885,-0.05544 -0.280277,-0.106586 0.367503,-0.235991 l 0.826912,-0.165193 -0.826912,-0.112926 c -0.802174,-0.109547 -0.806742,-0.113748 -0.152837,-0.140528 0.991201,-0.04058 1.313187,-0.195929 1.053814,-0.508445 -0.168009,-0.202426 -0.133755,-0.254173 0.168212,-0.254173 0.480277,0 0.675467,-0.293331 0.292906,-0.440135 -0.15929,-0.06116 -0.965045,-0.111445 -1.790578,-0.111812 -1.175738,-5.56e-4 -1.631313,-0.08016 -2.102606,-0.367518 -0.75353,-0.459435 -1.092612,-0.459304 -1.787174,7.39e-4 -0.44649,0.295705 -0.865571,0.365625 -2.205066,0.367907 l -1.6538,0.0025 -0.715809,1.110958 c -0.519416,0.806142 -0.660497,1.166265 -0.514215,1.312537 0.114141,0.114179 1.201337,0.240099 2.507413,0.29042 1.644688,0.06331 2.305844,0.153167 2.305844,0.31323 0,0.14808 -0.508066,0.266778 -1.493877,0.348987 -0.821635,0.06855 -1.635223,0.200236 -1.80799,0.292701 -0.172755,0.09245 -0.658182,0.614081 -1.078706,1.159154 l -0.76459,0.99105 0.01139,4.668804 c 0.01367,5.510179 0.172387,7.595739 0.611576,8.035634 0.243858,0.244248 0.745457,0.321104 2.414923,0.37003 l 2.10711,0.06174 v 0.535457 0.535455 h -1.459938 -1.459925 l -0.745141,1.040564 c -0.957718,1.337457 -0.953188,1.531725 0.03581,1.533119 0.429533,5.48e-4 1.458798,0.05386 2.28728,0.118367 l 1.506315,0.117267 0.05555,0.570714 c 0.07074,0.726853 0.3837,0.738172 0.537385,0.01941 0.111357,-0.520976 0.119076,-0.511822 0.139626,0.166568 l 0.02177,0.717841 -3.063525,-0.115165 -3.063526,-0.115166 -0.626217,-0.60267 -0.62623,-0.60268 0.06061,-6.751061 c 0.04922,-5.494877 0.01506,-6.768529 -0.184157,-6.844906 -0.134589,-0.05162 -0.722578,-0.09384 -1.306619,-0.09384 h -1.061913 l -0.576866,1.082322 c -0.317278,0.595276 -0.576866,1.176172 -0.576866,1.290886 0,0.11471 0.260942,0.260754 0.579865,0.324542 l 0.579865,0.115963 -0.126289,5.518294 -0.126289,5.518286 -0.92502,0.978088 c -1.058509,1.119215 -1.138205,1.704301 -0.315456,2.315818 0.429015,0.318858 0.564958,0.337345 1.038452,0.141218 0.299651,-0.124124 0.732791,-0.425753 0.962515,-0.670291 0.547217,-0.582473 0.699181,-0.564077 1.581987,0.191579 0.724085,0.619773 0.790114,0.637746 2.559725,0.696564 4.425785,0.147102 11.342913,0.127095 11.178826,-0.03236 z M 57.055238,52.14395 c 0,-0.454797 0.03581,-0.64085 0.07972,-0.413456 0.04378,0.227403 0.04378,0.599509 0,0.826904 -0.04378,0.227403 -0.07972,0.04133 -0.07972,-0.413448 z m -3.908913,-9.004037 v -1.837562 h 1.194415 1.194415 v 1.837562 1.837561 H 54.34074 53.146325 Z m 4.961411,0 v -1.837562 h 1.102533 1.102533 v 1.837562 1.837561 h -1.102533 -1.102533 z m -4.961411,-6.523336 c 0,-2.373838 -0.116166,-2.222828 1.536267,-1.996339 l 0.852563,0.116861 v 1.996331 1.996339 H 54.34074 53.146325 Z m 4.961411,0 c 0,-2.373457 -0.08617,-2.260062 1.515983,-1.995243 l 0.689083,0.113888 v 1.997275 1.997268 H 59.210269 58.107736 Z M 13.738512,54.119319 c 0.172147,-0.530592 0.397683,-1.047403 0.501206,-1.148474 0.127301,-0.124277 0.153217,-0.0839 0.0801,0.12477 -0.257221,0.733774 -0.346167,1.620914 -0.16253,1.620914 0.209933,0 0.317114,-0.284146 0.503257,-1.334261 0.06732,-0.380115 0.207262,-0.7435 0.310862,-0.80752 0.123631,-0.07643 0.145219,0.113533 0.06276,0.553288 -0.07124,0.379874 -0.05176,0.669711 0.04492,0.669711 0.19657,0 0.391103,-0.625274 0.39476,-1.26883 0.0025,-0.426708 0.0148,-0.430741 0.36134,-0.11719 0.34575,0.312899 0.362529,0.308916 0.460397,-0.109333 0.09959,-0.425795 1.018332,-6.109231 1.018332,-6.299757 0,-0.05336 1.295889,-0.119823 2.879761,-0.147657 l 2.879762,-0.05062 0.799314,-1.286291 0.799313,-1.28629 -0.04986,-2.797492 c -0.06567,-3.67841 0.03644,-3.561555 -3.239798,-3.709803 -1.311682,-0.05933 -2.421984,-0.149258 -2.467349,-0.199794 -0.04543,-0.05054 0.150546,-1.538953 0.435354,-3.307607 0.676555,-4.201467 0.682591,-4.819513 0.05188,-5.315577 -0.622244,-0.489451 -1.036061,-0.481103 -1.615533,0.03261 -0.398101,0.352913 -0.531818,0.776667 -0.913252,2.894151 -0.24577,1.364392 -0.548432,3.142223 -0.672582,3.950755 -0.124138,0.808522 -0.306763,1.573405 -0.405795,1.699737 -0.124517,0.158877 -0.802034,0.229694 -2.197245,0.229694 h -2.01719 l -0.58456,0.59721 c -0.321504,0.328465 -0.940433,1.192628 -1.3753948,1.920352 l -0.790823,1.323151 0.06163,2.209552 c 0.08339,2.994483 0.06707,2.978534 3.1722378,3.098151 1.270555,0.04896 2.310083,0.150372 2.310083,0.225395 0,0.07501 -0.247832,1.821016 -0.550748,3.879997 -0.510608,3.470798 -0.663623,5.121775 -0.474671,5.121775 0.04239,0 0.217956,-0.434118 0.390103,-0.964719 z M 11.801259,41.302351 v -1.6538 h 1.83755 c 1.010664,0 1.837564,0.03725 1.837564,0.08282 0,0.04556 -0.07732,0.479684 -0.171818,0.96472 -0.09453,0.485036 -0.222284,1.191973 -0.28396,1.570966 l -0.112116,0.689089 h -1.553591 -1.553604 z m 6.068436,1.240351 c 0.0038,-0.36346 0.114521,-0.959907 0.459891,-2.480702 0.08921,-0.393085 0.179689,-0.413449 1.83607,-0.413449 h 1.742177 v 1.6538 1.653807 h -2.021315 c -1.975001,0 -2.021214,-0.0095 -2.016823,-0.413456 z M 39.592652,54.25287 c 0.557403,-0.218922 0.729538,-1.326246 0.662446,-4.261256 -0.06049,-2.646243 -0.08504,-2.802953 -0.50904,-3.253992 l -0.445477,-0.473859 h -4.713593 -4.713592 l -0.44549,0.474714 c -0.435734,0.464331 -0.445478,0.543729 -0.445478,3.629176 0,2.207959 0.06973,3.276538 0.232622,3.561298 0.209857,0.367028 0.407604,0.413988 2.021315,0.479999 2.455303,0.100437 7.965171,-0.0025 8.356287,-0.15608 z m -7.762009,-3.762727 v -1.286291 h 2.756345 2.756333 v 1.286291 1.286289 H 34.586988 31.830643 Z M 39.1883,39.699461 40.334148,37.912808 40.228106,35.902844 c -0.15409,-2.921003 0.119709,-2.764591 -4.956767,-2.831251 l -4.083832,-0.0536 -0.780965,1.157179 -0.780965,1.157179 v 2.425105 c 0,1.461971 0.08554,2.612735 0.21526,2.897544 0.313229,0.687479 0.806691,0.764601 5.141658,0.803611 l 3.059957,0.02755 z m -6.80639,-2.439735 v -1.286289 h 2.480712 2.480699 v 1.286289 1.286291 H 34.862622 32.38191 Z m 14.159555,-2.495373 0.102245,-1.822891 0.03556,1.618714 c 0.04315,1.962715 0.386332,2.01764 0.438505,0.07021 l 0.03543,-1.321391 0.06542,1.153818 c 0.06972,1.229647 0.399429,1.425508 0.436809,0.25945 0.01139,-0.373035 0.09136,-0.926308 0.176463,-1.229505 0.106168,-0.378255 0.124643,-0.184843 0.05884,0.616279 -0.07491,0.912441 -0.04328,1.150133 0.145118,1.08784 0.324389,-0.107295 0.481162,-1.421401 0.50051,-4.195643 0.01139,-1.649907 -0.0534,-2.402883 -0.227876,-2.641422 -0.230154,-0.314741 -0.303042,-0.294436 -1.286297,0.358406 l -1.042325,0.692058 v 3.66442 c 0,2.849515 0.05112,3.647524 0.229712,3.588482 0.153507,-0.05071 0.263599,-0.680491 0.331919,-1.898802 z m -4.527399,-2.945085 c 0.600074,-0.230266 0.25521,-0.440657 -0.765932,-0.467261 -0.58113,-0.0151 -0.808526,-0.05709 -0.505332,-0.09331 1.757615,-0.209711 2.10992,-0.287066 2.014026,-0.442217 -0.05846,-0.09458 -0.618219,-0.183132 -1.243905,-0.196791 l -1.137623,-0.02481 1.286284,-0.22903 1.286284,-0.229029 -1.194402,-0.0512 c -0.693563,-0.02971 -0.924729,-0.07767 -0.551279,-0.114317 2.006636,-0.196991 2.297201,-0.270935 1.922081,-0.489136 -0.214134,-0.124568 -1.701152,-0.248032 -3.66775,-0.304534 -2.044244,-0.05875 -3.298387,-0.165216 -3.283468,-0.278785 0.01329,-0.101068 0.0801,-0.575403 0.148699,-1.054075 0.110598,-0.773056 0.07289,-0.921925 -0.337373,-1.332228 -0.962172,-0.962171 -1.900201,-0.454524 -2.541895,1.375645 l -0.418789,1.194412 -3.399039,0.158927 -3.399025,0.158926 -0.688856,0.934846 c -1.266759,1.719131 -1.867098,1.595513 7.748886,1.595513 4.640768,0 8.568548,-0.0502 8.728408,-0.111534 z"
       id="path40" />
  </g>
</svg>
