<?xml version="1.0" encoding="UTF-8" standalone="no"?>
<svg
   xmlns:dc="http://purl.org/dc/elements/1.1/"
   xmlns:cc="http://creativecommons.org/ns#"
   xmlns:rdf="http://www.w3.org/1999/02/22-rdf-syntax-ns#"
   xmlns:svg="http://www.w3.org/2000/svg"
   xmlns="http://www.w3.org/2000/svg"
   id="svg10"
   viewBox="0 0 100.55 100.55"
   version="1.1"
   height="100.55mm"
   width="100.55mm">
  <defs
     id="defs14" />
  <title
     id="title2">Chukoren-Matsue-Logo-Mark-1.0</title>
  <metadata
     id="metadata4">
    <rdf:RDF>
      <cc:Work
         rdf:about="">
        <dc:format>image/svg+xml</dc:format>
        <dc:type
           rdf:resource="http://purl.org/dc/dcmitype/StillImage" />
        <dc:title>Chukoren-Matsue-Logo-Mark-1.0</dc:title>
        <cc:license
           rdf:resource="http://creativecommons.org/licenses/by-sa/4.0/" />
        <dc:date>2020.08.5</dc:date>
        <dc:creator>
          <cc:Agent>
            <dc:title>Kanan/Pineko</dc:title>
          </cc:Agent>
        </dc:creator>
      </cc:Work>
      <cc:License
         rdf:about="http://creativecommons.org/licenses/by-sa/4.0/">
        <cc:permits
           rdf:resource="http://creativecommons.org/ns#Reproduction" />
        <cc:permits
           rdf:resource="http://creativecommons.org/ns#Distribution" />
        <cc:requires
           rdf:resource="http://creativecommons.org/ns#Notice" />
        <cc:requires
           rdf:resource="http://creativecommons.org/ns#Attribution" />
        <cc:permits
           rdf:resource="http://creativecommons.org/ns#DerivativeWorks" />
        <cc:requires
           rdf:resource="http://creativecommons.org/ns#ShareAlike" />
      </cc:License>
    </rdf:RDF>
  </metadata>
  <path
     id="path8"
     stroke-width=".26458"
     fill="#fff"
     d="m35.971 70.292c0.05553-1.6382-0.01283-2.7644-0.17265-2.8443-0.16496-0.0825-0.29314 0.84265-0.34043 2.457-0.04612 1.5747-0.17572 2.5276-0.33073 2.4318-0.15253-0.0943-0.25306-2.781-0.25032-6.6904l0.0046-6.5328 2.8078-4.7625h11.132c10.575 0 11.159 0.0252 11.688 0.50403 0.5395 0.48839 0.55701 0.72644 0.56424 7.6729l0.0075 7.1689-1.7347 3.3028-2.1984 2e-3c-1.3988 1e-3 -2.1389-0.094-2.0349-0.26235 0.08994-0.14552 0.9304-0.26458 1.8677-0.26458 0.95973 0 1.7042-0.11558 1.7042-0.26459 0-0.14727-0.71076-0.26458-1.6031-0.26458-0.88171 0-1.5382-0.1051-1.4588-0.23355 0.07939-0.12846 0.65196-0.23776 1.2724-0.24289 1.6937-0.0139 1.7895-0.0309 1.7895-0.3172 0-0.14552-0.66187-0.26458-1.4708-0.26458-0.91317 0-1.4088-0.10031-1.3073-0.26458 0.08994-0.14552 0.63275-0.26459 1.2062-0.26459 0.75484 0 1.0427-0.11061 1.0427-0.40064 0-0.298-0.19922-0.36555-0.77756-0.26367-0.83536 0.14717-1.3736-0.25428-0.60852-0.45388 0.42146-0.10996 0.45362-0.57852 0.38348-5.5863l-0.07656-5.4663h-18.5l-0.02498 11.509-1.5345 2.9104 0.16053-2.6158c0.13393-2.1823 0.09871-2.5953-0.21247-2.492-0.28144 0.0934-0.39152 0.78429-0.44841 2.8143-0.04694 1.6754-0.18145 2.6905-0.3565 2.6905-0.18613 0-0.25005-0.91638-0.18918-2.712zm39.303 1.9148-6.2973-0.17996-0.98992-0.96662c-0.54445-0.53165-1.1104-0.96663-1.2576-0.96663-0.14722 0-0.67157 0.41672-1.1652 0.92604-1.0293 1.062-2.2748 1.2454-3.0017 0.44219-0.80902-0.89395-0.55064-1.8298 0.87613-3.1735l1.314-1.2375 0.16508-8.1359 0.16508-8.1359h-0.80201c-0.4411 0-0.85812-0.0908-0.9267-0.20175-0.06858-0.11097 0.27714-0.91717 0.76827-1.7916l0.89296-1.5898 1.6635-0.0647c2.1437-0.0834 2.3627 0.0666 2.0522 1.4055-0.1341 0.57841-0.24666 4.8994-0.25013 9.6021l-0.0063 8.5505 1.7671 1.873 9.0808 0.28583v-1.0971c0-0.6034-0.11906-1.0971-0.26458-1.0971s-0.26458 0.44053-0.26458 0.97896c0 1.1966-0.48042 0.87336-0.57653-0.38797l-0.06519-0.85558-2.5234-0.0283c-3.3989-0.0382-3.904-0.0733-4.1168-0.2862-0.10021-0.10024 0.3731-0.90391 1.0518-1.7859l1.234-1.6037h4.2024v-1.8521h-3.134c-4.5004 0-4.1248 0.88159-4.2182-9.8998l-0.07611-8.7866 1.2667-1.625c1.1455-1.4695 1.3681-1.6305 2.3251-1.6822 0.58208-0.0315 1.2369-0.0837 1.4552-0.11611 0.21828-0.0324 0.84336-0.0716 1.3891-0.087 0.80642-0.0229 0.99219-0.1272 0.99219-0.55729 0-0.49957-0.17639-0.52917-3.1534-0.52917-3.1883 0-3.9904-0.11525-3.9904-0.57333 0-0.13867 0.44648-0.89532 0.99219-1.6814l0.99219-1.4293 2.5387-0.01c2.1951-9e-3 2.6035-0.0817 3.0176-0.5392 0.61404-0.67851 1.7672-0.67851 2.3812 0 0.4201 0.4642 0.81491 0.52917 3.216 0.52917 1.5054 0 2.7371 0.10632 2.7371 0.23627 0 0.38086-0.7338 0.5572-2.3367 0.56153-0.8484 2e-3 -1.3554 0.0956-1.1675 0.21497 0.18272 0.11601 0.85882 0.17132 1.5024 0.12292 0.64361-0.0484 1.2453 0.0335 1.337 0.1819 0.10567 0.17099-0.36651 0.26991-1.2884 0.26991-1.9146 0-2.2506 0.51326-0.37758 0.57685l1.4047 0.0477-1.2568 0.0991c-1.4387 0.11343-1.7195 0.59926-0.34634 0.59926 0.50073 0 0.98073 0.11377 1.0667 0.25282 0.0924 0.14943-0.63166 0.28469-1.7703 0.33073-1.8453 0.0746-1.9266 0.10517-1.9266 0.72419 0 0.63453 0.0433 0.647 2.3813 0.68568 3.3469 0.0554 3.4851 0.0742 3.9498 0.53902 0.35947 0.35947 0.41577 1.4892 0.41577 8.3423v7.9266l-1.4552 2.3886c-0.80036 1.3138-1.4552 2.5008-1.4552 2.6379 0 0.13709-0.82069 0.24924-1.8238 0.24924-1.9536 0-2.1821 0.15994-1.8902 1.3229 0.18117 0.72181 0.07455 0.70172 4.0447 0.76241 1.1697 0.0179 2.0505 0.14499 2.0505 0.29592 0 0.15288-0.83785 0.26459-1.9844 0.26459-1.1465 0-1.9844 0.11171-1.9844 0.26458 0 0.1495 0.75485 0.26458 1.7354 0.26458 1.0896 0 1.6746 0.0985 1.5719 0.26459-0.0899 0.14552-0.89469 0.26458-1.7883 0.26458-1.9335 0-1.7833 0.4472 0.20083 0.5979l1.3229 0.10047-1.5214 0.0477c-1.8734 0.0587-2.0376 0.57686-0.18282 0.57686 0.82498 0 1.2758 0.10151 1.175 0.26458-0.0899 0.14552-1.1685 0.26458-2.3969 0.26458h-2.2333l-0.03964 0.72761-0.03964 0.7276-0.11022-0.7276c-0.17427-1.1504-0.60424-0.84652-0.60424 0.42706v1.1547l1.2276 0.16825c0.67515 0.0925 2.4313 0.17008 3.9026 0.17231 1.4713 2e-3 2.8536 0.11947 3.0719 0.26053 0.27813 0.17975-0.13279 0.25769-1.3734 0.26053-0.97368 2e-3 -1.8439 0.12312-1.9338 0.26864-0.10215 0.16527 0.43822 0.26458 1.4396 0.26458 0.89235 0 1.6031 0.11731 1.6031 0.26458 0 0.14553-0.65484 0.26459-1.4552 0.26459-1.7782 0-1.9538 0.51025-0.19844 0.57686l1.2568 0.0477-1.2568 0.0991c-1.4478 0.11416-1.7155 0.59927-0.33073 0.59927 0.50932 0 0.92604 0.11907 0.92604 0.26459 0 0.28824-2.3301 0.2876-12.515-3e-3zm5.1067-4.6268c0-0.65484-0.11906-1.1906-0.26458-1.1906-0.14552 0-0.26458 0.53579-0.26458 1.1906s0.11906 1.1906 0.26458 1.1906c0.14552 0 0.26458-0.53578 0.26458-1.1906zm-2.3812-12.965v-2.7781h-3.7042v5.5562h3.7042zm6.8792 0v-2.7781h-3.4396v5.5562h3.4396zm-6.8792-9.2387v-3.021l-3.7054-0.1758 5.3e-4 3.1088 5.29e-4 3.1089h3.7042v-3.021zm6.8792 2e-3v-3.0192l-1.6104-0.0896c-0.88572-0.0493-1.6596-0.04-1.7198 0.0206-0.06017 0.0606-0.10939 1.4596-0.10939 3.1088v2.9985h3.4396v-3.0192zm-67.84 26.283c-0.09806-0.22899 0.2431-3.1322 0.75815-6.4515s0.93644-6.1978 0.93644-6.3967c0-0.28641-0.68954-0.36151-3.3193-0.36151-3.1714 0-3.3483-0.0289-3.9688-0.64943-0.61796-0.61796-0.64943-0.80457-0.64943-3.8511v-3.2017l1.3694-2.1682c2.1129-3.3454 1.6734-3.0942 5.4134-3.0942 3.1655 0 3.2652-0.0175 3.3968-0.59531 0.07457-0.32742 0.50343-2.9766 0.95301-5.887 0.44958-2.9104 0.98766-5.5577 1.1957-5.8828 0.72102-1.1266 2.4176-1.0926 3.1753 0.0638 0.37388 0.57062 0.33856 1.0765-0.41889 5.9992-0.45496 2.9568-0.88437 5.5729-0.95424 5.8135-0.11304 0.38925 0.28459 0.44753 3.6105 0.52916 4.9387 0.12122 4.7486-0.091 4.7486 5.3003v3.9593l-2.177 3.6644h-8.3002l-0.73226 4.8164c-0.40274 2.649-0.80342 4.9316-0.89039 5.0723-0.08698 0.14073-0.25658-0.0103-0.37691-0.33553-0.29731-0.80369-0.75149-0.45385-0.75647 0.58269-0.0022 0.46436-0.13091 1.0229-0.28595 1.2412-0.20944 0.29486-0.2416 0.10783-0.12511-0.72761 0.09385-0.67309 0.05135-1.1245-0.10588-1.1245-0.26345 0-0.36394 0.30085-0.74471 2.2295-0.11281 0.57138-0.34148 1.0843-0.50815 1.1399-0.21466 0.0716-0.19401-0.30861 0.07081-1.3035 0.45384-1.705 0.44986-1.6041 0.05811-1.4735-0.17712 0.059-0.51828 0.87263-0.75815 1.808-0.28021 1.0927-0.49986 1.5518-0.61442 1.2843zm2.7409-19.097c0.1652-1.055 0.35682-2.1861 0.42582-2.5135 0.12382-0.58758 0.08932-0.59531-2.6577-0.59531h-2.7832v5.0271h4.7147zm9.8016-0.59531v-2.5135h-5.2478l-0.2649 1.2568c-0.1457 0.69122-0.34768 1.8223-0.44884 2.5135l-0.18394 1.2568h6.1455zm10.954 18.715c-0.74499-0.49744-0.8995-1.4843-0.8995-5.7453 0-4.3136 0.01204-4.4071 0.64943-5.0445l0.64943-0.64944h13.542l0.64943 0.64944c0.64017 0.64016 0.64943 0.71565 0.64943 5.2917 0 4.2895-0.04021 4.6824-0.52917 5.1714-0.50251 0.50251-0.87904 0.52897-7.4745 0.52512-3.8199-2e-3 -7.0763-0.0915-7.2364-0.19844zm11.271-5.486v-1.9844h-8.2021v3.9688h8.2021zm-10.533-13.636c-0.5443-0.50709-0.57906-0.76994-0.57906-4.3786v-3.8391l2.2208-3.1492h5.86c7.253 0 6.8278-0.24918 6.9557 4.0767l0.08765 2.9644-3.0857 4.8586-5.4402 3e-3c-5.1116 3e-3 -5.4752-0.0293-6.0193-0.5362zm10.533-5.4211v-1.9918l-7.276 0.1472-0.05114 1.9182-0.05113 1.9182h7.3783zm12.376-0.84811c-0.05306-0.11152-0.05007-2.4991 0.0067-5.3058l0.10314-5.103 1.3606-0.91627c0.74831-0.50395 1.4324-0.91628 1.5201-0.91628 0.51056 0 0.65885 1.602 0.52458 5.6672-0.11257 3.4083-0.23257 4.5047-0.50287 4.5942-0.28525 0.0945-0.31819-0.22628-0.16761-1.6323 0.1234-1.1522 0.0937-1.7499-0.08695-1.7499-0.15089 0-0.35051 0.80367-0.4436 1.7859-0.25499 2.6906-0.33717 2.792-0.37539 0.46302-0.04494-2.7379-0.54598-2.1572-0.55176 0.63941-0.0021 1.0793-0.08063 1.8858-0.17422 1.7922s-0.14576-1.185-0.11593-2.4253c0.03484-1.4487-0.04623-2.2552-0.2267-2.2552-0.23458 0-0.46161 3.6746-0.30527 4.941 0.04519 0.36602-0.42436 0.71617-0.56474 0.42114zm-30.348-6.9307c-0.30784-0.19603-0.18696-0.51757 0.65316-1.7374 0.567-0.82325 1.1164-1.5497 1.221-1.6143 0.14233-0.088 6.3587-0.32496 9.643-0.36764 0.1603-2e-3 0.50585-0.79582 0.76789-1.7639 0.26204-0.96805 0.69643-1.9801 0.96531-2.249 0.65875-0.65875 1.9421-0.62313 2.6385 0.0732 0.46609 0.46609 0.5371 0.77119 0.41566 1.7859-0.08055 0.6731-0.22718 1.4322-0.32584 1.6868-0.16664 0.43012 0.15632 0.46387 4.5453 0.47496 3.4233 9e-3 4.9433 0.11204 5.5184 0.37538 0.74744 0.34225 0.65868 0.36471-1.5214 0.38494-2.9791 0.0277-3.0896 0.53177-0.13229 0.6039l2.1828 0.0532-2.1157 0.0914c-2.737 0.11817-3.3105 0.59591-0.7153 0.59591 1.0936 0 1.905 0.11269 1.905 0.26458 0 0.15287-0.83785 0.26459-1.9844 0.26459s-1.9844 0.11171-1.9844 0.26458c0 0.14959 0.757 0.26458 1.7418 0.26458 1.2759 0 1.7124 0.0885 1.6316 0.33073-0.08564 0.25702-2.8473 0.3449-12.391 0.39432-7.0385 0.0364-12.442-0.0391-12.659-0.17696z" />
  <path
     id="path30"
     d="M -0.191139,50.719356 V 0.20588 h 50.50038 50.500379 V 50.719356 101.23283 H 50.309241 -0.191139 Z m 60.46422,20.743747 0.93361,-1.854383 -0.0015,-6.453754 c -0.0015,-6.608771 -0.194174,-8.259894 -1.000426,-8.573974 -0.25297,-0.09854 -5.427834,-0.248409 -11.499697,-0.333033 l -11.039755,-0.153855 -1.518892,2.545924 -1.518894,2.545924 0.03144,5.935862 c 0.0173,3.264724 0.117494,6.294775 0.222672,6.733444 l 0.191223,0.797582 0.174049,-0.664651 c 0.09573,-0.365558 0.212123,-1.382475 0.258655,-2.259813 0.06657,-1.254979 0.09533,-1.102407 0.134865,0.715424 0.04769,2.192679 0.33432,3.104775 0.686884,2.185769 0.08842,-0.230456 0.162577,-1.276592 0.164815,-2.324752 0.0021,-1.048158 0.13061,-2.0852 0.285269,-2.304535 0.202983,-0.287865 0.248098,0.285256 0.162197,2.060418 -0.06545,1.352565 -0.03933,2.45921 0.05805,2.45921 0.09738,0 0.500986,-0.660656 0.8969,-1.468122 0.713085,-1.454325 0.719849,-1.52054 0.719849,-7.045301 l 1.11e-4,-5.577179 h 9.169806 9.169807 v 5.450139 c 0,3.456185 -0.09724,5.450138 -0.265792,5.450138 -0.146185,0 -0.265791,0.119637 -0.265791,0.26586 0,0.146223 0.358818,0.26586 0.797374,0.26586 0.438556,0 0.797374,0.119638 0.797374,0.265861 0,0.146223 -0.411562,0.26586 -0.914583,0.26586 -0.503021,0 -0.986338,0.116129 -1.074037,0.258066 -0.160373,0.25956 0.38035,0.442014 1.855725,0.626176 0.459978,0.05741 0.213568,0.116389 -0.582345,0.139366 -2.26892,0.06551 -2.077163,0.625282 0.316554,0.924075 0.438555,0.05474 0.116702,0.117453 -0.71524,0.139367 -1.489427,0.03923 -2.263632,0.414593 -1.347898,0.653524 0.257614,0.06721 1.214423,0.136089 2.126244,0.153051 l 1.657855,0.03083 z m 27.632366,0.811404 c -0.138879,-0.134972 -0.611323,-0.289774 -1.04988,-0.344005 -0.745252,-0.09215 -0.719187,-0.117701 0.398691,-0.390774 L 88.45032,71.24755 87.254258,71.18288 c -0.69734,-0.03771 -0.918999,-0.107195 -0.53158,-0.166636 2.08297,-0.319624 2.392679,-0.407219 2.250928,-0.636645 -0.08578,-0.138836 -0.776847,-0.272539 -1.535687,-0.297118 -1.206613,-0.03908 -1.246337,-0.05632 -0.316562,-0.137331 0.58475,-0.05095 1.362188,-0.164182 1.727642,-0.251631 0.623907,-0.149286 0.632024,-0.172227 0.132901,-0.375706 -0.292375,-0.11919 -1.548235,-0.22616 -2.790814,-0.237708 -1.242568,-0.01158 -2.887159,-0.09644 -3.654624,-0.188647 l -1.395413,-0.167652 0.0169,-1.092875 c 0.01583,-1.027545 0.0345,-1.053145 0.311882,-0.428224 0.294349,0.663098 0.295294,0.663256 0.400322,0.06647 0.09145,-0.519606 0.268709,-0.598572 1.349309,-0.601114 2.79059,-0.0066 4.601154,-0.762429 1.974953,-0.824488 l -1.262512,-0.02983 1.461852,-0.339121 1.461852,-0.339122 -1.328951,-0.05082 c -1.492419,-0.05708 -1.380148,-0.154361 0.465129,-0.403026 1.743995,-0.235013 1.584368,-0.660884 -0.26579,-0.709105 -0.840568,-0.02191 -1.169477,-0.08266 -0.73092,-0.135001 2.558368,-0.305338 3.097593,-0.421312 2.889321,-0.621425 -0.127277,-0.122288 -1.447662,-0.262339 -2.934184,-0.311227 -1.486523,-0.04888 -2.769712,-0.156094 -2.851535,-0.238238 -0.08176,-0.08214 -0.181226,-0.439461 -0.220927,-0.794037 -0.06853,-0.612596 0.02021,-0.653987 1.78301,-0.831572 1.020353,-0.102786 1.896403,-0.310528 1.946761,-0.461645 0.05033,-0.151118 0.750995,-1.368902 1.556979,-2.706188 l 1.465408,-2.431428 -0.0898,-7.903754 c -0.06605,-5.811448 -0.177552,-8.009457 -0.421365,-8.303063 -0.239642,-0.288591 -1.156905,-0.449446 -3.308122,-0.580136 -1.637111,-0.09945 -3.027645,-0.231939 -3.09009,-0.294406 -0.0625,-0.06246 -0.04277,-0.298189 0.04384,-0.523829 0.109884,-0.286542 0.540619,-0.415892 1.428248,-0.428945 1.475936,-0.0217 2.576918,-0.365529 1.935324,-0.604391 -0.219273,-0.08163 -0.697695,-0.19453 -1.063161,-0.250874 -0.520545,-0.08025 -0.405402,-0.154213 0.53158,-0.341442 l 1.196062,-0.238998 -1.196062,-0.163384 c -1.160296,-0.158498 -1.166901,-0.164579 -0.22108,-0.203317 1.433731,-0.05871 1.89944,-0.283473 1.524273,-0.735628 -0.242998,-0.292877 -0.193467,-0.367743 0.243318,-0.367743 0.694681,0 0.977025,-0.42439 0.423657,-0.636794 -0.230391,-0.08844 -1.395862,-0.161234 -2.589939,-0.161782 -1.700644,-7.98e-4 -2.359595,-0.115988 -3.041292,-0.531721 -1.089946,-0.664717 -1.580397,-0.664528 -2.585035,0.0011 -0.645837,0.427828 -1.252009,0.528993 -3.189502,0.532295 l -2.392123,0.004 -1.03537,1.607347 c -0.751299,1.166342 -0.955371,1.687368 -0.74379,1.899003 0.16516,0.165203 1.737674,0.347379 3.626838,0.420174 2.378942,0.09166 3.335255,0.221611 3.335255,0.453192 0,0.21425 -0.73489,0.385976 -2.160796,0.504924 -1.188439,0.09913 -2.365255,0.289699 -2.615149,0.423475 -0.249895,0.133774 -0.952023,0.888464 -1.560284,1.677087 l -1.105931,1.433865 0.01672,6.754883 c 0.01974,7.9722 0.249327,10.989617 0.884604,11.626068 0.352729,0.353382 1.078247,0.464581 3.493019,0.535366 l 3.04782,0.08928 v 0.774701 0.774705 h -2.11171 -2.111705 l -1.077792,1.505511 c -1.385292,1.935038 -1.378725,2.216109 0.05182,2.218127 0.621287,7.97e-4 2.110072,0.07794 3.30841,0.171257 l 2.178794,0.169664 0.08046,0.82572 c 0.10244,1.051619 0.554999,1.068 0.777308,0.02814 0.16114,-0.753754 0.172234,-0.740512 0.201951,0.241 l 0.03143,1.038578 -4.431188,-0.166623 -4.431195,-0.166622 -0.905796,-0.871959 -0.905797,-0.871955 0.08761,-9.767534 c 0.07131,-7.950061 0.02174,-9.792797 -0.26637,-9.9033 -0.194687,-0.07467 -1.045167,-0.135767 -1.889955,-0.135767 h -1.536022 l -0.834404,1.565913 c -0.458924,0.861251 -0.834407,1.701703 -0.834407,1.867669 0,0.165966 0.377435,0.377263 0.838745,0.469549 l 0.838742,0.167793 -0.182639,7.983937 -0.182639,7.983936 -1.337997,1.415101 c -1.531065,1.619298 -1.646344,2.465812 -0.456276,3.350559 0.620527,0.461326 0.817166,0.488074 1.502047,0.204313 0.433429,-0.179577 1.059926,-0.61598 1.392218,-0.969781 0.791503,-0.842735 1.011329,-0.816109 2.288255,0.277178 1.047325,0.896702 1.142848,0.922703 3.702475,1.007799 6.401622,0.212825 16.406818,0.183883 16.169491,-0.04677 z m -7.755165,-4.540085 c 0,-0.658005 0.05187,-0.927188 0.115201,-0.598186 0.06333,0.329002 0.06333,0.86737 0,1.196372 -0.06333,0.329002 -0.115201,0.05981 -0.115201,-0.598186 z M 74.496266,54.707263 v -2.658604 h 1.727644 1.727645 v 2.658604 2.658604 H 76.22391 74.496266 Z m 7.176375,0 v -2.658604 h 1.594741 1.594753 v 2.658604 2.658604 h -1.594753 -1.594741 z m -7.176375,-9.438045 c 0,-3.43451 -0.168087,-3.216028 2.222126,-2.888329 l 1.233163,0.16907 v 2.888325 2.888329 H 76.22391 74.496266 Z m 7.176375,0 c 0,-3.433956 -0.12463,-3.269894 2.192772,-2.886752 l 0.996722,0.164789 v 2.889678 2.88968 H 83.267382 81.672641 Z M 17.495304,70.592422 c 0.248996,-0.767673 0.575227,-1.515405 0.724958,-1.661628 0.184136,-0.17982 0.221615,-0.121402 0.115816,0.180517 -0.372042,1.061628 -0.50071,2.345157 -0.235091,2.345157 0.303666,0 0.458686,-0.4111 0.727929,-1.930425 0.09746,-0.549952 0.2998,-1.075704 0.449647,-1.168337 0.178901,-0.110599 0.210052,0.16427 0.09072,0.800515 -0.103079,0.549606 -0.0749,0.968945 0.0651,0.968945 0.284329,0 0.565712,-0.904654 0.570997,-1.835764 0.0035,-0.617365 0.02151,-0.623206 0.522661,-0.169551 0.500111,0.452712 0.524386,0.446945 0.665936,-0.158191 0.144102,-0.616046 1.472948,-8.838914 1.472948,-9.114571 0,-0.07724 1.874433,-0.173366 4.165407,-0.213635 l 4.165406,-0.07322 1.156156,-1.861024 1.156154,-1.861023 -0.07218,-4.047456 c -0.0949,-5.321964 0.0527,-5.152904 -4.686183,-5.367389 -1.89726,-0.08587 -3.503245,-0.215948 -3.568856,-0.289059 -0.06561,-0.07311 0.217755,-2.226581 0.629706,-4.785487 0.978598,-6.078739 0.987337,-6.972942 0.07515,-7.690656 -0.900029,-0.708146 -1.49858,-0.696065 -2.336762,0.04717 -0.575831,0.510601 -0.769241,1.123689 -1.320961,4.187302 -0.355497,1.974013 -0.793283,4.546212 -0.97286,5.715998 -0.179577,1.169786 -0.443703,2.27643 -0.586946,2.459209 -0.180137,0.229857 -1.160086,0.332326 -3.178182,0.332326 h -2.91774 L 13.5287,46.266193 c -0.465043,0.475225 -1.36028,1.725505 -1.989416,2.778397 l -1.143886,1.914352 0.08901,3.196806 c 0.120627,4.332459 0.09701,4.309382 4.588457,4.48245 1.83777,0.07082 3.341399,0.217559 3.341399,0.326096 0,0.108542 -0.35848,2.634676 -0.796625,5.61364 -0.738572,5.02159 -0.959891,7.410253 -0.686588,7.410253 0.06135,0 0.315258,-0.628096 0.564254,-1.395767 z M 14.693183,52.048659 v -2.392744 h 2.657915 c 1.461853,0 2.657915,0.05393 2.657915,0.119845 0,0.06591 -0.111834,0.69401 -0.248526,1.395767 -0.136689,0.701757 -0.321519,1.724562 -0.410732,2.272898 l -0.162204,0.996977 h -2.247184 -2.247184 z m 8.777616,1.794557 c 0.0057,-0.525864 0.165648,-1.388806 0.665197,-3.589115 0.12912,-0.568726 0.25991,-0.598186 2.655763,-0.598186 h 2.519955 v 2.392744 2.392743 h -2.923706 c -2.856723,0 -2.923557,-0.0137 -2.917209,-0.598186 z m 31.420916,16.94242 c 0.806251,-0.316734 1.055246,-1.918821 0.958186,-6.165237 -0.08751,-3.828626 -0.122965,-4.055352 -0.736295,-4.707922 l -0.644364,-0.685588 h -6.817915 -6.817916 l -0.644364,0.686826 c -0.630263,0.671801 -0.644361,0.786674 -0.644361,5.250743 0,3.194497 0.100964,4.740531 0.336468,5.152527 0.303548,0.531025 0.589587,0.598967 2.923707,0.694476 3.551436,0.145321 11.52113,-0.0035 12.086854,-0.225825 z M 43.664454,65.341679 v -1.861023 h 3.986873 3.986872 v 1.861023 1.861022 h -3.986872 -3.986873 z m 10.6424,-15.61211 1.657393,-2.58495 -0.153372,-2.908048 c -0.22289,-4.226143 0.173205,-3.999841 -7.169674,-4.096286 l -5.907017,-0.07759 -1.129614,1.674221 -1.129613,1.674222 v 3.508668 c 0,2.115202 0.123656,3.780137 0.311359,4.192204 0.453075,0.994656 1.166843,1.106243 7.437089,1.162675 l 4.426056,0.03983 z M 44.461828,46.19973 v -1.861023 h 3.588185 3.588186 v 1.861023 1.861023 h -3.588186 -3.588185 z m 20.480916,-3.610345 0.14787,-2.637375 0.05147,2.34197 c 0.06242,2.83969 0.558795,2.91916 0.634271,0.101545 l 0.05121,-1.911797 0.09457,1.669354 c 0.100787,1.779069 0.577765,2.062446 0.631829,0.375374 0.0173,-0.539708 0.132157,-1.340197 0.255243,-1.778866 0.15356,-0.547267 0.180278,-0.267433 0.08513,0.891642 -0.108372,1.320138 -0.0625,1.664028 0.209893,1.573906 0.46922,-0.155238 0.69597,-2.056504 0.723961,-6.070315 0.01664,-2.387106 -0.07731,-3.476516 -0.329606,-3.82164 -0.332895,-0.455379 -0.43833,-0.425994 -1.860541,0.518548 l -1.507649,1.00128 v 5.301722 c 0,4.122724 0.07388,5.277295 0.33224,5.191874 0.22205,-0.07342 0.381281,-0.984548 0.480107,-2.747224 z m -6.548602,-4.260982 c 0.867968,-0.333155 0.369148,-0.637544 -1.107874,-0.67604 -0.840566,-0.02191 -1.169483,-0.08266 -0.730927,-0.135001 2.542271,-0.303416 3.051861,-0.415336 2.913165,-0.63981 -0.08455,-0.136838 -0.894208,-0.264964 -1.799238,-0.284722 l -1.64551,-0.03593 1.860541,-0.331361 1.860539,-0.331358 -1.727644,-0.07406 c -1.003195,-0.043 -1.337555,-0.11236 -0.797374,-0.165403 2.902458,-0.28501 3.322754,-0.391997 2.780165,-0.707697 -0.309734,-0.180215 -2.460601,-0.358844 -5.305184,-0.440596 -2.95687,-0.08498 -4.770907,-0.239043 -4.749319,-0.403356 0.01921,-0.146223 0.115993,-0.83249 0.21508,-1.525038 0.160023,-1.118478 0.105501,-1.333859 -0.487982,-1.927489 -1.391724,-1.392088 -2.74853,-0.657616 -3.676709,1.990295 l -0.605755,1.728092 -4.916491,0.229941 -4.916489,0.22994 -0.99638,1.352546 c -1.832284,2.487255 -2.700646,2.30841 11.208291,2.30841 6.71257,0 12.393862,-0.07261 12.625095,-0.161375 z"
     style="fill:#345189;stroke-width:0.265826;fill-opacity:1" />
</svg>
