<?xml version="1.0" encoding="UTF-8" standalone="no"?>
<svg
   xmlns:dc="http://purl.org/dc/elements/1.1/"
   xmlns:cc="http://creativecommons.org/ns#"
   xmlns:rdf="http://www.w3.org/1999/02/22-rdf-syntax-ns#"
   xmlns:svg="http://www.w3.org/2000/svg"
   xmlns="http://www.w3.org/2000/svg"
   id="svg8"
   version="1.1"
   viewBox="0 0 172.5 172.5"
   height="172.5mm"
   width="172.5mm"
   style="background:#fff;">
  <defs
     id="defs2" />
  <metadata
     id="metadata5">
    <rdf:RDF>
      <cc:Work
         rdf:about="">
        <dc:format>image/svg+xml</dc:format>
        <dc:type
           rdf:resource="http://purl.org/dc/dcmitype/StillImage" />
        <dc:title></dc:title>
      </cc:Work>
    </rdf:RDF>
  </metadata>
  <g
     id="layer1">
    <path
       id="path138"
       d="M 77.541299,163.12028 C 47.509421,159.39443 24.050081,141.41942 13.08964,113.73618 9.2915045,104.14307 7.6697945,94.135585 8.1351195,83.162105 8.5805215,72.658485 9.7991134,66.418675 13.056196,57.963695 19.91997,40.146185 33.534454,25.014149 50.245114,16.629474 c 4.825307,-2.421128 12.328862,-5.366842 13.670842,-5.366842 2.431109,0 3.283622,2.144802 8.365712,21.046995 l 5.207081,19.367098 15.10877,0.20017 c 15.160371,0.20084 30.501871,1.58087 49.308631,4.43551 4.766,0.72342 8.92754,1.31531 9.24787,1.31531 0.72306,0 -3.62815,-8.74191 -6.26132,-12.57945 -1.0703,-1.55984 -4.07302,-5.13007 -6.67272,-7.93385 -4.86323,-5.244992 -5.55784,-7.123981 -3.18359,-8.611883 1.8372,-1.151341 4.1055,0.384852 8.96611,6.072256 12.02605,14.071687 18.19304,29.576017 18.95312,47.649797 0.59508,14.15015 -1.74418,25.668695 -7.67526,37.793055 -10.57568,21.61888 -31.52298,37.67954 -54.90675,42.09798 -6.495541,1.22735 -17.230131,1.6997 -22.832311,1.00466 z m 19.79923,-6.44238 c 3.483711,-0.58934 7.077481,-1.42089 7.986161,-1.84789 1.65479,-0.77761 2.62393,-3.09102 3.67297,-8.76764 l 0.48337,-2.61562 -2.56826,0.43223 c -9.790331,1.64771 -21.531671,2.56342 -28.942601,2.25725 -4.52732,-0.18704 -8.231482,-0.21411 -8.231482,-0.0601 0,0.15395 1.202455,2.67147 2.672132,5.5945 2.23767,4.45051 2.97512,5.36035 4.53571,5.59604 4.53522,0.68493 14.57687,0.39503 20.392,-0.58871 z m -31.871014,-6.15203 c -3.387695,-6.76244 -3.470903,-7.27007 -1.512745,-9.22823 l 1.691083,-1.69108 h -3.5602 -3.560207 l -1.203187,5.7334 c -0.661758,3.15337 -1.030723,5.90586 -0.81993,6.11666 0.639623,0.63963 8.785968,3.5325 10.053005,3.56995 1.018917,0.0301 0.866947,-0.59863 -1.087819,-4.5007 z m 54.461205,-1.52217 c 2.65809,-1.47417 5.01634,-2.97715 5.24055,-3.33994 0.22422,-0.36279 -1.3665,-3.008 -3.53493,-5.87825 -3.20992,-4.24883 -4.24624,-5.18817 -5.57653,-5.05469 -0.89866,0.0902 -6.77441,0.93548 -13.05722,1.87846 -6.282801,0.94297 -16.110181,1.89115 -21.838621,2.10705 -5.72844,0.2159 -10.868917,0.66903 -11.423282,1.00696 -1.959798,1.19465 25.965532,0.0785 35.581003,-1.42213 8.75956,-1.36705 9.07666,-1.37264 10.26864,-0.18065 1.19199,1.19199 1.17894,1.42068 -0.42274,7.40563 -1.13588,4.24442 -1.40521,6.17288 -0.86124,6.16677 0.43532,-0.005 2.96628,-1.21503 5.62437,-2.68921 z m -68.201993,-4.86143 c 1.134219,-5.1812 1.249143,-5.10613 -7.858412,-5.13313 l -6.719577,-0.02 2.351852,2.02886 c 2.816375,2.42963 10.013365,7.32397 10.76964,7.32397 0.295422,0 0.950846,-1.88989 1.456497,-4.19974 z m 84.851693,-7.87533 c 2.92825,-2.94551 5.1273,-5.55226 4.8868,-5.79277 -0.24051,-0.2405 -4.24451,0.27958 -8.89777,1.15576 l -8.46049,1.59303 3.06167,4.19973 c 1.68392,2.30986 3.29207,4.19974 3.57369,4.19974 0.28161,0 2.90786,-2.40997 5.8361,-5.35549 z m -83.886541,-4.21991 c -1.724188,-6.44282 -1.942192,-9.57788 -1.116542,-16.05667 0.468649,-3.67744 0.708713,-6.82962 0.533475,-7.00486 -0.354089,-0.35409 -10.938295,3.37732 -22.521979,7.94 l -7.561905,2.97856 2.778555,4.3076 c 4.919963,7.62742 5.673165,8.29052 9.916676,8.73035 2.074872,0.21505 7.058356,0.44183 11.074411,0.50396 7.267521,0.11244 7.30001,0.10584 6.897309,-1.39894 z m 31.4587,0.82439 c 8.08013,-0.58255 30.456281,-3.6392 31.059951,-4.24287 0.114,-0.11401 0.39942,-1.16798 0.63425,-2.34216 0.3852,-1.92596 0.27082,-2.1308 -1.16892,-2.09337 -5.46408,0.14203 -55.695142,4.44487 -56.05171,4.80144 -0.240144,0.24015 -0.232638,1.3654 0.01667,2.50055 l 0.453316,2.06393 7.842116,-0.006 c 4.313155,-0.003 12.059607,-0.30997 17.214327,-0.68162 z m 49.529501,-7.38317 c 6.04004,-1.11268 11.65308,-2.31154 12.47342,-2.66413 1.46927,-0.63152 6.23599,-9.06515 6.23599,-11.03317 0,-1.08738 -3.14116,-1.90101 -21.14014,-5.47575 -6.2682,-1.24492 -11.52918,-2.13104 -11.69107,-1.96915 -0.16189,0.16188 0.39022,3.13626 1.22689,6.60971 1.10985,4.60755 1.45131,7.69997 1.26268,11.43547 -0.14221,2.81604 -0.054,5.12009 0.19589,5.12009 0.24995,0 5.3963,-0.91038 11.43634,-2.02307 z m -48.822341,-4.71412 c 14.783066,-1.12642 27.896441,-2.20838 29.140821,-2.40434 2.24236,-0.35311 2.25852,-0.38132 1.81349,-3.1669 -0.24697,-1.54584 -0.66034,-3.00335 -0.9186,-3.23889 -0.25826,-0.23555 -13.32077,0.67159 -29.027781,2.01587 l -28.5582,2.44415 -0.204806,3.19179 c -0.112647,1.75549 0.03857,3.19508 0.335979,3.19909 0.297429,0.004 12.636024,-0.91433 27.419097,-2.04077 z M 30.332267,110.42467 c 14.171603,-5.67702 33.235742,-11.672895 43.530432,-13.690775 9.18522,-1.80041 9.2444,-1.82377 8.84773,-3.49243 -0.94054,-3.95663 -1.48339,-4.74338 -3.04763,-4.41686 -0.83745,0.17481 -3.94169,0.50826 -6.8983,0.74101 -6.905645,0.54362 -31.729474,3.22956 -46.148012,4.99322 -6.16224,0.75376 -11.418933,1.37047 -11.681538,1.37047 -0.841621,0 0.267255,5.688435 2.417246,12.400265 1.346538,4.20362 2.370095,6.39718 2.880214,6.17252 0.435239,-0.19168 4.980175,-2.02652 10.099858,-4.07742 z m 57.215302,-2.46155 c 14.043911,-1.15778 25.634491,-2.19647 25.756821,-2.30818 0.12234,-0.11172 -0.0931,-0.79278 -0.47884,-1.51346 -0.55769,-1.04206 -1.91019,-1.46336 -6.60602,-2.05776 -16.533731,-2.092865 -23.883741,-1.72219 -38.384656,1.93575 -7.806019,1.96912 -9.517468,2.95106 -9.517468,5.46062 0,0.9337 0.408503,1.1312 1.847883,0.89339 1.016336,-0.16792 13.33836,-1.25258 27.38228,-2.41036 z m 68.200481,-6.15418 c 0.42906,-1.940285 0.94858,-5.837485 1.1545,-8.660455 l 0.37439,-5.13266 -10.67421,-0.50355 c -10.37865,-0.48959 -56.692091,0.13355 -58.391451,0.78566 -0.65309,0.25061 -0.68282,0.89392 -0.12956,2.8024 1.11426,3.8436 1.58216,4.15701 6.20605,4.15701 8.419521,0 33.639821,4.03307 52.056101,8.324475 3.88055,0.90426 7.40847,1.66903 7.83982,1.6995 0.43135,0.0304 1.13531,-1.53211 1.56436,-3.47238 z M 33.470169,87.898475 c 9.06299,-1.08214 23.123705,-2.62996 31.246035,-3.43963 8.122325,-0.80965 14.845995,-1.53597 14.941495,-1.61404 0.0955,-0.0781 -1.26029,-5.48147 -3.01285,-12.00755 -3.06843,-11.42611 -3.24975,-11.86563 -4.894928,-11.86563 -3.7498,0 -31.430263,5.26043 -49.818439,9.46755 l -6.483806,1.48346 -0.712428,3.76392 c -0.656914,3.47061 -0.958275,8.60689 -0.822085,14.01126 0.06809,2.70212 -1.277271,2.68832 19.557006,0.20066 z m 93.651411,-6.07626 30.1666,-0.004 -0.43038,-4.53571 c -0.23671,-2.49464 -0.96433,-6.50119 -1.61694,-8.90344 l -1.18657,-4.36772 -9.39886,-1.43597 c -18.79089,-2.87089 -34.9982,-4.43229 -49.594091,-4.77784 -8.11759,-0.19218 -14.90257,-0.0826 -15.2025,0.24553 -0.29793,0.32594 0.91201,5.88428 2.68874,12.35187 1.77673,6.4676 3.25061,11.87968 3.27526,12.02685 0.0247,0.14717 2.53948,0.0734 5.58848,-0.16396 3.04901,-0.23735 19.118631,-0.43336 35.710261,-0.43558 z M 36.797242,59.238955 c 6.088382,-1.28744 16.352851,-3.2437 22.809933,-4.34724 6.457077,-1.10354 11.826785,-2.09308 11.932672,-2.19897 0.273655,-0.27365 -8.956881,-34.028753 -9.436531,-34.508398 -0.649635,-0.649637 -9.959697,3.695619 -15.436798,7.204768 -6.570913,4.209949 -15.52354,12.82286 -19.881913,19.12746 -3.168954,4.58406 -8.122668,14.16305 -9.098572,17.5939 l -0.414999,1.45895 4.228211,-0.99483 c 2.325516,-0.54715 9.209615,-2.04819 15.297997,-3.33564 z"
       style="fill:#345189;fill-opacity:1;stroke-width:0.671958" />
  </g>
</svg>
