<?xml version="1.0" encoding="UTF-8" standalone="no"?>
<svg
   xmlns:dc="http://purl.org/dc/elements/1.1/"
   xmlns:cc="http://creativecommons.org/ns#"
   xmlns:rdf="http://www.w3.org/1999/02/22-rdf-syntax-ns#"
   xmlns:svg="http://www.w3.org/2000/svg"
   xmlns="http://www.w3.org/2000/svg"
   xmlns:sodipodi="http://sodipodi.sourceforge.net/DTD/sodipodi-0.dtd"
   xmlns:inkscape="http://www.inkscape.org/namespaces/inkscape"
   sodipodi:docname="matcha.svg"
   inkscape:version="1.0 (4035a4fb49, 2020-05-01)"
   id="svg8"
   fill="#FFFFFF"
   version="1.1"
   viewBox="0 0 690 210"
   height="210mm"
   width="690mm">
  <defs
     id="defs2" />
  <sodipodi:namedview
     inkscape:window-maximized="0"
     inkscape:window-y="0"
     inkscape:window-x="0"
     inkscape:window-height="728"
     inkscape:window-width="1366"
     width="594mm"
     showgrid="false"
     inkscape:document-rotation="0"
     inkscape:current-layer="layer1"
     inkscape:document-units="mm"
     inkscape:cy="650.2868"
     inkscape:cx="1451.7683"
     inkscape:zoom="0.35"
     inkscape:pageshadow="2"
     inkscape:pageopacity="0.0"
     borderopacity="1.0"
     bordercolor="#666666"
     pagecolor="#ffffff"
     id="base" />
  <metadata
     id="metadata5">
    <rdf:RDF>
      <cc:Work
         rdf:about="">
        <dc:format>image/svg+xml</dc:format>
        <dc:type
           rdf:resource="http://purl.org/dc/dcmitype/StillImage" />
        <dc:title></dc:title>
      </cc:Work>
    </rdf:RDF>
  </metadata>
  <g
     id="layer1"
     inkscape:groupmode="layer"
     inkscape:label="レイヤー 1">
    <g
       style="font-size:50.8px;line-height:1.25;font-family:'M+ 1p';-inkscape-font-specification:'M+ 1p';stroke-width:0.264583"
       id="text18"
       aria-label="Matcha Linux">
      <path
         id="path20"
         style="font-size:105.833px;stroke-width:0.264583"
         d="M 16.555327,148.92262 V 71.664533 H 25.1278 l 27.51658,46.566517 h 0.211666 l 27.51658,-46.566517 h 8.889972 v 77.258087 h -8.46664 V 85.846155 H 80.584292 L 56.666034,125.95686 H 48.834392 L 24.916134,85.846155 h -0.211666 v 63.076465 z" />
      <path
         id="path22"
         style="font-size:105.833px;stroke-width:0.264583"
         d="m 126.3488,92.831133 q 11.53579,0 16.50995,4.762485 4.97415,4.762482 4.97415,15.663282 v 20.8491 q 0,7.51415 1.58749,14.81662 h -7.40831 q -0.84666,-4.12748 -1.05833,-9.73663 h -0.21166 q -2.8575,5.07998 -8.25498,7.93747 -5.39748,2.85749 -12.17079,2.85749 -7.61998,0 -12.1708,-4.23332 -4.55082,-4.33915 -4.55082,-11.64163 0,-9.20747 8.04331,-14.60495 8.04331,-5.50332 22.85993,-5.50332 h 5.60915 v -0.52916 q 0,-8.04331 -3.06916,-11.11247 -2.96332,-3.174987 -10.68913,-3.174987 -9.94831,0 -18.52078,4.868317 l -1.37583,-6.244146 q 9.10164,-4.974151 19.89661,-4.974151 z M 111.21468,133.7885 q 0,4.76249 2.96332,7.51415 2.96333,2.64582 7.93748,2.64582 7.30247,0 12.59412,-5.18582 5.39749,-5.29165 5.39749,-12.91162 v -5.92665 h -5.60915 q -11.11247,0 -17.25078,3.80999 -6.03248,3.70415 -6.03248,10.05413 z" />
      <path
         id="path24"
         style="font-size:105.833px;stroke-width:0.264583"
         d="m 178.68652,75.897853 v 20.10827 h 20.8491 v 6.349977 h -20.8491 v 28.89241 q 0,7.40831 2.01083,9.9483 2.01083,2.43416 7.51414,2.43416 4.86832,0 9.31331,-1.79916 l 1.26999,6.24415 q -5.39748,1.90499 -11.64163,1.90499 -8.9958,0 -12.69996,-3.80999 -3.70415,-3.91582 -3.70415,-13.44079 V 102.3561 h -12.1708 v -6.349977 h 12.1708 v -20.10827 z" />
      <path
         id="path26"
         style="font-size:105.833px;stroke-width:0.264583"
         d="m 238.4772,99.286946 q -9.3133,0 -14.49912,5.820814 -5.18582,5.71498 -5.18582,16.29828 0,10.15997 5.39749,16.19245 5.50331,6.03248 14.28745,6.03248 7.40831,0 14.18162,-3.59832 l 2.11666,6.24415 q -7.93747,3.70415 -16.61578,3.70415 -12.27663,0 -19.8966,-7.72581 -7.61998,-7.83164 -7.61998,-20.8491 0,-13.44079 7.30248,-20.95493 7.30248,-7.619977 20.2141,-7.619977 8.67831,0 16.61578,3.704155 l -2.11666,6.455812 q -7.09081,-3.704154 -14.18162,-3.704154 z" />
      <path
         id="path28"
         style="font-size:105.833px;stroke-width:0.264583"
         d="m 270.0667,69.547873 h 7.72581 V 103.3086 h 0.21167 q 6.98498,-10.477467 18.52077,-10.477467 9.31331,0 13.75829,5.820815 4.55082,5.714982 4.55082,18.203272 v 32.0674 h -7.61997 v -31.4324 q 0,-10.2658 -2.96333,-14.18162 -2.96332,-4.021654 -10.15996,-4.021654 -6.34998,0 -11.32414,6.244144 -4.97415,6.13832 -4.97415,13.96996 v 29.42157 h -7.72581 z" />
      <path
         id="path30"
         style="font-size:105.833px;stroke-width:0.264583"
         d="m 350.2104,92.831133 q 11.5358,0 16.50995,4.762485 4.97415,4.762482 4.97415,15.663282 v 20.8491 q 0,7.51415 1.58749,14.81662 h -7.40831 q -0.84666,-4.12748 -1.05833,-9.73663 h -0.21166 q -2.85749,5.07998 -8.25498,7.93747 -5.39748,2.85749 -12.17079,2.85749 -7.61998,0 -12.1708,-4.23332 -4.55082,-4.33915 -4.55082,-11.64163 0,-9.20747 8.04331,-14.60495 8.04331,-5.50332 22.85993,-5.50332 h 5.60915 v -0.52916 q 0,-8.04331 -3.06916,-11.11247 -2.96332,-3.174987 -10.68913,-3.174987 -9.9483,0 -18.52078,4.868317 l -1.37582,-6.244146 q 9.10163,-4.974151 19.8966,-4.974151 z M 335.07628,133.7885 q 0,4.76249 2.96332,7.51415 2.96333,2.64582 7.93748,2.64582 7.30248,0 12.59413,-5.18582 5.39748,-5.29165 5.39748,-12.91162 v -5.92665 h -5.60915 q -11.11246,0 -17.25078,3.80999 -6.03248,3.70415 -6.03248,10.05413 z" />
      <path
         id="path32"
         style="font-size:105.833px;stroke-width:0.264583"
         d="m 428.62108,71.664533 v 70.061447 h 37.78238 v 7.19664 H 419.83694 V 71.664533 Z" />
      <path
         id="path34"
         style="font-size:105.833px;stroke-width:0.264583"
         d="m 485.02344,81.189503 v -11.64163 h 8.14914 v 11.64163 z m 0,67.733117 V 93.889463 h 8.14914 v 55.033157 z" />
      <path
         id="path36"
         style="font-size:105.833px;stroke-width:0.264583"
         d="m 513.24282,93.889463 h 7.40831 l 0.10583,9.842467 h 0.21166 q 3.17499,-5.079982 8.04331,-7.937473 4.97415,-2.963324 10.68914,-2.963324 9.3133,0 13.75829,5.820815 4.55081,5.714982 4.55081,18.203272 v 32.0674 h -7.61997 v -31.4324 q 0,-10.2658 -2.96333,-14.18162 -2.96332,-4.021654 -10.15996,-4.021654 -6.13832,0 -11.2183,6.138314 -5.07999,6.03248 -5.07999,14.07579 v 29.42157 h -7.7258 z" />
      <path
         id="path38"
         style="font-size:105.833px;stroke-width:0.264583"
         d="m 580.48478,93.889463 v 34.184057 q 0,8.46664 2.75166,11.8533 2.85749,3.38665 9.41914,3.38665 6.13831,0 11.11246,-5.92664 5.07998,-5.92665 5.07998,-14.07579 V 93.889463 h 7.72581 v 55.033157 h -7.40831 l -0.10583,-9.84247 h -0.21167 q -3.17499,5.07999 -8.14914,8.04331 -4.86831,2.85749 -10.5833,2.85749 -8.88997,0 -13.12329,-4.97415 -4.12749,-5.07998 -4.12749,-16.19245 V 93.889463 Z" />
      <path
         id="path40"
         style="font-size:105.833px;stroke-width:0.264583"
         d="m 639.49662,93.889463 14.39329,21.907427 h 0.21167 l 14.39329,-21.907427 h 8.78413 l -18.73244,27.093247 19.26161,27.93991 h -9.10164 l -14.92245,-22.85993 h -0.21167 l -14.81662,22.85993 h -8.88997 l 19.36744,-27.93991 -18.83827,-27.093247 z" />
    </g>
  </g>
</svg>
